<svg xmlns="http://www.w3.org/2000/svg" viewBox="0 0 298.34 75.6"><defs><style>.cls-1{fill:#265d9e;}</style></defs><title>Fichier 14</title><g id="Calque_2" data-name="Calque 2"><g id="Calque_1-2" data-name="Calque 1"><path id="Path_2514" data-name="Path 2514" d="M0,11.19H11.66V53.66H33.25V64.42H0Z"/><path id="Path_2515" data-name="Path 2515" d="M38.4,28.33H49.61V64.4H38.4ZM44,10.39a6.5,6.5,0,1,1-6.5,6.5,6.5,6.5,0,0,1,6.5-6.5h0"/><path id="Path_2516" data-name="Path 2516" d="M96.46,11.18h11.21V43l12.69-14.68H134.1L119.39,45l14.4,19.41H119.71L107.82,46.59h-.15V64.42H96.47Z"/><path id="Path_2517" data-name="Path 2517" d="M55.82,28.33H66.57v4.93h.16a11.77,11.77,0,0,1,10.6-5.83c11.36,0,13.45,7.48,13.45,17.19V64.4H79.58V46.86c0-4.19-.07-9.57-5.83-9.57S67,41.85,67,46.56V64.4H55.82Z"/><path id="Path_2518" data-name="Path 2518" d="M157.69,42.17a6.71,6.71,0,0,0-6.56-6.87h-.32a7.47,7.47,0,0,0-7.92,6.87Zm9.49,16a19.73,19.73,0,0,1-15.32,7.17c-11.2,0-20.17-7.47-20.17-19s9-19.06,20.17-19.06c10.47,0,17,7.47,17,19.06v3.51h-26a8.37,8.37,0,0,0,8.45,7,9.54,9.54,0,0,0,8-4.41Z"/><path id="Path_2519" data-name="Path 2519" d="M192.24,37.05c-5.6,0-9,3.74-9,9.19s3.36,9.19,9,9.19,9-3.73,9-9.19-3.36-9.19-9-9.19M211.53,64.4H201.21V59.61h-.15a14.07,14.07,0,0,1-11.14,5.68c-10.76,0-17.85-7.77-17.85-18.75,0-10.09,6.28-19.35,16.59-19.35,4.64,0,9,1.26,11.51,4.78h.14V11.18h11.22Z"/><path id="Path_2520" data-name="Path 2520" class="cls-1" d="M287.15,64.42H276V46.87c0-4.18-.08-9.56-5.83-9.56s-6.72,4.55-6.72,9.26V64.42H252.19V28.34H263v4.93h.15a11.79,11.79,0,0,1,10.61-5.83c11.35,0,13.45,7.47,13.45,17.19Zm-47.6-41a6.5,6.5,0,1,1,6.5-6.5,6.5,6.5,0,0,1-6.5,6.5h0m5.6,41H233.94V28.34h11.21ZM292.74,0H228.31a5.51,5.51,0,0,0-5.58,5.44v64.7a5.53,5.53,0,0,0,5.58,5.45h64.43a5.53,5.53,0,0,0,5.6-5.45V5.45A5.53,5.53,0,0,0,292.74,0"/></g></g></svg>