<svg xmlns="http://www.w3.org/2000/svg" viewBox="0 0 296.61 84.15"><title>Fichier 13</title><g id="Calque_2" data-name="Calque 2"><g id="Calque_1-2" data-name="Calque 1"><path d="M53.27,28.14a34.44,34.44,0,0,0,20.08,6.42V20.16a19.88,19.88,0,0,1-4.21-.45V31.05a34.5,34.5,0,0,1-20.09-6.42V54A26.64,26.64,0,0,1,7.59,76.14,26.64,26.64,0,0,0,53.27,57.53V28.14Zm5.2-14.54a20.05,20.05,0,0,1-5.2-11.75V0h-4a20.14,20.14,0,0,0,9.2,13.6ZM16.9,64.86a12.18,12.18,0,0,1,13.39-19V31.15a27.08,27.08,0,0,0-4.22-.24V42.37A12.18,12.18,0,0,0,16.9,64.86Z"/><path d="M49.05,24.63a34.5,34.5,0,0,0,20.09,6.42V19.71A20.19,20.19,0,0,1,58.47,13.6,20.19,20.19,0,0,1,49.27,0H38.78V57.53a12.19,12.19,0,0,1-21.89,7.33,12.19,12.19,0,0,1,9.18-22.49V30.91A26.62,26.62,0,0,0,7.59,76.14,26.64,26.64,0,0,0,49.05,54V24.63Z"/><path d="M237.08,68.59a18.91,18.91,0,1,0,0-37.81h-2.87a18.91,18.91,0,1,1,0,37.81Z"/><path d="M234,30.78h-2.87a18.91,18.91,0,1,0,0,37.81H234a18.91,18.91,0,1,1,0-37.81Z"/><path d="M89.06,22.24v9.58h11.22V68.33h11.23V32.08h9.14l3.13-9.84Zm91.89,0v9.58h11.23V68.33h11.23V32.08h9.13l3.13-9.84Zm-55.08,5.43a5.48,5.48,0,1,1,5.48,5.44A5.45,5.45,0,0,1,125.87,27.67Zm0,9.33h11V68.33h-11Zm15.66-14.76V68.33h11V56.42l3.39-3.11,10.7,15.28h11.75l-15.4-22.27,13.83-13.47H163.46l-11,10.88V22.24Zm118.26,0V68.33h11V56.42l3.39-3.11,10.71,15.28h11.75L281.2,46.32,295,32.85H281.73l-11,10.88V22.24Z"/><path d="M234.21,68.59a18.91,18.91,0,1,0,0-37.81H234a18.91,18.91,0,1,0,0,37.81Zm-9.4-18.9a9.27,9.27,0,1,1,9.27,9.19A9.24,9.24,0,0,1,224.81,49.69Z"/></g></g></svg>