<svg xmlns="http://www.w3.org/2000/svg" viewBox="0 0 297.4 60.98"><title>Fichier 11</title><g id="Calque_2" data-name="Calque 2"><g id="Calque_1-2" data-name="Calque 1"><path d="M158.72,29.64a14.11,14.11,0,0,0-6.24,1.68V50.57a40.53,40.53,0,0,0,4.5.17c6.11,0,6.94-2.8,6.94-6.71V34.84c0-2.89-.95-5.2-5.2-5.2Zm-40.58-1.05c-4.24,0-5.21,2.32-5.21,5.21v1.62h10.41V33.8c0-2.89-1-5.21-5.2-5.21Zm-78.61,20c0,2.28,1.08,3.46,3.45,3.46A12.7,12.7,0,0,0,48.9,50.4V45.83H43.33c-2.64,0-3.8.49-3.8,2.79Zm158.67-19c-4.25,0-5.72,2.31-5.72,5.2V45.37c0,2.89,1.47,5.22,5.72,5.22s5.71-2.33,5.71-5.22V34.84c0-2.89-1.48-5.2-5.71-5.2ZM18.72,60.42H6.24V30.21H0V19.8H6.24V13.55C6.24,5.05,9.76,0,19.76,0H28.1V10.41H22.89c-3.9,0-4.15,1.46-4.15,4.18l0,5.21h9.43l-1.1,10.41H18.72Zm42.66.08H51l-.45-2.63a23.87,23.87,0,0,1-11.79,3.06c-7.63,0-11.69-5.1-11.69-12.15,0-8.31,4.74-11.28,13.22-11.28H48.9V35.7c0-4.25-.49-5.49-7-5.49H31.21l1-10.41H43.92c14.32,0,17.46,4.52,17.46,16ZM96.76,31c-6.47-1.11-8.33-1.35-11.45-1.35-5.59,0-7.28,1.23-7.28,6v9c0,4.75,1.69,6,7.28,6,3.12,0,5-.24,11.45-1.36V59.38A55.16,55.16,0,0,1,84.27,61c-13.4,0-18.73-7-18.73-17.23V36.46c0-10.19,5.33-17.25,18.73-17.25a55.29,55.29,0,0,1,12.49,1.61Zm39.06,12.78H112.93v.84c0,4.75,1.7,6,7.29,6a72.32,72.32,0,0,0,14.56-1.36V59.38A65.66,65.66,0,0,1,119.19,61c-13.41,0-18.74-7-18.74-17.23V35.41c0-8.9,4-16.2,17.69-16.2s17.68,7.21,17.68,16.2Zm40.58.2c0,9.84-2.81,17-19.85,17-6.15,0-9.76-.54-16.55-1.58V3.13l12.48-2.08V20.72a28.39,28.39,0,0,1,9.36-1.51c12.48,0,14.56,5.6,14.56,14.59V44Zm40,.21c0,8.49-3.51,16.72-18.17,16.72S180,52.65,180,44.16V36c0-8.49,3.57-16.72,18.24-16.72S216.41,27.47,216.41,36Zm40,0c0,8.49-3.51,16.72-18.17,16.72S220,52.65,220,44.16V36c0-8.49,3.57-16.72,18.24-16.72S256.38,27.47,256.38,36Zm41,16.26H283.88L272.44,41.33V60.42H260V3.13L272.44,1V37.93L283.88,19.8H297.4L284.91,39.59ZM238.17,29.64c-4.24,0-5.71,2.31-5.71,5.2V45.37c0,2.89,1.47,5.22,5.71,5.22s5.73-2.33,5.73-5.22V34.84c0-2.89-1.5-5.2-5.73-5.2Z"/></g></g></svg>