<svg xmlns="http://www.w3.org/2000/svg" viewBox="0 0 283.09 63.2"><defs><style>.cls-1{fill:#252323;}.cls-2{fill:#bc1919;}.cls-3{fill:#fff;}</style></defs><title>g10</title><g id="Calque_2" data-name="Calque 2"><g id="Calque_1-2" data-name="Calque 1"><g id="g10"><g id="g12"><path id="path14" class="cls-1" d="M141.05,51.3a19.21,19.21,0,0,0,.74-6.33V32.64a18.92,18.92,0,0,0-.74-6.23,2.64,2.64,0,0,0-2.61-2,2.6,2.6,0,0,0-2.55,2,18.92,18.92,0,0,0-.74,6.23V45a20,20,0,0,0,.71,6.33,2.59,2.59,0,0,0,2.58,1.93,2.64,2.64,0,0,0,2.61-1.93Zm-10,6.19a9.78,9.78,0,0,1-3.81-5.61,36.54,36.54,0,0,1-1.13-10.14V36a33.31,33.31,0,0,1,1.29-10.26,10.28,10.28,0,0,1,4-5.65,13.1,13.1,0,0,1,7.2-1.78,12.33,12.33,0,0,1,7,1.81,10.41,10.41,0,0,1,3.87,5.65A34.52,34.52,0,0,1,150.77,36v5.75a35.08,35.08,0,0,1-1.2,10.17,10,10,0,0,1-3.87,5.62,13,13,0,0,1-7.26,1.77,13,13,0,0,1-7.39-1.81"/><path id="path16" class="cls-1" d="M269.3,25.18a5.45,5.45,0,0,0-.9,2.74,53.69,53.69,0,0,0-.23,5.78v2.84h6.52V33.7a48.82,48.82,0,0,0-.25-5.78,5.66,5.66,0,0,0-.94-2.78,2.61,2.61,0,0,0-2.1-.8A2.55,2.55,0,0,0,269.3,25.18Zm-1.13,16.65v2a52.71,52.71,0,0,0,.23,5.71,5.38,5.38,0,0,0,.94,2.78,2.65,2.65,0,0,0,2.19.87,2.76,2.76,0,0,0,2.74-1.55,13.33,13.33,0,0,0,.81-5.17l7.68.45a10.72,10.72,0,0,1,.07,1.43c0,3.65-1,6.39-3,8.2s-4.83,2.71-8.49,2.71q-6.58,0-9.24-4.14t-2.64-12.78V35.44q0-8.91,2.74-13t9.4-4.1c3,0,5.4.56,7,1.68a9,9,0,0,1,3.46,5.23,38.16,38.16,0,0,1,1,9.82v6.77H268.17"/><path id="path18" class="cls-1" d="M109.35,41.09,99.21,4.49h8.85l3.55,16.59q1.35,6.14,2,10.46h.26q.45-3.11,2-10.4l3.68-16.65h8.85l-10.27,36.6V58.66h-8.78V41.09"/><path id="path20" class="cls-1" d="M179.54,19.08V58.66h-7l-.77-4.85h-.19q-2.85,5.49-8.53,5.49a6.71,6.71,0,0,1-5.81-2.58q-1.87-2.58-1.87-8.07V19.08h8.91V48.13a8.82,8.82,0,0,0,.58,3.78A2,2,0,0,0,166.82,53a4,4,0,0,0,2.23-.71,4.5,4.5,0,0,0,1.58-1.81V19.08h8.91"/><path id="path22" class="cls-1" d="M225.24,19.08V58.66h-7l-.78-4.85h-.19q-2.85,5.49-8.53,5.49A6.71,6.71,0,0,1,203,56.72c-1.24-1.72-1.87-4.41-1.87-8.07V19.08H210V48.13a8.82,8.82,0,0,0,.58,3.78A2,2,0,0,0,212.52,53a4,4,0,0,0,2.23-.71,4.5,4.5,0,0,0,1.58-1.81V19.08h8.91"/><path id="path24" class="cls-1" d="M203.75,11.65H194.9v47h-8.71v-47h-8.85V4.49h26.41v7.16"/><path id="path26" class="cls-1" d="M246.56,41.55a49.45,49.45,0,0,1-.36,6.78A7.21,7.21,0,0,1,245,51.81a2.76,2.76,0,0,1-2.26,1,4.06,4.06,0,0,1-2-.52,3.85,3.85,0,0,1-1.52-1.55V28.31a5.6,5.6,0,0,1,1.55-2.64,3.43,3.43,0,0,1,2.39-1,2.43,2.43,0,0,1,2.1,1.07,8.32,8.32,0,0,1,1,3.58,68,68,0,0,1,.29,7.17Zm8.17-16.15A10.16,10.16,0,0,0,252.11,20a7,7,0,0,0-5-1.68,8.26,8.26,0,0,0-4.58,1.39,9.51,9.51,0,0,0-3.3,3.65h-.06V2.48h-8.59V58.65H238l.91-3.74h.19a7.55,7.55,0,0,0,3.1,3.16,9.13,9.13,0,0,0,4.58,1.17,7,7,0,0,0,6.65-4.17q2.13-4.16,2.13-13V35.8a52.76,52.76,0,0,0-.8-10.4"/><path id="path28" class="cls-2" d="M88.4,9.87a11.28,11.28,0,0,0-8-8C73.37,0,45.14,0,45.14,0S16.91,0,9.87,1.89a11.25,11.25,0,0,0-8,8C0,16.91,0,31.6,0,31.6S0,46.29,1.89,53.33a11.29,11.29,0,0,0,8,8c7,1.89,35.27,1.89,35.27,1.89s28.23,0,35.27-1.89a11.32,11.32,0,0,0,8-8c1.88-7,1.88-21.73,1.88-21.73s0-14.69-1.88-21.73"/><path id="path30" class="cls-3" d="M36.11,45.14V18.06L59.57,31.6Z"/></g></g></g></g></svg>