<svg xmlns="http://www.w3.org/2000/svg" viewBox="0 0 497.61 232.26"><defs><style>.cls-1{fill:#e83f31;}.cls-2{fill:#ffcf4a;}.cls-3{fill:#149bd8;}.cls-4{fill:#215ea9;}.cls-5{fill:#8ac052;}.cls-6{fill:#f8ad32;}.cls-7{fill:none;stroke:#f8ad32;stroke-miterlimit:10;stroke-width:0.3px;}</style></defs><title>ONT1</title><g id="Calque_2" data-name="Calque 2"><g id="Calque_1-2" data-name="Calque 1"><path class="cls-1" d="M177.3,9.92c-4.51-2.9-6.87,1-9.36,2.11-3.66,1.66-11.29-.51-13.26-2.74s-4-4-10.26-4.86C138.75,3.69,121.48.72,118,.12a1,1,0,0,0-1,.41c-.87,1.24-2.22,4.55,4.26,8.33,8.23,4.81,7.87,10.08,18.66,17,13.61,8.65,21.81,8.74,27.44,19.06a1.07,1.07,0,0,0,2-.45A90.31,90.31,0,0,0,166,27.33a16.51,16.51,0,0,1-.64-6.17c.27-2.83,1.4-5.85,6.25-1.54,3.34,2.95,11.22-2,13.8-3.62,1-.62-5.32-4.3-8.09-6.08"/><path class="cls-2" d="M129.69,159.21c-2.89-.15-2.56,1.7-1.83,4.56A113.42,113.42,0,0,1,130.53,177a128.09,128.09,0,0,1,.69,30.87,3.55,3.55,0,0,0,1.64,3.46,2.85,2.85,0,0,0,4.4-2.06l1-32.79c-.08-1.48-.15-2.95-.22-4.43-.76-5.39,0-11.39-7-12.69a11.26,11.26,0,0,0-1.33-.17"/><path class="cls-3" d="M137.68,52.67a56.21,56.21,0,0,1-5.28,7.9,73.77,73.77,0,0,1-13.23,13A82.79,82.79,0,0,1,85.33,88.87c-6.92,1.44-14.39,2.79-22.51,4,0,0-19.73,1.25-28.12,16.52a.45.45,0,0,0,.67.56c7.5-5.08,21.5-14.11,44.38-9.79a13.83,13.83,0,0,1,3.31,1.08c.22.82-1.71.52-2,.47-1-.21-12.11.29-13.38.49a73.38,73.38,0,0,0-8.8,2,71.84,71.84,0,0,0-20.53,9.92l-.19.13c-2.21,1.6-4.16,3.4-6.2,5a2.15,2.15,0,0,0-.8,1.29c-1.38,6.74,9.4-2.41,14.56-4h0c8.35-2.59,23.62-6.4,34.17-3.34.49.15,1.1.13,1.46.52-.23.33-.72.25-1.1.33-.65.08-1.3.11-2,.2a56.21,56.21,0,0,1-7,.24c-.5,0-1,0-1.51,0a66.24,66.24,0,0,0-12.7,2c-1.58.34-3.15.75-4.68,1.22a55,55,0,0,0-5.68,2.06,87.53,87.53,0,0,0-11.3,5.64c-.86.52-1.78,1.07-2.72,1.61a3,3,0,0,0-1.5,2.81c.29,2.69.9,10.2,4.27,6.58a11.3,11.3,0,0,1,3.11-2.16,49.48,49.48,0,0,1,20.8-7.06,84.5,84.5,0,0,1,11.79-.67,25.38,25.38,0,0,1,5.36.76c.69.17,3.41,1,1.43,1.52-1.18.34-10.65-2.06-23,2.27a63.88,63.88,0,0,0-12.82,6.17c-.81.52-1.63,1.07-2.45,1.63-1.26.88-2.4,1.84-3.54,2.8-.12.09-.21.19-.33.27a3.3,3.3,0,0,0-1,3.57c.23.64.23,3.13,2.62,1.21a34,34,0,0,1,9.81-5.22,34.74,34.74,0,0,1,8.93-2,68.93,68.93,0,0,1,14.68.81c3.83,1.68-13.33.09-21,3.32A55.52,55.52,0,0,0,41,148.6c-3.9,2.6-2.6,4.72-2,5.63,1.57,2.52,3.59,3.37,5.35,5.82,3.1,4.34,9.59,15.38.27,31.16-.6,1-3.26,4.17-1.85,7.22l13.46,32.24a2.61,2.61,0,0,0,2.46,1.59h.06a2.56,2.56,0,0,0,2.44-3.43c-4-10.79-6-29.69,2.87-46s23.58-37.57,23.57-37.57c2.1-3.83,8.24-12.25,15.91-20.84,10.14-14.47,27.16-41.89,34.16-71.73M67.82,152.42a1.69,1.69,0,0,1-.37.27,11.62,11.62,0,0,1-2.31.95l-.5.16-1.63.46-.58.14-.16,0-.16,0a16,16,0,0,1-1.7.33c-.58.08-1.17.14-1.74.17a42.09,42.09,0,0,0-7,1.39c-1.58.37-6.51,3.28-6.37,1.28.4-.41.8-.8,1.19-1.16A21.6,21.6,0,0,1,48.26,155a14.71,14.71,0,0,1,7.52-2.74c1.4-.1,2.81-.15,4.21-.2,2.13-.09,4.27-.19,6.37-.46l.88-.12a1.72,1.72,0,0,1,.59.27.2.2,0,0,1,.08.08c.17.17.12.36-.09.57"/><path class="cls-4" d="M163.25,125.73a48.66,48.66,0,0,0,.63-7.62c.06-3.65-5.1-22-27.27-18.73-9.58,1.39-22.72,13.38-33.09,25,10.14-14.46,27.16-41.88,34.15-71.72a118.39,118.39,0,0,0,3-19.5c.07-1.25,1.73-2.72,3-2.31C150,33,167.4,40.35,168,52c0,0,2.2,50.72-4.75,73.69"/><path class="cls-5" d="M163.88,118.11a48.66,48.66,0,0,1-.63,7.62,30.15,30.15,0,0,1-2.59,8.45c-4.11,8.42-4.07,32.17-4.07,32.17-.19-.19,3.51,47.85,3.51,47.85a2.8,2.8,0,0,1-5.54.79l-7.65-37.81a38.49,38.49,0,0,0-5.57-13.71c-17.34-26.18-45.94-20.21-47.14-20l-6.6,2.11s0-.33,0-.33c2.09-3.83,8.23-12.25,15.91-20.86,10.37-11.63,23.51-23.62,33.09-25,22.17-3.26,27.33,15.08,27.27,18.73"/><path class="cls-6" d="M85.07,59.1A26.62,26.62,0,1,1,58.45,32.18,26.77,26.77,0,0,1,85.07,59.1"/><path class="cls-7" d="M85.07,59.1A26.62,26.62,0,1,1,58.45,32.18,26.77,26.77,0,0,1,85.07,59.1Z"/><path class="cls-2" d="M58.78,0C26.68-.18.69,25.37,0,57.83a59.22,59.22,0,0,0,29.14,52.42,20.12,20.12,0,0,1,6.07-10.88C60,77.75,86.5,90.28,114,66l.06,0,0,0a8.7,8.7,0,0,0,2.85-6.47V59.1c0-32.53-26-58.92-58.11-59.1m1.4,86A26.92,26.92,0,1,1,85,60.85,26.78,26.78,0,0,1,60.18,86"/><path class="cls-3" d="M201.68,131.88H212.1a29.59,29.59,0,0,1,7.2.85,16.22,16.22,0,0,1,5.94,2.74,13.37,13.37,0,0,1,4,4.92,16.53,16.53,0,0,1,1.49,7.34,15,15,0,0,1-1.44,6.75,14.65,14.65,0,0,1-3.9,4.9,17.25,17.25,0,0,1-5.66,3,21.76,21.76,0,0,1-6.72,1H201.68ZM208.63,157h3.61a19.75,19.75,0,0,0,4.47-.49,9.61,9.61,0,0,0,3.59-1.63,7.82,7.82,0,0,0,2.38-3,10.56,10.56,0,0,0,.87-4.52,8.77,8.77,0,0,0-.87-4,8.09,8.09,0,0,0-2.34-2.83,10.26,10.26,0,0,0-3.45-1.67,15.36,15.36,0,0,0-4.16-.56h-4.1Z"/><path class="cls-3" d="M260.87,151.25a15.32,15.32,0,0,1-.85,5.17,11.17,11.17,0,0,1-2.52,4.09,11.44,11.44,0,0,1-4.16,2.72,17.45,17.45,0,0,1-11.53,0,11.48,11.48,0,0,1-4.17-2.72,11.28,11.28,0,0,1-2.51-4.09,15.08,15.08,0,0,1-.85-5.17V131.88h6.95V151a7.73,7.73,0,0,0,.46,2.72,6.57,6.57,0,0,0,1.32,2.16,5.94,5.94,0,0,0,2,1.43,6.44,6.44,0,0,0,2.57.51,6.18,6.18,0,0,0,2.53-.51,6.1,6.1,0,0,0,2-1.43,6.55,6.55,0,0,0,1.31-2.16,7.73,7.73,0,0,0,.47-2.72v-19.1h7Z"/><polygon class="cls-3" points="284.16 138.03 275.16 138.03 275.16 131.88 300.1 131.88 300.1 138.03 291.11 138.03 291.11 163.41 284.16 163.41 284.16 138.03"/><path class="cls-3" d="M300.72,147.64a17.9,17.9,0,0,1,1.27-6.85,15.17,15.17,0,0,1,3.54-5.24,15.75,15.75,0,0,1,5.39-3.31,20.6,20.6,0,0,1,13.63,0,15.75,15.75,0,0,1,5.39,3.31,15,15,0,0,1,3.54,5.24,19.14,19.14,0,0,1,0,13.71,15,15,0,0,1-3.54,5.24,15.59,15.59,0,0,1-5.39,3.31,20.6,20.6,0,0,1-13.63,0,15.59,15.59,0,0,1-5.39-3.31A15.17,15.17,0,0,1,302,154.5a17.91,17.91,0,0,1-1.27-6.86m7.22,0a11.57,11.57,0,0,0,.69,4.08,9.42,9.42,0,0,0,2,3.21,9,9,0,0,0,3.1,2.11,11.06,11.06,0,0,0,8.06,0,9,9,0,0,0,3.09-2.11,9.42,9.42,0,0,0,2-3.21,12.32,12.32,0,0,0,0-8.13,9.32,9.32,0,0,0-2-3.23,9,9,0,0,0-3.09-2.11,11.06,11.06,0,0,0-8.06,0,9,9,0,0,0-3.1,2.11,9.32,9.32,0,0,0-2,3.23,11.64,11.64,0,0,0-.69,4"/><path class="cls-3" d="M364.85,151.25a15.32,15.32,0,0,1-.84,5.17,11.3,11.3,0,0,1-2.52,4.09,11.44,11.44,0,0,1-4.16,2.72,15.5,15.5,0,0,1-5.75,1,15.68,15.68,0,0,1-5.79-1,11.21,11.21,0,0,1-6.68-6.81,15.32,15.32,0,0,1-.84-5.17V131.88h7V151a7.73,7.73,0,0,0,.46,2.72,6.41,6.41,0,0,0,1.32,2.16,5.94,5.94,0,0,0,2,1.43,6.39,6.39,0,0,0,2.56.51,6.23,6.23,0,0,0,2.54-.51,6,6,0,0,0,2-1.43,6.41,6.41,0,0,0,1.32-2.16,7.73,7.73,0,0,0,.47-2.72v-19.1h6.94Z"/><path class="cls-3" d="M370.06,131.88h12.21a21,21,0,0,1,4.56.47,10.82,10.82,0,0,1,3.79,1.56,7.74,7.74,0,0,1,2.58,2.93,10,10,0,0,1,1,4.61,9.24,9.24,0,0,1-1.74,5.68,7.77,7.77,0,0,1-5.08,3l8,13.32H387l-6.59-12.6H377v12.6h-6.95ZM377,144.93h4.1c.62,0,1.28,0,2-.07a6.22,6.22,0,0,0,1.9-.4,3.23,3.23,0,0,0,1.4-1.05,3.17,3.17,0,0,0,.55-2,3.08,3.08,0,0,0-1.73-3,5.63,5.63,0,0,0-1.74-.51,13.94,13.94,0,0,0-1.91-.13H377Z"/><rect class="cls-3" x="397.63" y="131.88" width="6.95" height="31.53"/><path class="cls-3" d="M425.29,139.58A5,5,0,0,0,423,138a8.28,8.28,0,0,0-2.74-.51,7.05,7.05,0,0,0-1.56.18,6.13,6.13,0,0,0-1.52.55,3.31,3.31,0,0,0-1.15,1,2.76,2.76,0,0,0,.62,3.69,9.77,9.77,0,0,0,2.69,1.29c1.09.36,2.25.72,3.5,1.08a14.36,14.36,0,0,1,3.5,1.51,8.24,8.24,0,0,1,2.69,2.63,8,8,0,0,1,1.07,4.41,10.13,10.13,0,0,1-1,4.58,9.38,9.38,0,0,1-2.65,3.25,11.51,11.51,0,0,1-3.87,1.92,17.36,17.36,0,0,1-4.66.62,17,17,0,0,1-5.7-.93,14.55,14.55,0,0,1-4.9-3l4.94-5.43A7.24,7.24,0,0,0,415,157a7.66,7.66,0,0,0,3.36.78,7.9,7.9,0,0,0,1.72-.2,6.17,6.17,0,0,0,1.56-.6,3.53,3.53,0,0,0,1.11-1,2.54,2.54,0,0,0,.42-1.47,2.66,2.66,0,0,0-1.09-2.25,10.17,10.17,0,0,0-2.74-1.4c-1.1-.38-2.29-.77-3.56-1.16a15.2,15.2,0,0,1-3.56-1.56,8.44,8.44,0,0,1-2.74-2.58,7.37,7.37,0,0,1-1.09-4.23,9.45,9.45,0,0,1,1-4.45,9.69,9.69,0,0,1,2.67-3.21,11.63,11.63,0,0,1,3.85-1.94,15.79,15.79,0,0,1,4.5-.64,17.91,17.91,0,0,1,5.17.75,12,12,0,0,1,4.49,2.54Z"/><polygon class="cls-3" points="434.06 131.88 444.57 131.88 451.83 152.45 451.92 152.45 459.22 131.88 469.69 131.88 469.69 163.41 462.74 163.41 462.74 139.23 462.65 139.23 454.37 163.41 449.07 163.41 441.1 139.23 441.01 139.23 441.01 163.41 434.06 163.41 434.06 131.88"/><polygon class="cls-3" points="475.17 131.88 496.59 131.88 496.59 138.29 482.11 138.29 482.11 144.17 495.79 144.17 495.79 150.58 482.11 150.58 482.11 157 497.39 157 497.39 163.41 475.17 163.41 475.17 131.88"/><path class="cls-3" d="M203.16,201.55V179.07h7.94c4.32,0,8.25,1.52,8.25,6.44a5.77,5.77,0,0,1-5.2,6.1l6,9.94h-4.82L210.08,192h-2.92v9.53Zm4-13h3.3c2.29,0,4.7-.31,4.7-3.11,0-2.57-2.32-3-4.41-3h-3.59Z"/><path class="cls-3" d="M231,179.07c5.82,0,11.34,3.68,11.34,11.24,0,8-6.92,11.24-11.81,11.24h-8.48V179.07Zm-1.81,18.86c4.8,0,9-2.16,9-7.62s-3.53-7.62-8.42-7.62h-3.68v15.24Z"/><path class="cls-3" d="M249.79,199.26a2.54,2.54,0,1,1-2.54-2.41,2.48,2.48,0,0,1,2.54,2.41"/><path class="cls-3" d="M271.89,182.05l-3.11,2.29a6.15,6.15,0,0,0-4.73-2.22c-4.6,0-7.72,3.55-7.72,8,0,4.64,3,8.35,7.72,8.35a6.33,6.33,0,0,0,5.05-2.73l3.3,2.35a10,10,0,0,1-8.38,4c-6.92,0-11.88-4.73-11.88-11.71s4.7-11.91,11.88-11.91a9.89,9.89,0,0,1,7.87,3.55"/><path class="cls-3" d="M284.61,202.12c-6.93,0-11.82-4.76-11.82-11.72,0-6.47,4.19-11.9,12-11.9,7.11,0,11.81,4.76,11.81,11.78s-5.11,11.84-12,11.84m.09-3.62c4.86,0,7.75-3.78,7.75-8.35s-3.18-8-7.78-8-7.69,3.58-7.69,8c0,4.61,2.89,8.35,7.72,8.35"/><polygon class="cls-3" points="299.35 201.55 299.35 179.07 304.65 179.07 315.54 195.77 315.61 195.77 315.61 179.07 319.61 179.07 319.61 201.55 314.53 201.55 303.41 184.31 303.35 184.31 303.35 201.55 299.35 201.55"/><path class="cls-3" d="M343.05,181.32l-2.95,3a8.65,8.65,0,0,0-5.88-2.19c-4.6,0-7.71,3.55-7.71,8,0,4.64,2.92,8.35,7.75,8.35a11,11,0,0,0,5.24-1.17V192h-4.61V188.4h8.61v11.5a19.46,19.46,0,0,1-9.28,2.22c-7,0-11.9-4.76-11.9-11.72s4.82-11.9,11.9-11.9c3.12,0,6.45.66,8.83,2.82"/><path class="cls-3" d="M357.73,202.12c-6.92,0-11.81-4.76-11.81-11.72,0-6.47,4.19-11.9,12-11.9,7.12,0,11.82,4.76,11.82,11.78s-5.11,11.84-12,11.84m.1-3.62c4.86,0,7.75-3.78,7.75-8.35s-3.18-8-7.78-8-7.69,3.58-7.69,8c0,4.61,2.89,8.35,7.72,8.35"/><polygon class="cls-3" points="202.17 83.48 212.01 83.48 225.98 106.32 226.08 106.32 226.08 83.48 233.32 83.48 233.32 116.35 223.85 116.35 209.5 92.95 209.41 92.95 209.41 116.35 202.17 116.35 202.17 83.48"/><path class="cls-3" d="M258.8,83.48h6l14.3,32.87h-8.17l-2.83-7H255.32l-2.74,7h-8Zm2.79,9.57-4,10.21h8Z"/><polygon class="cls-3" points="292.46 89.89 283.08 89.89 283.08 83.48 309.08 83.48 309.08 89.89 299.7 89.89 299.7 116.35 292.46 116.35 292.46 89.89"/><rect class="cls-3" x="320.64" y="83.48" width="7.24" height="32.87"/><path class="cls-3" d="M340.7,99.92A18.59,18.59,0,0,1,342,92.77a15.6,15.6,0,0,1,3.69-5.46,16.35,16.35,0,0,1,5.62-3.46,21.6,21.6,0,0,1,14.2,0,16.35,16.35,0,0,1,5.62,3.46,15.6,15.6,0,0,1,3.69,5.46,20,20,0,0,1,0,14.29,15.6,15.6,0,0,1-3.69,5.46,16.35,16.35,0,0,1-5.62,3.46,21.44,21.44,0,0,1-14.2,0,16.35,16.35,0,0,1-5.62-3.46,15.6,15.6,0,0,1-3.69-5.46,18.54,18.54,0,0,1-1.32-7.14m7.52,0a12,12,0,0,0,.72,4.24,9.37,9.37,0,0,0,5.29,5.55,11.56,11.56,0,0,0,8.4,0,9.6,9.6,0,0,0,3.23-2.2,9.87,9.87,0,0,0,2.06-3.35,12.82,12.82,0,0,0,0-8.47,9.73,9.73,0,0,0-2.06-3.36,9.48,9.48,0,0,0-3.23-2.21,11.56,11.56,0,0,0-8.4,0,9.4,9.4,0,0,0-5.29,5.57,12.12,12.12,0,0,0-.72,4.23"/><polygon class="cls-3" points="389.07 83.48 398.91 83.48 412.88 106.32 412.98 106.32 412.98 83.48 420.22 83.48 420.22 116.35 410.75 116.35 396.4 92.95 396.31 92.95 396.31 116.35 389.07 116.35 389.07 83.48"/><path class="cls-3" d="M445.7,83.48h6L466,116.35h-8.17l-2.83-7H442.22l-2.74,7h-8Zm2.79,9.57-4,10.21h8Z"/><polygon class="cls-3" points="477.55 83.48 484.79 83.48 484.79 109.67 496.95 109.67 496.95 116.35 477.55 116.35 477.55 83.48"/><path class="cls-3" d="M202.38,52.64A23,23,0,0,1,204,43.8a19.62,19.62,0,0,1,4.57-6.75,20.12,20.12,0,0,1,6.95-4.28,26.64,26.64,0,0,1,17.57,0A20.08,20.08,0,0,1,240,37.05a19.48,19.48,0,0,1,4.57,6.75,23,23,0,0,1,1.64,8.84,23,23,0,0,1-1.64,8.84A19.48,19.48,0,0,1,240,68.23a20.05,20.05,0,0,1-6.94,4.27,26.48,26.48,0,0,1-17.57,0,20.1,20.1,0,0,1-6.95-4.27A19.62,19.62,0,0,1,204,61.48a23,23,0,0,1-1.63-8.84m9.3,0a15,15,0,0,0,.89,5.25A12,12,0,0,0,215.13,62a11.5,11.5,0,0,0,4,2.72,14.26,14.26,0,0,0,10.39,0,11.6,11.6,0,0,0,4-2.72,12,12,0,0,0,2.55-4.14,15.87,15.87,0,0,0,0-10.48,11.63,11.63,0,0,0-6.54-6.89,14.4,14.4,0,0,0-10.39,0,11.81,11.81,0,0,0-4,2.73,11.93,11.93,0,0,0-2.56,4.16,15.07,15.07,0,0,0-.89,5.23"/><polygon class="cls-3" points="271.05 32.31 298.32 32.31 298.32 40.58 280 40.58 280 48.85 296.94 48.85 296.94 57.12 280 57.12 280 72.96 271.05 72.96 271.05 32.31"/><polygon class="cls-3" points="321.69 32.31 348.96 32.31 348.96 40.58 330.65 40.58 330.65 48.85 347.58 48.85 347.58 57.12 330.65 57.12 330.65 72.96 321.69 72.96 321.69 32.31"/><rect class="cls-3" x="375.43" y="32.31" width="8.96" height="40.65"/><path class="cls-3" d="M437.49,42.88a8.76,8.76,0,0,0-3.24-2.47,10.87,10.87,0,0,0-4.45-.86,11.18,11.18,0,0,0-8.41,3.7,12.62,12.62,0,0,0-2.47,4.16,15.87,15.87,0,0,0,0,10.48A12.92,12.92,0,0,0,421.36,62,11.15,11.15,0,0,0,425,64.75a10.43,10.43,0,0,0,4.51,1,10,10,0,0,0,4.88-1.15,9.47,9.47,0,0,0,3.5-3.22l7.47,5.58a15.63,15.63,0,0,1-6.55,5.34A20.39,20.39,0,0,1,430.66,74a24.86,24.86,0,0,1-8.78-1.5,20,20,0,0,1-6.95-4.27,19.48,19.48,0,0,1-4.57-6.75,23,23,0,0,1-1.63-8.84,23,23,0,0,1,1.63-8.84,19.48,19.48,0,0,1,4.57-6.75,19.86,19.86,0,0,1,6.95-4.27,24.86,24.86,0,0,1,8.78-1.5,21.64,21.64,0,0,1,3.59.32,19.21,19.21,0,0,1,3.67,1,16.16,16.16,0,0,1,3.48,1.84,13.63,13.63,0,0,1,3,2.81Z"/><polygon class="cls-3" points="468.95 32.31 496.57 32.31 496.57 40.58 477.91 40.58 477.91 48.16 495.54 48.16 495.54 56.43 477.91 56.43 477.91 64.7 497.61 64.7 497.61 72.96 468.95 72.96 468.95 32.31"/></g></g></svg>