<svg xmlns="http://www.w3.org/2000/svg" viewBox="0 0 419.83 161.76"><defs><style>.cls-1{fill:#fff;}</style></defs><title>ont blanc</title><g id="Calque_2" data-name="Calque 2"><g id="Calque_1-2" data-name="Calque 1"><path class="cls-1" d="M183.16,73.68c0-5.47,4.11-9.38,9.74-9.38s9.71,3.91,9.71,9.38-4.09,9.39-9.71,9.39-9.74-3.92-9.74-9.39m15.38,0c0-3.4-2.21-6-5.64-6s-5.66,2.55-5.66,6,2.2,6,5.66,6,5.64-2.58,5.64-6"/><polygon class="cls-1" points="205.4 82.74 205.4 64.6 218.58 64.6 218.58 67.99 209.37 67.99 209.37 71.8 218.38 71.8 218.38 75.21 209.37 75.21 209.37 82.74 205.4 82.74"/><polygon class="cls-1" points="221.34 82.74 221.34 64.6 234.51 64.6 234.51 67.99 225.3 67.99 225.3 71.8 234.32 71.8 234.32 75.21 225.3 75.21 225.3 82.74 221.34 82.74"/><rect class="cls-1" x="237.28" y="64.6" width="3.96" height="18.15"/><path class="cls-1" d="M244,73.68c0-5.6,4.33-9.38,9.94-9.38a8.47,8.47,0,0,1,7.75,4.43l-3.4,1.63A5,5,0,0,0,254,67.73a6,6,0,0,0,0,11.91A5,5,0,0,0,258.31,77l3.4,1.61A8.53,8.53,0,0,1,254,83.07c-5.61,0-9.94-3.81-9.94-9.39"/><polygon class="cls-1" points="264.09 82.74 264.09 64.6 277.26 64.6 277.26 67.99 268.05 67.99 268.05 71.8 277.07 71.8 277.07 75.21 268.05 75.21 268.05 79.34 277.26 79.34 277.26 82.74 264.09 82.74"/><polygon class="cls-1" points="300.36 82.74 291.49 70.91 291.49 82.74 287.53 82.74 287.53 64.6 291.6 64.6 300.22 75.99 300.22 64.6 304.19 64.6 304.19 82.74 300.36 82.74"/><path class="cls-1" d="M320.73,82.74l-1.17-3.07h-8l-1.17,3.07h-4.5l7.17-18.14h5l7.17,18.14Zm-5.16-14.28-2.9,7.8h5.8Z"/><polygon class="cls-1" points="329.47 82.74 329.47 67.99 324.02 67.99 324.02 64.6 338.87 64.6 338.87 67.99 333.46 67.99 333.46 82.74 329.47 82.74"/><rect class="cls-1" x="340.71" y="64.92" width="3.96" height="18.15"/><path class="cls-1" d="M346.47,74c0-5.47,4.1-9.39,9.73-9.39s9.72,3.92,9.72,9.39-4.1,9.38-9.72,9.38-9.73-3.91-9.73-9.38m15.37,0c0-3.41-2.2-6-5.64-6s-5.66,2.55-5.66,6,2.21,6,5.66,6,5.64-2.59,5.64-6"/><polygon class="cls-1" points="381.54 83.06 372.67 71.23 372.67 83.06 368.71 83.06 368.71 64.92 372.78 64.92 381.41 76.31 381.41 64.92 385.37 64.92 385.37 83.06 381.54 83.06"/><path class="cls-1" d="M401.92,83.07,400.74,80h-8l-1.17,3.08H387.1l7.17-18.15h5l7.17,18.15Zm-5.17-14.29-2.9,7.81h5.8Z"/><polygon class="cls-1" points="407.97 83.06 407.97 64.92 411.96 64.92 411.96 79.66 419.83 79.66 419.83 83.06 407.97 83.06"/><path class="cls-1" d="M183.16,109V90.86h7.35c5.83,0,9.87,3.62,9.87,9.06s-4,9.08-9.85,9.08Zm13.18-9.08c0-3.19-2-5.66-5.81-5.66h-3.4v11.35h3.38a5.51,5.51,0,0,0,5.83-5.69"/><path class="cls-1" d="M203.2,101.74V90.86h4v10.77c0,2.53,1.5,4.27,4.38,4.27s4.35-1.74,4.35-4.27V90.86H220v10.88c0,4.49-2.73,7.59-8.4,7.59s-8.4-3.1-8.4-7.59"/><polygon class="cls-1" points="235.15 109 235.15 94.26 229.71 94.26 229.71 90.86 244.56 90.86 244.56 94.26 239.14 94.26 239.14 109 235.15 109"/><path class="cls-1" d="M245.53,100c0-5.47,4.1-9.39,9.74-9.39S265,94.48,265,100s-4.1,9.38-9.71,9.38-9.74-3.91-9.74-9.38m15.38,0c0-3.4-2.21-6-5.64-6s-5.67,2.56-5.67,6,2.21,6,5.67,6,5.64-2.58,5.64-6"/><path class="cls-1" d="M267.77,101.74V90.86h4v10.77c0,2.53,1.5,4.27,4.38,4.27s4.35-1.74,4.35-4.27V90.86h4.05v10.88c0,4.49-2.73,7.59-8.4,7.59s-8.4-3.1-8.4-7.59"/><path class="cls-1" d="M298.77,109l-3.65-6.44h-2.9V109h-4V90.86H297c3.88,0,6.28,2.47,6.28,5.85a5.26,5.26,0,0,1-4.11,5.38l4.22,6.91Zm.39-12.32a2.49,2.49,0,0,0-2.76-2.42h-4.18v4.9h4.18a2.5,2.5,0,0,0,2.76-2.48"/><rect class="cls-1" x="306.19" y="90.86" width="3.96" height="18.15"/><path class="cls-1" d="M312.56,106.45l2.17-3a8.29,8.29,0,0,0,5.92,2.48c2.2,0,3.24-1,3.24-2,0-3.16-10.72-1-10.72-7.78,0-3,2.68-5.52,7.06-5.52a10.49,10.49,0,0,1,7.25,2.53L325.28,96a8.13,8.13,0,0,0-5.41-2c-1.68,0-2.62.71-2.62,1.8,0,2.86,10.68.93,10.68,7.7,0,3.32-2.45,5.82-7.45,5.82a10.89,10.89,0,0,1-7.92-2.88"/><polygon class="cls-1" points="346.07 109.33 346.07 96.24 340.83 109.33 339.1 109.33 333.86 96.24 333.86 109.33 329.88 109.33 329.88 91.18 335.44 91.18 339.96 102.53 344.49 91.18 350.06 91.18 350.06 109.33 346.07 109.33"/><polygon class="cls-1" points="352.75 109.33 352.75 91.18 365.92 91.18 365.92 94.58 356.7 94.58 356.7 98.39 365.73 98.39 365.73 101.79 356.7 101.79 356.7 105.93 365.92 105.93 365.92 109.33 352.75 109.33"/><path class="cls-1" d="M184.76,124.73v6.64h-1.6V116.26h5.61a4.8,4.8,0,0,1,3.34,1.1,4.05,4.05,0,0,1,1.22,3.15,4.11,4.11,0,0,1-.86,2.67,4.18,4.18,0,0,1-2.38,1.4l3.56,6.79h-1.83l-3.42-6.64Zm3.88-1.38a3.27,3.27,0,0,0,2.28-.73,2.67,2.67,0,0,0,.81-2.09,2.72,2.72,0,0,0-.8-2.12,3.36,3.36,0,0,0-2.29-.71h-3.88v5.65Z"/><path class="cls-1" d="M201.44,116.26a5.19,5.19,0,0,1,3.82,1.39,5.9,5.9,0,0,1,1.42,4.39v3.54a5.91,5.91,0,0,1-1.42,4.39,5.19,5.19,0,0,1-3.82,1.4h-5.16V116.26Zm3.62,9.41V122.1a5,5,0,0,0-.94-3.35,3.33,3.33,0,0,0-2.65-1H197.9v12.21h3.57q3.59,0,3.59-4.25"/><rect class="cls-1" x="209.28" y="129.35" width="1.92" height="2.02"/><path class="cls-1" d="M213.81,125.76v-3.92a5.84,5.84,0,0,1,1.45-4.39,5.36,5.36,0,0,1,3.87-1.39,6.17,6.17,0,0,1,2.71.57,4.17,4.17,0,0,1,1.8,1.62,4.64,4.64,0,0,1,.64,2.43v.07h-1.6v-.07a3,3,0,0,0-1-2.32,3.76,3.76,0,0,0-2.6-.86,3.62,3.62,0,0,0-2.77,1,5,5,0,0,0-1,3.38v3.94c0,2.82,1.25,4.22,3.74,4.22a3.76,3.76,0,0,0,2.58-.83,3,3,0,0,0,1-2.32v-.09h1.56v.09a4.33,4.33,0,0,1-1.39,3.37,6.12,6.12,0,0,1-7.59-.14,5.84,5.84,0,0,1-1.45-4.39"/><path class="cls-1" d="M227,126.94v-2.27a4.53,4.53,0,0,1,1.17-3.46,4.32,4.32,0,0,1,3.1-1.1,4.24,4.24,0,0,1,3.05,1.1,4.57,4.57,0,0,1,1.15,3.46v2.27a4.57,4.57,0,0,1-1.15,3.46,4.24,4.24,0,0,1-3.05,1.1,4.31,4.31,0,0,1-3.1-1.09,4.53,4.53,0,0,1-1.17-3.47m7-.09v-2.09a3.56,3.56,0,0,0-.73-2.56,2.66,2.66,0,0,0-2-.73,2.77,2.77,0,0,0-2,.73,3.56,3.56,0,0,0-.74,2.56v2.09a3.6,3.6,0,0,0,.74,2.58,2.77,2.77,0,0,0,2,.73,2.66,2.66,0,0,0,2-.73,3.6,3.6,0,0,0,.73-2.58"/><path class="cls-1" d="M239.88,120.27v1.35a3,3,0,0,1,1.26-1.11,4,4,0,0,1,1.75-.38,3.53,3.53,0,0,1,2.72,1,4.18,4.18,0,0,1,.95,2.91v7.29h-1.49v-7.08a3,3,0,0,0-.68-2.1,2.46,2.46,0,0,0-1.88-.72,2.53,2.53,0,0,0-1.9.73,3,3,0,0,0-.7,2.09v7.08h-1.5v-11.1Z"/><path class="cls-1" d="M249.69,131.91h1.49a1.76,1.76,0,0,0,.75,1.18,3,3,0,0,0,1.7.44c1.73,0,2.61-1,2.61-2.91v-1.55a3.08,3.08,0,0,1-1.2,1.2,3.64,3.64,0,0,1-1.81.42,3.56,3.56,0,0,1-2.69-1.11,4.9,4.9,0,0,1-1-3.47v-1.53a4.83,4.83,0,0,1,1-3.44,3.62,3.62,0,0,1,2.72-1.1,3.18,3.18,0,0,1,3,1.69v-1.55h1.51v10.31a4.47,4.47,0,0,1-1.09,3.18,3.94,3.94,0,0,1-3,1.15,4.55,4.55,0,0,1-2.79-.78,2.86,2.86,0,0,1-1.15-2.13m6.55-5.91v-1.2a4.15,4.15,0,0,0-.68-2.49,2.33,2.33,0,0,0-2-.93c-1.69,0-2.53,1.1-2.53,3.31V126c0,2.21.81,3.31,2.44,3.31a2.47,2.47,0,0,0,2.09-.92,3.85,3.85,0,0,0,.7-2.41"/><path class="cls-1" d="M260.68,126.94v-2.27a4.57,4.57,0,0,1,1.16-3.46,4.34,4.34,0,0,1,3.11-1.1,4.24,4.24,0,0,1,3.05,1.1,4.57,4.57,0,0,1,1.15,3.46v2.27A4.57,4.57,0,0,1,268,130.4a4.24,4.24,0,0,1-3.05,1.1,4.34,4.34,0,0,1-3.11-1.09,4.57,4.57,0,0,1-1.16-3.47m7-.09v-2.09a3.56,3.56,0,0,0-.73-2.56,2.67,2.67,0,0,0-2-.73,2.77,2.77,0,0,0-2,.73,3.56,3.56,0,0,0-.74,2.56v2.09a3.6,3.6,0,0,0,.74,2.58,2.77,2.77,0,0,0,2,.73,2.67,2.67,0,0,0,2-.73,3.6,3.6,0,0,0,.73-2.58"/><path class="cls-1" d="M84.33,149.74v-4.17s3.91-4.48,4-5l.07-.54h1.85l-1.09-1.1s1.48-1.53,1.09-2.57a9.35,9.35,0,0,0-1.88-2.47l.08-.14L93,130.09a1.9,1.9,0,0,0,1.33,0c2-.57-.57-.9,2.54-2.38s4.92-.33,7.54-1.06c1.36-.38,2.86-.28,4.18-.7.93-.29,1.6-1,2.53-1.3-.11-1.39-2.16-1.22-2.24-1.49a1.25,1.25,0,0,1,.36-1.28h-1a4.39,4.39,0,0,0-.77-1.91c-.08.62-1.07.71-1.48.23a2.47,2.47,0,0,1-.36-1.8,4,4,0,0,1-3.11,1.45c-1.18-.18-1.94-2-.94-2.59a14.33,14.33,0,0,1-3.43-1.17c-.25.72-.5,1.45-.74,2.17a2.27,2.27,0,0,0-2.46-.19.81.81,0,0,0,.4-.9,4.08,4.08,0,0,0-1.7.12c0,.28,0,.56-.08.84a.44.44,0,0,0-.42-.28,1.63,1.63,0,0,0-.66.35,1.85,1.85,0,0,1-2.64-2.42,2.11,2.11,0,0,1-1,.78.73.73,0,0,1-1-.51,4.25,4.25,0,0,1-3.39.09.65.65,0,0,1-.56.77,8.13,8.13,0,0,1-6.93-1.78,2.33,2.33,0,0,1,.8,2.56,2,2,0,0,1-1.4.55c-.51-.08-.86-.84-.43-1.13l-2.25.14c-3,1.31-5.84.36-8.48,2.28-.9.65-.16.65.74,1.8s1.39,2.79-.57,2.79-2.13-.92-2.95-1-1.32,2.26-1.89,1.6.66,1,1.39,1.39-1.06,2,.5,2.05,1.8-1.39,3.11-.82,1.8.41,1.8.41.17.15.44.36c.71.54,2.17,1.47,3.41,1.12,1.73-.49,3.94-.91,4.59-.7a3,3,0,0,0,2.57.21c1.78-.41,2.6-.74,3.5,0a2,2,0,0,0,1.58.41l-.21.35A7.6,7.6,0,0,0,86,131.14a1.8,1.8,0,0,1,1.42,1.21,2.17,2.17,0,0,1-.49,1.88,3.73,3.73,0,0,0-.61,2.54c.11.28-3.11-.82-3.77-2.07a3.3,3.3,0,0,1,0-3.17l.44-1.15-.44-.55s-1.31,2.19-1.14,2.9l.16.71A16,16,0,0,0,79.25,131c-1.2-.92-1.2-1.2-1.2-1.2a4.73,4.73,0,0,0,.76-.93c.06-.21-.38-.21-.38-.21l-1,1.09-2.24-.88L73.9,129s2.84,1.26,3.28,1.53.38,1.42.38,1.42a1.63,1.63,0,0,1,2,.33,10.85,10.85,0,0,1,1.59,1.88l-1.26.25.22.65s.49-.49,1.59.28,3.25,1.47,3.62,2.07,1.47,1.08.86,2.57c-.21.5-.37.95-.5,1.33s-.47.6-.72.9c-1.47,1.76-2.79,3.11-2.83,4.05l0,.95s-1.88-.58-2-1a2.76,2.76,0,0,0-2-1.76l-1.07,0V145s2,0,2.54,1.07a2.69,2.69,0,0,0,1.93,1.72l.73.08,0,1.95Zm4.81-20.48c1.56.41,1.34-1,2.38-.57a1.7,1.7,0,0,1,.74.71l-3.53,3.12a.9.9,0,0,0-.42-.5c-.92-.55-.72-.27-.44-1.53a12.46,12.46,0,0,1,.42-1.54,6,6,0,0,0,.85.31M87,130.65a5.64,5.64,0,0,1-2.48-1l-.73-.64a6.16,6.16,0,0,0,1.5-.55c1.09-.54,1.88,0,2.91.42h-.31Zm.85,3.94c.49.61,1.23,1.64,1.15,2a3.46,3.46,0,0,1-.86,1.55,2.51,2.51,0,0,0-.53.57,8.44,8.44,0,0,1-.58-1.82,2.63,2.63,0,0,1,.82-2.35"/><path class="cls-1" d="M142.26,51.72a8.35,8.35,0,0,0-.63-1.87c0,.07.28.8.63,1.87"/><path class="cls-1" d="M161.19,71.62c-.25-1.16-.54-2.32-.87-3.47-.07-.26-.15-.51-.22-.77l-1.74.61-.64.22c.05.15.09.3.14.44l0,.18c.13.44.22.89.33,1.33.18.66.36,1.32.51,2a52.15,52.15,0,0,1,1.14,10.19c0,1.14,0,2.28-.07,3.42s-.19,2.57-.36,3.85a54.14,54.14,0,0,1-2.1,9.57,61.16,61.16,0,0,1-5.58,12.47,68.25,68.25,0,0,1-8.13,11,76.56,76.56,0,0,1-10.06,9.24,79.05,79.05,0,0,1-7.8,5.28c-1.21.73-2.43,1.43-3.67,2.1a90,90,0,0,1-15.7,6.53q-3.26,1-6.57,1.78c-1.1.25-2.21.49-3.32.71a89.45,89.45,0,0,1-12.2,1.45l-2.16.07c-.82,0-1.65.06-2.47.05-2.39,0-4.78-.12-7.16-.33-1-.09-1.94-.18-2.91-.3-1.56-.2-3.12-.45-4.67-.74l-1-.18c-1.53-.31-3-.64-4.56-1l-.5-.14L58.3,147a16.13,16.13,0,0,1-3,8c.54.11,1.08.25,1.62.35l.68.14c1.7.3,3.4.55,5.11.76l1.09.12c1.73.19,3.46.35,5.2.44a102.06,102.06,0,0,0,28.83-2.65,100,100,0,0,0,11.65-3.6c1.35-.5,2.68-1,4-1.6a95.17,95.17,0,0,0,11-5.55,88.29,88.29,0,0,0,11.72-8.3,82.78,82.78,0,0,0,6.94-6.56c1.1-1.17,2.18-2.35,3.21-3.58.77-.91,1.51-1.84,2.24-2.79q2.17-2.85,4.07-5.91c.62-1,1.23-2,1.81-3.09.29-.52.55-1.06.82-1.59A64.14,64.14,0,0,0,160,100a59.21,59.21,0,0,0,2.39-14.1c.06-1.19.07-2.39,0-3.59a55.14,55.14,0,0,0-.59-7.14c-.18-1.18-.39-2.36-.64-3.53"/><path class="cls-1" d="M31.37,133.08a59,59,0,0,1-7.26-7.23,53.09,53.09,0,0,1-6.9-10.47l-.36-.69-.32-.71-.63-1.43c-.1-.24-.22-.46-.3-.71l-.27-.73-.55-1.46-.14-.36-.11-.37-.23-.74-.47-1.49c-.26-1-.49-2-.75-3A49.3,49.3,0,0,1,12,91.31c.05-1,.08-2.08.21-3.12l.16-1.55c0-.26.08-.52.12-.78l.12-.77.25-1.55L13.22,82l.17-.77c0-.26.1-.52.17-.77L14,78.94A64.34,64.34,0,0,1,25.87,56.25a73.77,73.77,0,0,1,7.87-8.35,11.66,11.66,0,0,1-6.59-6.1,83,83,0,0,0-8.68,8,73.38,73.38,0,0,0-9.1,11.94A65.26,65.26,0,0,0,3,75.57L2.4,77.41c-.11.3-.18.62-.26.93l-.24.93-.48,1.87L1.05,83,.87,84c-.06.32-.13.63-.16,1L.45,86.87C.24,88.14.19,89.44.1,90.73a57.66,57.66,0,0,0,1.19,15.5c.32,1.25.62,2.52,1,3.77l.58,1.86.3.93.15.46.17.46.71,1.81.36.91c.11.3.27.59.4.89l.82,1.76c.14.29.27.59.41.88l.46.86a60.75,60.75,0,0,0,8.9,12.6A66.24,66.24,0,0,0,26,142.57a16.28,16.28,0,0,1,5.39-9.49"/><path class="cls-1" d="M70.63,28.58a91.15,91.15,0,0,1,27-2.36,81.85,81.85,0,0,1,9.5,1.16l2.43-3.89a87.92,87.92,0,0,0-11.5-2,96.14,96.14,0,0,0-28.72,1.22,103.29,103.29,0,0,0-22.49,7.16,11.61,11.61,0,0,1,2.48,7,87.67,87.67,0,0,1,21.29-8.21"/><path class="cls-1" d="M49.34,36.79a11.18,11.18,0,1,0,0,.2c0-.07,0-.13,0-.2"/><path class="cls-1" d="M58.38,145.42A16.33,16.33,0,0,0,26,142.57a16.78,16.78,0,0,0-.27,2.85A16.32,16.32,0,0,0,55.27,155a16.13,16.13,0,0,0,3-8c.05-.5.08-1,.08-1.53"/><path class="cls-1" d="M152.84,59.86a5.55,5.55,0,0,0,1,1.14,4.59,4.59,0,0,0,2.24,1,4.59,4.59,0,0,1-2.24-1,5.82,5.82,0,0,1-1-1.14"/><path class="cls-1" d="M182.57,3.71h0a2.86,2.86,0,0,0-.2-.48.59.59,0,0,0-.19-.22.71.71,0,0,0-.38-.09c-.92,0-1.85-.11-2.79-.19l-.1,0a9.27,9.27,0,0,0-1.51-.38,10,10,0,0,0-1.55-.11,9.86,9.86,0,0,0-3,.53,6.47,6.47,0,0,0-1.4.68,3.47,3.47,0,0,0-.29.25c-1.93,1.15-3.48,3.6-4.46,5.51l0,0a26.08,26.08,0,0,1-2.8.46h-.1a5.94,5.94,0,0,0-1.52,0,1.58,1.58,0,0,0-.31.09c-2.18,0-9.86-.4-10.09-.41l0,0c-1.24-2-2.16-4.42-4.13-5.82A25.2,25.2,0,0,0,145.22,2a9.36,9.36,0,0,0-1.64-.76,11.31,11.31,0,0,0-1.92-.41L136.44,0a8.3,8.3,0,0,1,.17,3.71c-.1.52-.2,1.11-.31,1.71-.52,2.36-1.27,4.73-.79,7.08h0a2.55,2.55,0,0,0,.19,1c.07.12.13.26.2.39a13,13,0,0,0,1,2.38A5.64,5.64,0,0,0,138,18c.07.07.15.1.22.16s.14.11.21.14h0a84.8,84.8,0,0,1-8.63,4.16c-3.28,1.2-9.94,3.27-9.94,3.27S115.44,52,141,58.61l.41.1A30.91,30.91,0,0,0,139.24,52c-1.81-3.74-2.09-4.32-2.14-4.41a57.82,57.82,0,0,1,5.05,10.59l.7-.61a30.53,30.53,0,0,0-.59-5.84c-.35-1.07-.61-1.8-.63-1.87a8.35,8.35,0,0,1,.63,1.87c.44,1.34,1,3.22,1.52,5l6.13-5.33h0a16.2,16.2,0,0,0,.3,3.1,4.45,4.45,0,0,0,.19.65.13.13,0,0,0,0,.06,1.86,1.86,0,0,0,.1.25c0,.15.1.3.16.44s.17.39.27.57.07.16.11.23h0c0,.12.09.25.14.38l.08,0h0a1.74,1.74,0,0,0,.59.07,5.25,5.25,0,0,1,2.29.45l-.24.49a6,6,0,0,0-2.08,0h0c-.1.07-.08.24,0,.44.89,1.86,2.29,3.68,4.91,3.4s4-2.27,4.78-3.94l.11-.18c.06-.11.1-.22.15-.33a4.09,4.09,0,0,1,.49-.61l0,0v-.56a1.93,1.93,0,0,0,.11-.34,5.3,5.3,0,0,0,.64-1.58,8.61,8.61,0,0,0,.17-2c0-.65-.05-1.3,0-1.94a6.94,6.94,0,0,1,.26-1.88,6.37,6.37,0,0,1,.34-.88l.41-.88.81-1.77c.54-1.19,1.06-2.38,1.54-3.6A33,33,0,0,0,168.62,34a52.45,52.45,0,0,0,0-7.83c-.05-1.29-.09-2.58-.05-3.87,0-.32,0-.64.05-1l0-.47a4.39,4.39,0,0,1,.05-.45.79.79,0,0,1,.38-.56,1,1,0,0,1,.27-.09,1.85,1.85,0,0,1,.41-.07h.11a16.09,16.09,0,0,1,1.88.18l.51.05a3,3,0,0,0,.53,0,6.5,6.5,0,0,0,1-.16,8.19,8.19,0,0,0,3.59-1.8,9.54,9.54,0,0,0,1.39-1.45,14.15,14.15,0,0,0,1.1-1.67,17.36,17.36,0,0,0,1.49-3.66l.09-.35a20.51,20.51,0,0,0,.94-2.94h0a11.75,11.75,0,0,0,.29-1.17,5.59,5.59,0,0,0-.09-2.93M139.48,16.85c-1.73-1.53-2.09-3.93-2.42-5.76s1.53-8.65,1.53-8.65.85.08.29,3.57V6s-.09,0-.06,0l.06,0a0,0,0,0,0,0,0c-.07.44-.16.92-.28,1.47-1.09,5,2.62,10.82,2.62,10.82Zm7.23-8.36c.5-3.28-2-4.26-2-4.26,3.6,1.48,3.93,2.13,4.61,5.66s-1,6.14-2.58,5.65-.56-3.77-.07-7M153.86,61a5.55,5.55,0,0,1-1-1.14,5.82,5.82,0,0,0,1,1.14,4.59,4.59,0,0,0,2.24,1,4.59,4.59,0,0,1-2.24-1m-1.17-14.17a4.5,4.5,0,0,0-2.11,2.47h0c-.3-1.25-1.88-3.11-2.42-5.84s-.44-11.15-.88-14.21S149,22.79,149,22.79L147.61,22a3.63,3.63,0,0,1-1-.9h0c.37-.06.51-.51.53-.88s0-.8.32-1c1.3-1,4.39,1.18,5.24,2,2.35,2.3,0,9.78.93,11.67s2.79,1.61,2.95,6.67-1.8,6.41-3.88,7.23M168,33.89a29,29,0,0,1-.77,3.77c-.33,1.25-.74,2.47-1.19,3.68s-1,2.41-1.47,3.6l-.18.41h0l-.59,1.37-.4.89a7.41,7.41,0,0,0-.35.93c0,.09,0,.18,0,.27h0a7.59,7.59,0,0,0-.18,1.71c0,.65.07,1.3.09,1.95,0,.2,0,.4,0,.6h0a8.05,8.05,0,0,1-.11,1.3,4.86,4.86,0,0,1-.34,1.06h0l0,.09a10.31,10.31,0,0,0-1.39-5.86,16.88,16.88,0,0,1-2.18-8.57c0-3.61.9-10.08,1.64-11.8.43-1,1.85-1.56,2.15-2.46s-.68-2.23-.54-3.34c.19-1.57,1.13-3.55,3-3.14a2.75,2.75,0,0,1,1.78,1.38,4.75,4.75,0,0,0,1,1.61c0,.94,0,1.88.08,2.81a51.2,51.2,0,0,1,.06,7.73M169.55,8.6c-1.75,3.83-1.15,1-1.15,1s2.3-4.7,4.92-5.52l2.62-.82s-4.64,1.48-6.39,5.3"/><path class="cls-1" d="M165.76,30.23a1.51,1.51,0,0,0,.41-1.52s0,0,0-.05-.09,0-.13,0-.39.19-.57.31a4.56,4.56,0,0,0-.48.5l-.93,1L163,31.58v.83a2.38,2.38,0,0,1,.49-.3c.39-.25.76-.51,1.12-.79a8.11,8.11,0,0,0,1.18-1.09"/><polygon class="cls-1" points="149.36 28.64 152.26 32.03 152.2 32.41 152.69 31.04 150.51 28.64 149.36 28.64"/><polygon class="cls-1" points="148.65 31.58 149.74 33.72 148.98 33.99 149.36 35.31 151.44 34.49 151.44 33.34 148.92 30.52 148.65 31.58"/><path class="cls-1" d="M165.09,32.93a2.92,2.92,0,0,0-.45.3,3.35,3.35,0,0,0-.87.85l-.07.05h0c-.32.51-.33,1,.52,1.33a2.89,2.89,0,0,0,1.34,0l.06,0c.46-.28,1.45-3.35,1.7-3.9,0,0-.3.21-.75.49s-1,.58-1.51.86"/><path class="cls-1" d="M28.21,109.05a3.1,3.1,0,1,0,3.09-3.22,3,3,0,0,0-3.09,3.22m5.38,0a2.3,2.3,0,1,1-2.29-2.53,2.31,2.31,0,0,1,2.29,2.53"/><path class="cls-1" d="M37.19,106.42a.78.78,0,0,1,.55.22l.29-.45a1.32,1.32,0,0,0-1-.35c-.79,0-1.3.54-1.3,1.47v.34H35v.62h.75v3.89h.7v-3.89h.91v-.62h-.91v-.34c0-.58.25-.89.72-.89"/><path class="cls-1" d="M39.84,106.42a.82.82,0,0,1,.4.1l.17-.53a1.4,1.4,0,0,0-.68-.15,1.29,1.29,0,0,0-1.31,1.47v.34h-.75v.62h.75v3.89h.7v-3.89H40v-.62h-.91v-.34c0-.58.25-.89.72-.89"/><rect class="cls-1" x="40.86" y="107.65" width="0.7" height="4.51"/><path class="cls-1" d="M41.22,106.07a.47.47,0,1,0,0,.94.47.47,0,0,0,0-.94"/><path class="cls-1" d="M45,108.17a1.32,1.32,0,0,1,1.15.57l.46-.42a1.94,1.94,0,0,0-1.65-.78,2.37,2.37,0,0,0,0,4.73,1.91,1.91,0,0,0,1.65-.78l-.46-.43a1.37,1.37,0,0,1-1.15.59,1.59,1.59,0,0,1-1.56-1.75A1.57,1.57,0,0,1,45,108.17"/><path class="cls-1" d="M51.72,110a2.19,2.19,0,0,0-2.17-2.42,2.37,2.37,0,0,0,.09,4.73,2.47,2.47,0,0,0,1.79-.7l-.34-.46a1.92,1.92,0,0,1-1.4.58,1.57,1.57,0,0,1-1.61-1.56h3.64Zm-3.65-.35a1.5,1.5,0,0,1,1.47-1.49A1.46,1.46,0,0,1,51,109.61Z"/><polygon class="cls-1" points="56.07 107.19 59.7 112.16 60.45 112.16 60.45 105.94 59.67 105.94 59.67 110.8 56.09 105.94 55.29 105.94 55.29 112.16 56.07 112.16 56.07 107.19"/><path class="cls-1" d="M65.39,112.16v-3.1c0-1.09-.78-1.52-1.74-1.52a2.36,2.36,0,0,0-1.81.75l.33.48a1.75,1.75,0,0,1,1.38-.62c.66,0,1.14.34,1.14.94v.81a1.9,1.9,0,0,0-1.49-.6,1.46,1.46,0,0,0-1.57,1.48,1.5,1.5,0,0,0,1.57,1.49,1.93,1.93,0,0,0,1.49-.62v.51Zm-1.93-.39a1,1,0,1,1,0-2,1.54,1.54,0,0,1,1.23.55v.86a1.52,1.52,0,0,1-1.23.56"/><path class="cls-1" d="M68,112.27a1.13,1.13,0,0,0,.83-.29l-.21-.53a.66.66,0,0,1-.47.2c-.3,0-.45-.25-.45-.58v-2.8h.91v-.62h-.91v-1.23h-.71v1.23h-.75v.62h.75v3a.92.92,0,0,0,1,1"/><path class="cls-1" d="M69.9,106.07a.47.47,0,1,0,0,.94.47.47,0,0,0,0-.94"/><rect class="cls-1" x="69.54" y="107.65" width="0.7" height="4.51"/><path class="cls-1" d="M71.38,109.9a2.24,2.24,0,1,0,2.23-2.36,2.22,2.22,0,0,0-2.23,2.36m3.73,0a1.51,1.51,0,1,1-1.5-1.73,1.57,1.57,0,0,1,1.5,1.73"/><path class="cls-1" d="M80.73,112.16V109a1.28,1.28,0,0,0-1.43-1.46,2.2,2.2,0,0,0-1.62.77v-.66H77v4.51h.7v-3.29a1.77,1.77,0,0,1,1.34-.7c.6,0,1,.24,1,1v3Z"/><path class="cls-1" d="M85.65,112.16v-3.1c0-1.09-.78-1.52-1.74-1.52a2.33,2.33,0,0,0-1.8.75l.32.48a1.77,1.77,0,0,1,1.39-.62c.65,0,1.13.34,1.13.94v.81a1.89,1.89,0,0,0-1.49-.6,1.46,1.46,0,0,0-1.57,1.48,1.5,1.5,0,0,0,1.57,1.49,1.92,1.92,0,0,0,1.49-.62v.51Zm-1.93-.39a1,1,0,1,1,0-2,1.52,1.52,0,0,1,1.23.55v.86a1.5,1.5,0,0,1-1.23.56"/><rect class="cls-1" x="87.06" y="105.94" width="0.7" height="6.23"/><path class="cls-1" d="M95.55,112.16v-6.22h-.7v2.39a1.91,1.91,0,0,0-1.52-.79c-1.18,0-2,.92-2,2.37s.83,2.36,2,2.36a1.9,1.9,0,0,0,1.52-.78v.67Zm-2-.51c-.91,0-1.45-.74-1.45-1.74s.54-1.74,1.45-1.74a1.68,1.68,0,0,1,1.35.72v2a1.68,1.68,0,0,1-1.35.72"/><path class="cls-1" d="M100.69,112.16v-4.51H100V111a1.72,1.72,0,0,1-1.32.68c-.62,0-1-.24-1-1v-3H97v3.19a1.26,1.26,0,0,0,1.43,1.43,2.19,2.19,0,0,0,1.61-.74v.63Z"/><polygon class="cls-1" points="106.85 112.16 106.85 106.63 108.83 106.63 108.83 105.94 104.11 105.94 104.11 106.63 106.08 106.63 106.08 112.16 106.85 112.16"/><path class="cls-1" d="M110.72,112.27a2.37,2.37,0,1,0-2.23-2.37,2.21,2.21,0,0,0,2.23,2.37m0-4.1a1.76,1.76,0,1,1-1.49,1.73,1.56,1.56,0,0,1,1.49-1.73"/><path class="cls-1" d="M117.84,112.16v-4.51h-.7V111a1.76,1.76,0,0,1-1.33.68c-.62,0-1-.24-1-1v-3h-.7v3.19a1.27,1.27,0,0,0,1.44,1.43,2.23,2.23,0,0,0,1.61-.74v.63Z"/><path class="cls-1" d="M119.24,107.65v4.51h.7V109a1.62,1.62,0,0,1,1.23-.72l.27,0v-.72a1.91,1.91,0,0,0-1.5.82v-.72Z"/><path class="cls-1" d="M122.67,106.07a.47.47,0,1,0,0,.94.47.47,0,0,0,0-.94"/><rect class="cls-1" x="122.32" y="107.65" width="0.7" height="4.51"/><path class="cls-1" d="M125.87,111.7a2.06,2.06,0,0,1-1.48-.64l-.36.5a2.42,2.42,0,0,0,1.82.71c1.16,0,1.77-.6,1.77-1.36,0-1.76-2.79-1.11-2.79-2.09,0-.4.38-.71,1-.71a1.74,1.74,0,0,1,1.35.57l.33-.49a2.29,2.29,0,0,0-1.68-.65c-1.07,0-1.67.59-1.67,1.3,0,1.67,2.79,1,2.79,2.09,0,.45-.38.77-1.07.77"/><path class="cls-1" d="M134.9,112.16V108.9c0-.9-.44-1.36-1.26-1.36a1.88,1.88,0,0,0-1.51.84,1.16,1.16,0,0,0-1.21-.84,2,2,0,0,0-1.46.77v-.66h-.7v4.51h.7v-3.29a1.54,1.54,0,0,1,1.18-.7c.6,0,.83.36.83.93v3.06h.7v-3.3a1.55,1.55,0,0,1,1.2-.69c.59,0,.83.36.83.93v3.06Z"/><path class="cls-1" d="M140.42,110a2.19,2.19,0,0,0-2.16-2.42,2.37,2.37,0,0,0,.08,4.73,2.46,2.46,0,0,0,1.79-.7l-.33-.46a2,2,0,0,1-1.4.58,1.59,1.59,0,0,1-1.62-1.56h3.64Zm-3.65-.35a1.51,1.51,0,0,1,1.48-1.49,1.45,1.45,0,0,1,1.48,1.49Z"/><polygon class="cls-1" points="141.17 64.69 104.08 64.69 104.08 75.05 115.64 75.05 115.64 100.68 127.54 100.68 127.54 75.05 141.17 75.05 141.17 64.69"/><path class="cls-1" d="M100.25,64.43l-11.76.27h-.81L88,79.87,80.75,67.63l-.62-1.18a2.75,2.75,0,0,0-.48-.67l-.37-.62H68.72l0,0h-1a1.47,1.47,0,0,0-.55.09v9.52a4.26,4.26,0,0,0,1.13.34,9.5,9.5,0,0,1,1.13.4c0,.12,0,.23,0,.35a9.15,9.15,0,0,1-1,.3,4.49,4.49,0,0,0-1.2.33V81.7a3,3,0,0,0,1,0c1.2-.15,2.38-.48,3.58-.61a9.14,9.14,0,0,1,1.93.22l0,.49a11.59,11.59,0,0,1-1.82.78c-1.47.35-3,.57-4.44.92a.76.76,0,0,0-.32.19v.93a.71.71,0,0,0,.37.16c.71.06,1.44-.07,2.15,0,1.1,0,2.19.14,3.28.29.25,0,.44.42.66.64-.24.2-.46.49-.74.57a4.68,4.68,0,0,1-1.13.07c-1.44.07-2.88.12-4.31.25a.53.53,0,0,0-.28.12v.87a.54.54,0,0,0,.23.11c.51.11,1.06,0,1.58.11a39.29,39.29,0,0,1,4.32.86c.41.13.63.88.94,1.35a5.51,5.51,0,0,1-1.59.42c-1.54-.06-3.07-.27-4.61-.39a2.83,2.83,0,0,0-.87,0v2.4a2.15,2.15,0,0,0,.43.21,6.56,6.56,0,0,1,1.89,1A2,2,0,0,1,69.27,97a4.71,4.71,0,0,0-.35-1.4,3.29,3.29,0,0,0-1.1-.91,1.71,1.71,0,0,0-.66-.28v6.22H79.08V88.49a1.1,1.1,0,0,1,0-.18c0-.42,0-.81.05-1.23a8.65,8.65,0,0,1,.29-1.32c0-.16,0-.31.07-.47l8.12,15.16h.86v.27l11.75-.27h0l.81,0Z"/><path class="cls-1" d="M43.94,63.25a33.35,33.35,0,0,0-8.72,1,14.9,14.9,0,0,0-5.93,2.92,7.38,7.38,0,0,0-2.62,4.21,29,29,0,0,0-.32,3.36c2.24-1.43,4.71-3.38,5.77-3.68a18.68,18.68,0,0,1,5.23-.36c1.51,0,3,0,4.51-.15a1.37,1.37,0,0,1,.31-.53A2.64,2.64,0,0,1,44,69.46a2.12,2.12,0,0,1,1.83.66,55,55,0,0,0,12.28-3.28,15.34,15.34,0,0,0-5.71-2.63,34.26,34.26,0,0,0-8.47-1"/><path class="cls-1" d="M27.74,75c.25-.12,4.41-2.12,7.91-2.12,1.53,0,3.61,0,5.9-.07,0-.27,0-.53,0-.76-1.12.09-2.18.14-3.12.14-4.2,0-4.09-1-10.73,2.81"/><path class="cls-1" d="M53.21,70.35c-1.89.41-4.4.86-7,1.21a10,10,0,0,1,.07,1c1.68-.13,3.35-.32,4.88-.59l9.71-1.67A7.24,7.24,0,0,0,59.36,68a25.05,25.05,0,0,1-6.15,2.39"/><path class="cls-1" d="M26.27,77.52c.75-.2,1.89-.52,3.32-.94,2.13-.63,7.19-.5,12-.65V73.66l-8,.53c-1.5.08-5.37,2-7.25,3v.29"/><path class="cls-1" d="M52.63,72.91l-6.3.43v2.3c4.71-.36,12.4-.74,15.19-.87-.06-1.17-.14-2.14-.25-2.89a68.08,68.08,0,0,1-8.64,1"/><path class="cls-1" d="M26.26,80.3a47.12,47.12,0,0,0,8,1.15c1.68.12,4.29.18,7.27.2V79.36l-7.67-.15H38l.92,0h1.42l1.17,0V77.6c-2.72.12-5.09.2-6.53.2a35.75,35.75,0,0,0-8.75,1.45Z"/><path class="cls-1" d="M46.33,78.94l1.43,0c5.19-.19,11.48-.12,13.85-.09,0-.77,0-1.48,0-2.15-.69,0-1.73,0-3.31.09-2.17.11-7.07.39-11.94.64Z"/><path class="cls-1" d="M61.61,79.74l-15.28-.29v2.21c6,0,12.33-.12,15.28-.18Z"/><path class="cls-1" d="M26.26,83.94a10.23,10.23,0,0,0,3.06.62,63.12,63.12,0,0,0,12.22.28v-2c-.89.07-1.72.15-2.48.26a85.78,85.78,0,0,1-12.8.06Z"/><path class="cls-1" d="M61.61,82.57H55.1c-2.07,0-5.41,0-8.77.07v1.69a146.79,146.79,0,0,1,15.28.13Z"/><path class="cls-1" d="M33.07,88.15a75.15,75.15,0,0,0,8.47-.42V86.41q-.91.06-1.68.15c-3.48.38-10.87-.27-13.6-.53,0,.32,0,.64,0,1,1.54,1.24,3.15,1,6.8,1.17"/><path class="cls-1" d="M61.61,85.87l-3.31,0c-3.56,0-8,.1-12,.23V87.3l.63,0c1.37,0,10.2.22,14.63.33,0-.55,0-1.13,0-1.74"/><path class="cls-1" d="M41.55,91.71c0-.34,0-.71,0-1.11v-.78c-.9.07-1.81.12-2.72.17A44.23,44.23,0,0,1,26.3,88.85c0,.39,0,.75.05,1.1,2.71,1.92,9.34,2,15.2,1.76"/><path class="cls-1" d="M61.55,89.26c-1.16-.24-2.75-.54-4.37-.71-2.08-.21-6.09.33-10.85.82v1c0,.4,0,.78,0,1.13,1.37-.08,2.57-.15,3.53-.19a97.47,97.47,0,0,1,11.57.36c.06-.68.11-1.47.14-2.37"/><path class="cls-1" d="M61.18,93.4c-1.16-.13-3.14-.32-6.24-.54-2.92-.2-5.92-.19-8.7-.1a5.3,5.3,0,0,1-.34,1.67c-.3.58-1,.87-2,.87S42.23,95,42,94.55A4.37,4.37,0,0,1,41.63,93l-2.49.2c-4,.36-8.14.76-11.42-.08l-1.13-.29c0,.22.07.42.1.61a5.86,5.86,0,0,0,.4,1.25,78.62,78.62,0,0,0,14.77,1.75c4.82,0,12.42.21,17.48.38a6.86,6.86,0,0,0,1.84-3.43Z"/><path class="cls-1" d="M57.31,98.51c-3.41.14-10.52-.14-15.45-.14a79.32,79.32,0,0,1-13.57-1.81,10.78,10.78,0,0,0,1.13,1.1,15.19,15.19,0,0,0,6,2.89,34.29,34.29,0,0,0,8.48,1,33.33,33.33,0,0,0,8.71-1,16.81,16.81,0,0,0,4.66-2"/></g></g></svg>