<svg xmlns="http://www.w3.org/2000/svg" viewBox="0 0 155.71 299.75"><defs><style>.cls-1{fill:#149bd8;}.cls-2{fill:#84579f;}.cls-3{fill:#e83f31;}.cls-4{fill:#ffcf4a;}.cls-5{fill:#215ea9;}.cls-6{fill:#8ac052;}.cls-7{fill:#f8ad32;}</style></defs><title>ONT2</title><g id="Calque_2" data-name="Calque 2"><g id="Calque_1-2" data-name="Calque 1"><path class="cls-1" d="M.22,263.17H5.69a15.42,15.42,0,0,1,3.78.44,8.82,8.82,0,0,1,3.13,1.44,6.92,6.92,0,0,1,2.11,2.59,8.54,8.54,0,0,1,.79,3.86,8,8,0,0,1-.76,3.54,7.74,7.74,0,0,1-2.05,2.58,9.2,9.2,0,0,1-3,1.58,11.85,11.85,0,0,1-3.54.53h-6Zm3.65,13.19H5.76a10.27,10.27,0,0,0,2.35-.25,5,5,0,0,0,1.89-.86,4.06,4.06,0,0,0,1.25-1.57,5.56,5.56,0,0,0,.46-2.37,4.7,4.7,0,0,0-.46-2.12A4,4,0,0,0,10,267.71a5.27,5.27,0,0,0-1.81-.88A7.93,7.93,0,0,0,6,266.54H3.87Z"/><path class="cls-1" d="M31.32,273.35a7.9,7.9,0,0,1-.45,2.71,5.92,5.92,0,0,1-1.32,2.15,6,6,0,0,1-2.19,1.43,8.27,8.27,0,0,1-3,.52,8.34,8.34,0,0,1-3-.52,5.86,5.86,0,0,1-3.51-3.58,7.9,7.9,0,0,1-.45-2.71V263.17H21v10a4.09,4.09,0,0,0,.24,1.43,3.62,3.62,0,0,0,.69,1.14,3.14,3.14,0,0,0,1.07.75,3.31,3.31,0,0,0,1.34.27,3.22,3.22,0,0,0,3.08-2.16,4.09,4.09,0,0,0,.25-1.43v-10h3.65Z"/><polygon class="cls-1" points="43.55 266.39 38.83 266.39 38.83 263.17 51.93 263.17 51.93 266.39 47.2 266.39 47.2 279.73 43.55 279.73 43.55 266.39"/><path class="cls-1" d="M52.26,271.45a9.2,9.2,0,0,1,.67-3.6,7.69,7.69,0,0,1,1.86-2.75,8.19,8.19,0,0,1,2.83-1.75,11,11,0,0,1,7.16,0,8.28,8.28,0,0,1,2.83,1.75,7.69,7.69,0,0,1,1.86,2.75,10,10,0,0,1,0,7.2,7.69,7.69,0,0,1-1.86,2.75,8.28,8.28,0,0,1-2.83,1.75,10.81,10.81,0,0,1-7.16,0,8.19,8.19,0,0,1-2.83-1.75,7.69,7.69,0,0,1-1.86-2.75,9.2,9.2,0,0,1-.67-3.6m3.79,0a6.12,6.12,0,0,0,.36,2.14,4.81,4.81,0,0,0,1,1.68,4.89,4.89,0,0,0,1.63,1.12,5.82,5.82,0,0,0,4.24,0,4.75,4.75,0,0,0,1.62-1.12,4.81,4.81,0,0,0,1-1.68,5.9,5.9,0,0,0,.37-2.14,6,6,0,0,0-.37-2.13,4.73,4.73,0,0,0-2.66-2.81,5.82,5.82,0,0,0-4.24,0,5,5,0,0,0-1.63,1.11,4.9,4.9,0,0,0-1,1.7,6.19,6.19,0,0,0-.36,2.13"/><path class="cls-1" d="M86,273.35a7.9,7.9,0,0,1-.45,2.71,5.92,5.92,0,0,1-1.32,2.15A6,6,0,0,1,82,279.64a9.09,9.09,0,0,1-6.06,0,5.86,5.86,0,0,1-3.51-3.58,7.9,7.9,0,0,1-.44-2.71V263.17h3.65v10a4.09,4.09,0,0,0,.24,1.43,3.62,3.62,0,0,0,.69,1.14,3.14,3.14,0,0,0,1.07.75,3.31,3.31,0,0,0,1.34.27,3.22,3.22,0,0,0,3.08-2.16,4.09,4.09,0,0,0,.25-1.43v-10H86Z"/><path class="cls-1" d="M88.69,263.17h6.42a11.46,11.46,0,0,1,2.39.24,5.84,5.84,0,0,1,2,.82,4.1,4.1,0,0,1,1.36,1.55,5.14,5.14,0,0,1,.5,2.42,4.84,4.84,0,0,1-.91,3,4.12,4.12,0,0,1-2.67,1.56l4.22,7H97.61l-3.46-6.62H92.34v6.62H88.69ZM92.34,270H94.5l1,0a3.69,3.69,0,0,0,1-.21,1.7,1.7,0,0,0,.74-.55,1.65,1.65,0,0,0,.29-1.06,1.74,1.74,0,0,0-.25-1,1.84,1.84,0,0,0-.66-.58,3.12,3.12,0,0,0-.91-.27,8.81,8.81,0,0,0-1-.06H92.34Z"/><rect class="cls-1" x="103.18" y="263.17" width="3.65" height="16.57"/><path class="cls-1" d="M117.71,267.21a2.68,2.68,0,0,0-1.2-.83,4.34,4.34,0,0,0-1.44-.27,3.91,3.91,0,0,0-.82.1,3.19,3.19,0,0,0-.8.29,1.74,1.74,0,0,0-.61.53,1.36,1.36,0,0,0-.23.79,1.34,1.34,0,0,0,.56,1.15,5.69,5.69,0,0,0,1.42.68c.57.19,1.18.37,1.83.56a7.38,7.38,0,0,1,1.84.8,4.35,4.35,0,0,1,1.42,1.38,4.22,4.22,0,0,1,.56,2.31,5.22,5.22,0,0,1-.52,2.41,4.75,4.75,0,0,1-1.39,1.71,6,6,0,0,1-2,1,9,9,0,0,1-2.45.32,8.77,8.77,0,0,1-3-.49,7.27,7.27,0,0,1-2.58-1.59l2.6-2.85a3.8,3.8,0,0,0,1.41,1.16,4.08,4.08,0,0,0,1.77.4,3.94,3.94,0,0,0,.9-.1,2.86,2.86,0,0,0,.82-.32,1.89,1.89,0,0,0,.59-.53,1.43,1.43,0,0,0,.22-.78,1.4,1.4,0,0,0-.57-1.18,5.71,5.71,0,0,0-1.44-.74c-.58-.2-1.21-.4-1.88-.6a9,9,0,0,1-1.87-.82,4.56,4.56,0,0,1-1.44-1.36,3.89,3.89,0,0,1-.57-2.22,5,5,0,0,1,.53-2.34,5.12,5.12,0,0,1,1.4-1.69,6.2,6.2,0,0,1,2-1,8.59,8.59,0,0,1,2.37-.34,9.45,9.45,0,0,1,2.71.4,6.3,6.3,0,0,1,2.37,1.34Z"/><polygon class="cls-1" points="122.32 263.17 127.84 263.17 131.66 273.98 131.7 273.98 135.54 263.17 141.04 263.17 141.04 279.73 137.39 279.73 137.39 267.03 137.34 267.03 132.99 279.73 130.21 279.73 126.02 267.03 125.97 267.03 125.97 279.73 122.32 279.73 122.32 263.17"/><polygon class="cls-1" points="143.92 263.17 155.18 263.17 155.18 266.54 147.57 266.54 147.57 269.63 154.75 269.63 154.75 272.99 147.57 272.99 147.57 276.36 155.6 276.36 155.6 279.73 143.92 279.73 143.92 263.17"/><path class="cls-1" d="M33.45,299.45V287.64h4.17c2.27,0,4.34.8,4.34,3.38a3,3,0,0,1-2.73,3.21l3.13,5.22H39.83l-2.74-5H35.55v5Zm2.1-6.81h1.74c1.2,0,2.47-.16,2.47-1.63s-1.22-1.57-2.32-1.57H35.55Z"/><path class="cls-1" d="M48.09,287.64a5.64,5.64,0,0,1,6,5.9c0,4.19-3.64,5.91-6.21,5.91H43.38V287.64Zm-1,9.91c2.52,0,4.7-1.14,4.7-4s-1.85-4-4.42-4H45.49v8Z"/><path class="cls-1" d="M58,298.25A1.34,1.34,0,1,1,56.62,297,1.32,1.32,0,0,1,58,298.25"/><path class="cls-1" d="M69.57,289.21l-1.64,1.2a3.22,3.22,0,0,0-2.48-1.17,4,4,0,0,0-4.06,4.22,4.07,4.07,0,0,0,4.06,4.39,3.33,3.33,0,0,0,2.65-1.44l1.74,1.24a5.27,5.27,0,0,1-4.41,2.1,6.21,6.21,0,1,1,0-12.41,5.2,5.2,0,0,1,4.14,1.87"/><path class="cls-1" d="M76.25,299.75a6.21,6.21,0,1,1,.11-12.41,5.86,5.86,0,0,1,6.21,6.19,6,6,0,0,1-6.32,6.22m0-1.9a4.07,4.07,0,0,0,4.07-4.39,4.07,4.07,0,1,0-8.13,0c0,2.42,1.52,4.39,4.06,4.39"/><polygon class="cls-1" points="84 299.45 84 287.64 86.78 287.64 92.5 296.41 92.54 296.41 92.54 287.64 94.64 287.64 94.64 299.45 91.97 299.45 86.13 290.39 86.1 290.39 86.1 299.45 84 299.45"/><path class="cls-1" d="M107,288.82l-1.55,1.57a4.54,4.54,0,0,0-3.09-1.15,4,4,0,0,0-4,4.22c0,2.44,1.53,4.39,4.07,4.39a5.73,5.73,0,0,0,2.75-.62v-2.79h-2.42v-1.9h4.52v6a10.14,10.14,0,0,1-4.87,1.17,6.21,6.21,0,1,1,0-12.41,6.84,6.84,0,0,1,4.64,1.48"/><path class="cls-1" d="M114.67,299.75a6.21,6.21,0,1,1,6.33-6.22,6,6,0,0,1-6.33,6.22m0-1.9c2.56,0,4.07-2,4.07-4.39a4.06,4.06,0,1,0-8.12,0c0,2.42,1.52,4.39,4,4.39"/><polygon class="cls-1" points="0.47 239.42 5.64 239.42 12.99 251.42 13.04 251.42 13.04 239.42 16.84 239.42 16.84 256.69 11.87 256.69 4.33 244.4 4.28 244.4 4.28 256.69 0.47 256.69 0.47 239.42"/><path class="cls-1" d="M30.23,239.42h3.15l7.51,17.27H36.6L35.11,253H28.4L27,256.69H22.77Zm1.47,5-2.1,5.36h4.22Z"/><polygon class="cls-1" points="47.92 242.79 42.99 242.79 42.99 239.42 56.65 239.42 56.65 242.79 51.72 242.79 51.72 256.69 47.92 256.69 47.92 242.79"/><rect class="cls-1" x="62.73" y="239.42" width="3.8" height="17.27"/><path class="cls-1" d="M73.26,248.06a9.65,9.65,0,0,1,.7-3.76,8.23,8.23,0,0,1,1.94-2.87,8.6,8.6,0,0,1,2.95-1.81,11.19,11.19,0,0,1,7.46,0,8.6,8.6,0,0,1,3,1.81,8.23,8.23,0,0,1,1.94,2.87,10.42,10.42,0,0,1,0,7.51,8.14,8.14,0,0,1-1.94,2.87,8.47,8.47,0,0,1-3,1.82,11.36,11.36,0,0,1-7.46,0,8.47,8.47,0,0,1-2.95-1.82A8.14,8.14,0,0,1,74,251.81a9.6,9.6,0,0,1-.7-3.75m3.95,0a6.4,6.4,0,0,0,.38,2.23,5.22,5.22,0,0,0,1.09,1.76,5,5,0,0,0,1.69,1.16,6.16,6.16,0,0,0,4.42,0,5,5,0,0,0,1.69-1.16,5.22,5.22,0,0,0,1.09-1.76,6.7,6.7,0,0,0,0-4.45,5.07,5.07,0,0,0-1.09-1.77,4.9,4.9,0,0,0-1.69-1.16,6.16,6.16,0,0,0-4.42,0,4.9,4.9,0,0,0-1.69,1.16,5.07,5.07,0,0,0-1.09,1.77,6.39,6.39,0,0,0-.38,2.22"/><polygon class="cls-1" points="98.68 239.42 103.85 239.42 111.19 251.42 111.24 251.42 111.24 239.42 115.05 239.42 115.05 256.69 110.07 256.69 102.53 244.4 102.48 244.4 102.48 256.69 98.68 256.69 98.68 239.42"/><path class="cls-1" d="M128.44,239.42h3.15l7.51,17.27h-4.29L133.32,253h-6.71l-1.44,3.66H121Zm1.46,5-2.1,5.36H132Z"/><polygon class="cls-1" points="145.17 239.42 148.98 239.42 148.98 253.18 155.37 253.18 155.37 256.69 145.17 256.69 145.17 239.42"/><path class="cls-1" d="M.58,222.8a12.06,12.06,0,0,1,.86-4.64,10.41,10.41,0,0,1,2.4-3.55,10.63,10.63,0,0,1,3.65-2.25,13.26,13.26,0,0,1,4.62-.78,13.16,13.16,0,0,1,4.61.78,10.53,10.53,0,0,1,3.65,2.25,10.13,10.13,0,0,1,2.4,3.55,13,13,0,0,1,0,9.29,10.09,10.09,0,0,1-2.4,3.54,10.39,10.39,0,0,1-3.65,2.25,13.16,13.16,0,0,1-4.61.78,13.26,13.26,0,0,1-4.62-.78A10.48,10.48,0,0,1,3.84,231a10.37,10.37,0,0,1-2.4-3.54,12.15,12.15,0,0,1-.86-4.65m4.89,0a7.83,7.83,0,0,0,.47,2.76,6.25,6.25,0,0,0,1.34,2.17,6.1,6.1,0,0,0,2.1,1.44,7,7,0,0,0,2.73.51,7.06,7.06,0,0,0,2.73-.51,6.16,6.16,0,0,0,3.44-3.61,8.45,8.45,0,0,0,0-5.5,6.24,6.24,0,0,0-1.34-2.19,6.12,6.12,0,0,0-2.1-1.43,6.88,6.88,0,0,0-2.73-.52,6.82,6.82,0,0,0-2.73.52,5.94,5.94,0,0,0-2.1,1.43,6.24,6.24,0,0,0-1.34,2.19,7.88,7.88,0,0,0-.47,2.74"/><polygon class="cls-1" points="36.66 212.12 51 212.12 51 216.47 41.37 216.47 41.37 220.81 50.27 220.81 50.27 225.15 41.37 225.15 41.37 233.48 36.66 233.48 36.66 212.12"/><polygon class="cls-1" points="63.28 212.12 77.61 212.12 77.61 216.47 67.98 216.47 67.98 220.81 76.88 220.81 76.88 225.15 67.98 225.15 67.98 233.48 63.28 233.48 63.28 212.12"/><rect class="cls-1" x="91.51" y="212.12" width="4.71" height="21.36"/><path class="cls-1" d="M124.12,217.67a4.74,4.74,0,0,0-1.7-1.3,5.71,5.71,0,0,0-2.34-.45,5.9,5.9,0,0,0-4.42,2,6.87,6.87,0,0,0-1.3,2.18,8,8,0,0,0-.46,2.75,7.84,7.84,0,0,0,.46,2.76,6.79,6.79,0,0,0,1.29,2.17,5.71,5.71,0,0,0,1.91,1.44,5.61,5.61,0,0,0,2.37.51,5.29,5.29,0,0,0,2.56-.6,5.14,5.14,0,0,0,1.84-1.69l3.93,2.92a8.21,8.21,0,0,1-3.44,2.81,10.72,10.72,0,0,1-4.29.9,13.2,13.2,0,0,1-4.61-.78,10.39,10.39,0,0,1-3.65-2.25,10.09,10.09,0,0,1-2.4-3.54,13,13,0,0,1,0-9.3,10.19,10.19,0,0,1,2.4-3.54,10.53,10.53,0,0,1,3.65-2.25,13.2,13.2,0,0,1,4.61-.78,11.3,11.3,0,0,1,1.89.16,10.24,10.24,0,0,1,1.93.53,9,9,0,0,1,1.83,1,7,7,0,0,1,1.56,1.48Z"/><polygon class="cls-1" points="140.66 212.12 155.17 212.12 155.17 216.47 145.36 216.47 145.36 220.45 154.62 220.45 154.62 224.79 145.36 224.79 145.36 229.14 155.71 229.14 155.71 233.48 140.66 233.48 140.66 212.12"/><path class="cls-2" d="M33.42,136.38c-.78-1-2.05-2.43-3.25-3.87a1,1,0,0,0-1.76.72c1.31,9.71,1.86,20.24-5.26,27.13a8.4,8.4,0,0,0-2.06,5.2L19.8,192.23a3.27,3.27,0,0,0,2,3.12A1.77,1.77,0,0,0,24.4,194l3.86-24.12a10.26,10.26,0,0,1,3.34-6,6.79,6.79,0,0,0,1.73-2.38c6.6-15.47,3.11-21.23.09-25.11"/><path class="cls-3" d="M23.77,106.42a5.13,5.13,0,0,0,1.06-3.74l-.13-1.45c-.1-1-1-1.26-1.54-.71C20,103.93,11.51,112.14,1.75,114.18a3.76,3.76,0,0,0-1.51,1.31,1.19,1.19,0,0,0,1.3,1.74C6,116.42,18,113.64,23.77,106.42"/><path class="cls-3" d="M148.17,8.29c-3.77-2.42-5.74.83-7.82,1.77-3.06,1.38-9.43-.43-11.08-2.3S126,4.39,120.69,3.7C116,3.09,101.52.6,98.63.1a.86.86,0,0,0-.87.35c-.73,1-1.85,3.8,3.56,7,6.88,4,6.58,8.42,15.6,14.16,11.37,7.23,18.23,7.31,22.93,15.93a.89.89,0,0,0,1.71-.38,74.78,74.78,0,0,0-2.85-14.28,13.82,13.82,0,0,1-.54-5.15c.23-2.37,1.17-4.9,5.23-1.3,2.79,2.47,9.37-1.7,11.54-3,.86-.53-4.45-3.6-6.77-5.09"/><path class="cls-4" d="M108.38,133.06c-2.41-.13-2.13,1.42-1.53,3.8a96.17,96.17,0,0,1,2.24,11.08,107.11,107.11,0,0,1,.57,25.8,3,3,0,0,0,1.37,2.88,2.37,2.37,0,0,0,3.68-1.71l.82-27.41c-.06-1.23-.12-2.46-.19-3.69-.63-4.51,0-9.52-5.85-10.61a7.3,7.3,0,0,0-1.11-.14"/><path class="cls-1" d="M115.06,44a47,47,0,0,1-4.41,6.6A61.24,61.24,0,0,1,99.59,61.5,69.22,69.22,0,0,1,71.32,74.27c-5.79,1.2-12,2.33-18.82,3.37,0,0-16.49,1-23.5,13.8a.38.38,0,0,0,.56.48c6.26-4.25,18-11.8,37.09-8.19a11.4,11.4,0,0,1,2.77.91c.17.68-1.43.43-1.66.38-.8-.17-10.13.25-11.18.42a61.8,61.8,0,0,0-7.36,1.7,60.42,60.42,0,0,0-17.16,8.29.83.83,0,0,1-.15.11c-1.85,1.33-3.48,2.84-5.18,4.16a1.77,1.77,0,0,0-.67,1.08c-1.15,5.63,7.85-2,12.17-3.34h0c7-2.17,19.75-5.35,28.55-2.79.41.12.93.11,1.23.43-.19.27-.6.21-.92.27-.54.07-1.09.1-1.63.17a45.57,45.57,0,0,1-5.85.21H58.36a56.71,56.71,0,0,0-10.62,1.65c-1.32.29-2.62.63-3.91,1a42.61,42.61,0,0,0-4.74,1.72,72.37,72.37,0,0,0-9.45,4.71c-.71.43-1.48.9-2.27,1.35a2.45,2.45,0,0,0-1.25,2.34c.24,2.25.75,8.53,3.57,5.5a9.44,9.44,0,0,1,2.59-1.8,41.44,41.44,0,0,1,17.39-5.91,72,72,0,0,1,9.85-.55,21,21,0,0,1,4.48.63c.58.14,2.85.8,1.19,1.27-1,.29-8.9-1.71-19.21,1.9a53,53,0,0,0-10.7,5.16c-.68.43-1.37.89-2.05,1.36-1,.73-2,1.54-3,2.34-.1.07-.18.15-.28.23a2.73,2.73,0,0,0-.82,3c.19.54.19,2.63,2.19,1a28,28,0,0,1,8.19-4.36A28.62,28.62,0,0,1,47,116.61a57.87,57.87,0,0,1,12.26.67c3.21,1.41-11.13.08-17.58,2.78a46.5,46.5,0,0,0-7.46,4.13c-3.26,2.17-2.18,3.95-1.67,4.7,1.32,2.11,3,2.82,4.47,4.87,2.59,3.62,8,12.85.23,26-.5.85-2.72,3.49-1.55,6.05L47,192.78A2.2,2.2,0,0,0,49,194.1h0a2.14,2.14,0,0,0,2-2.86c-3.38-9-5-24.82,2.4-38.46s19.71-31.4,19.7-31.4C75,118.18,80.1,111.14,86.51,104,95,91.87,109.21,69,115.06,44M56.68,127.38a1.38,1.38,0,0,1-.31.22,9.29,9.29,0,0,1-1.93.8l-.42.13c-.48.15-1,.28-1.36.38l-.49.13-.13,0-.13,0c-.47.11-.95.2-1.43.27a14.22,14.22,0,0,1-1.45.14,35.36,35.36,0,0,0-5.88,1.16c-1.32.31-5.44,2.75-5.32,1.07.33-.34.66-.67,1-1a14.12,14.12,0,0,1,1.52-1.23,12.12,12.12,0,0,1,6.28-2.3c1.16-.08,2.34-.13,3.51-.17,1.79-.07,3.58-.15,5.33-.38l.74-.1a1.73,1.73,0,0,1,.49.23.12.12,0,0,1,.06.06c.14.15.1.31-.07.48"/><path class="cls-5" d="M136.43,105.07A41.47,41.47,0,0,0,137,98.7c0-3-4.27-18.37-22.79-15.65-8,1.17-19,11.18-27.66,20.91C95,91.87,109.21,69,115.06,44a99,99,0,0,0,2.46-16.3c.07-1,1.45-2.27,2.48-1.93,5.32,1.79,19.9,7.93,20.4,17.7,0,0,1.84,42.39-4,61.58"/><path class="cls-6" d="M137,98.7a41.37,41.37,0,0,1-.53,6.37,24.81,24.81,0,0,1-2.17,7.07c-3.43,7-3.4,26.88-3.4,26.88-.15-.16,2.94,40,2.94,40a2.3,2.3,0,0,1-2.09,2.5,2.33,2.33,0,0,1-2.55-1.84l-6.38-31.59a32.4,32.4,0,0,0-4.66-11.47c-14.5-21.87-38.4-16.89-39.39-16.71l-5.52,1.76a2.43,2.43,0,0,1,0-.27c1.75-3.2,6.89-10.24,13.3-17.43,8.67-9.73,19.65-19.74,27.66-20.91C132.69,80.33,137,95.65,137,98.7"/><path class="cls-7" d="M71.09,49.39a22.25,22.25,0,1,1-22.24-22.5,22.37,22.37,0,0,1,22.24,22.5"/><path class="cls-4" d="M49.12,0C22.29-.15.58,21.2,0,48.33A49.49,49.49,0,0,0,24.36,92.14,16.84,16.84,0,0,1,29.44,83C50.13,65,72.29,75.45,95.23,55.18l0,0,0,0a7.33,7.33,0,0,0,2.38-5.41v-.32C97.69,22.2,76,.15,49.12,0m1.17,71.84a22.5,22.5,0,1,1,20.76-21,22.38,22.38,0,0,1-20.76,21"/></g></g></svg>