<svg xmlns="http://www.w3.org/2000/svg" xmlns:xlink="http://www.w3.org/1999/xlink" viewBox="0 0 114.83 221.05"><defs><style>.cls-1{fill:none;}.cls-2{fill:#fff;}.cls-3{opacity:0.8;}.cls-4{clip-path:url(#clip-path);}.cls-5{clip-path:url(#clip-path-2);}.cls-6{clip-path:url(#clip-path-3);}.cls-7{opacity:0.6;}.cls-8{clip-path:url(#clip-path-4);}</style><clipPath id="clip-path" transform="translate(0 0)"><rect class="cls-1" x="14.59" y="97.45" width="12.75" height="46.75"/></clipPath><clipPath id="clip-path-2" transform="translate(0 0)"><rect class="cls-1" x="78.49" y="98.12" width="6.7" height="32.42"/></clipPath><clipPath id="clip-path-3" transform="translate(0 0)"><rect class="cls-1" x="63.8" y="18.98" width="39.94" height="58.51"/></clipPath><clipPath id="clip-path-4" transform="translate(0 0)"><rect class="cls-1" width="72.04" height="67.95"/></clipPath></defs><title>ONT3</title><g id="Calque_2" data-name="Calque 2"><g id="Calque_1-2" data-name="Calque 1"><path class="cls-2" d="M10.85,197.37a5.25,5.25,0,0,0-1.56-1.91A6.45,6.45,0,0,0,7,194.4a11.38,11.38,0,0,0-2.78-.33h-4v12.22h4.4a8.38,8.38,0,0,0,2.61-.4,6.66,6.66,0,0,0,2.19-1.16,5.75,5.75,0,0,0,1.51-1.9,5.87,5.87,0,0,0,.56-2.62,6.31,6.31,0,0,0-.58-2.84M8.3,201.83A3,3,0,0,1,7.37,203a3.48,3.48,0,0,1-1.39.63,7.28,7.28,0,0,1-1.73.19H2.85v-7.24H4.44a6.07,6.07,0,0,1,1.61.21,4.08,4.08,0,0,1,1.34.65,3.22,3.22,0,0,1,.91,1.09,3.52,3.52,0,0,1,.33,1.57,4.17,4.17,0,0,1-.33,1.75" transform="translate(0 0)"/><path class="cls-2" d="M20.4,194.07v7.4a3.06,3.06,0,0,1-.18,1.06,2.45,2.45,0,0,1-1.29,1.39,2.38,2.38,0,0,1-1,.19,2.46,2.46,0,0,1-1-.19,2.36,2.36,0,0,1-.79-.56,2.76,2.76,0,0,1-.51-.83,3.06,3.06,0,0,1-.18-1.06v-7.4H12.79v7.51a5.87,5.87,0,0,0,.33,2,4.27,4.27,0,0,0,2.59,2.64,6.15,6.15,0,0,0,2.24.38,6.17,6.17,0,0,0,2.23-.38,4.41,4.41,0,0,0,1.61-1.05,4.47,4.47,0,0,0,1-1.59,6.12,6.12,0,0,0,.32-2v-7.51Z" transform="translate(0 0)"/><polygon class="cls-2" points="28.63 194.07 28.63 196.45 32.12 196.45 32.12 206.29 34.81 206.29 34.81 196.45 38.3 196.45 38.3 194.07 28.63 194.07"/><path class="cls-2" d="M51.23,197.52a5.87,5.87,0,0,0-1.37-2,6.16,6.16,0,0,0-2.09-1.28,7.46,7.46,0,0,0-2.64-.45,7.54,7.54,0,0,0-2.64.45,6.26,6.26,0,0,0-2.09,1.28,6,6,0,0,0-1.37,2,7.47,7.47,0,0,0,0,5.32,5.88,5.88,0,0,0,1.37,2,6.13,6.13,0,0,0,2.09,1.29,7.54,7.54,0,0,0,2.64.45,7.46,7.46,0,0,0,2.64-.45,6,6,0,0,0,2.09-1.29,5.74,5.74,0,0,0,1.37-2,7.46,7.46,0,0,0,0-5.32m-2.57,4.24a3.51,3.51,0,0,1-.77,1.24,3.37,3.37,0,0,1-1.2.82,4.34,4.34,0,0,1-3.12,0,3.37,3.37,0,0,1-1.2-.82,3.66,3.66,0,0,1-.77-1.24,4.73,4.73,0,0,1,0-3.15,3.7,3.7,0,0,1,.77-1.25,3.37,3.37,0,0,1,1.2-.82,4.21,4.21,0,0,1,3.12,0,3.37,3.37,0,0,1,1.2.82,3.55,3.55,0,0,1,.77,1.25,4.73,4.73,0,0,1,0,3.15" transform="translate(0 0)"/><path class="cls-2" d="M60.7,194.07v7.4a3.06,3.06,0,0,1-.18,1.06,2.76,2.76,0,0,1-.51.83,2.29,2.29,0,0,1-1.76.75,2.54,2.54,0,0,1-1-.19A2.45,2.45,0,0,1,56,202.53a3.06,3.06,0,0,1-.18-1.06v-7.4H53.09v7.51a6.12,6.12,0,0,0,.32,2,4.47,4.47,0,0,0,1,1.59A4.41,4.41,0,0,0,56,206.22a6.2,6.2,0,0,0,2.25.38,6.07,6.07,0,0,0,2.22-.38,4.27,4.27,0,0,0,2.59-2.64,5.87,5.87,0,0,0,.33-2v-7.51Z" transform="translate(0 0)"/><path class="cls-2" d="M72.1,201.13a3,3,0,0,0,2-1.15,3.57,3.57,0,0,0,.67-2.2,3.86,3.86,0,0,0-.37-1.79,3,3,0,0,0-1-1.13,4,4,0,0,0-1.47-.61,8.27,8.27,0,0,0-1.76-.18H65.41v12.22H68.1v-4.88h1.33L72,206.29h3.23Zm-.37-2.59a1.3,1.3,0,0,1-.54.41,2.7,2.7,0,0,1-.73.15l-.77,0H68.1v-2.78h1.76a6.27,6.27,0,0,1,.74.05,2,2,0,0,1,.67.2,1.33,1.33,0,0,1,.49.42,1.35,1.35,0,0,1,.19.74,1.19,1.19,0,0,1-.22.78" transform="translate(0 0)"/><rect class="cls-2" x="76.09" y="194.07" width="2.69" height="12.22"/><path class="cls-2" d="M88.26,200.87a3.19,3.19,0,0,0-1.05-1,5.4,5.4,0,0,0-1.35-.58c-.49-.14-.94-.28-1.36-.42a3.73,3.73,0,0,1-1-.5,1,1,0,0,1-.42-.85,1,1,0,0,1,.18-.58,1.23,1.23,0,0,1,.45-.39,2.39,2.39,0,0,1,.58-.22,2.83,2.83,0,0,1,1.67.13,2,2,0,0,1,.89.62l1.84-2a4.66,4.66,0,0,0-1.74-1,7,7,0,0,0-2-.29,6.07,6.07,0,0,0-1.75.25,4.64,4.64,0,0,0-1.49.75,3.76,3.76,0,0,0-1,1.24,3.68,3.68,0,0,0-.39,1.73,2.89,2.89,0,0,0,.42,1.64,3.37,3.37,0,0,0,1.06,1,6.55,6.55,0,0,0,1.38.6q.75.22,1.38.45a3.83,3.83,0,0,1,1.07.55,1,1,0,0,1,.42.87,1,1,0,0,1-.17.57,1.24,1.24,0,0,1-.43.39,2.28,2.28,0,0,1-.6.24,3.11,3.11,0,0,1-.67.07,3,3,0,0,1-1.3-.3,2.7,2.7,0,0,1-1-.85l-1.92,2.1a5.57,5.57,0,0,0,1.9,1.18,6.92,6.92,0,0,0,4,.12,4.39,4.39,0,0,0,1.5-.74,3.6,3.6,0,0,0,1-1.26,4,4,0,0,0,.38-1.78,3.18,3.18,0,0,0-.41-1.71" transform="translate(0 0)"/><polygon class="cls-2" points="99.96 194.07 97.13 202.04 97.09 202.04 94.28 194.07 90.21 194.07 90.21 206.29 92.9 206.29 92.9 196.92 92.93 196.92 96.02 206.29 98.07 206.29 101.28 196.92 101.32 196.92 101.32 206.29 104.01 206.29 104.01 194.07 99.96 194.07"/><polygon class="cls-2" points="108.83 203.8 108.83 201.32 114.12 201.32 114.12 198.83 108.83 198.83 108.83 196.56 114.43 196.56 114.43 194.07 106.13 194.07 106.13 206.29 114.75 206.29 114.75 203.8 108.83 203.8"/><path class="cls-2" d="M28.93,217a2.24,2.24,0,0,0,2-2.37c0-1.9-1.52-2.49-3.19-2.49H24.67v8.71h1.55v-3.69h1.13l2,3.69h1.87Zm-2.71-1.17v-2.36h1.39c.81,0,1.71.16,1.71,1.15s-.94,1.21-1.82,1.21Z" transform="translate(0 0)"/><path class="cls-2" d="M35.46,212.12H32v8.71h3.29a4.41,4.41,0,0,0,4.58-4.36,4.16,4.16,0,0,0-4.4-4.35m-.7,7.31H33.54v-5.91H35c1.9,0,3.26.84,3.26,2.95s-1.61,3-3.47,3" transform="translate(0 0)"/><path class="cls-2" d="M41.75,219a1,1,0,0,0-1,1,1,1,0,0,0,1,.93,1,1,0,0,0,1-1,1,1,0,0,0-1-.93" transform="translate(0 0)"/><path class="cls-2" d="M50.22,218.59a2.45,2.45,0,0,1-2,1.06,3,3,0,0,1-3-3.24,3,3,0,0,1,3-3.11,2.41,2.41,0,0,1,1.84.86l1.2-.89a3.84,3.84,0,0,0-3-1.37,4.58,4.58,0,1,0,0,9.15,3.87,3.87,0,0,0,3.25-1.55Z" transform="translate(0 0)"/><path class="cls-2" d="M56.31,211.9a4.58,4.58,0,1,0-.08,9.15,4.45,4.45,0,0,0,4.66-4.59,4.32,4.32,0,0,0-4.58-4.56m0,7.75a3.18,3.18,0,0,1,0-6.35,3,3,0,0,1,3,3.11,3,3,0,0,1-3,3.24" transform="translate(0 0)"/><polygon class="cls-2" points="68.24 212.12 68.24 218.59 68.22 218.59 64 212.12 61.94 212.12 61.94 220.83 63.49 220.83 63.49 214.15 63.52 214.15 67.82 220.83 69.79 220.83 69.79 212.12 68.24 212.12"/><path class="cls-2" d="M75.72,215.73v1.41H77.5v2.05a4.21,4.21,0,0,1-2,.46,3,3,0,0,1-3-3.24,3,3,0,0,1,3-3.11,3.32,3.32,0,0,1,2.27.85L78.88,213a5,5,0,0,0-3.42-1.09,4.58,4.58,0,1,0,0,9.15,7.62,7.62,0,0,0,3.59-.86v-4.46Z" transform="translate(0 0)"/><path class="cls-2" d="M84.65,211.9a4.58,4.58,0,1,0-.08,9.15,4.45,4.45,0,0,0,4.66-4.59,4.32,4.32,0,0,0-4.58-4.56m-.05,7.75a3.18,3.18,0,0,1,0-6.35,3,3,0,0,1,3,3.11,3,3,0,0,1-3,3.24" transform="translate(0 0)"/><polygon class="cls-2" points="9.61 176.56 9.61 185.41 9.58 185.41 4.16 176.56 0.35 176.56 0.35 189.3 3.15 189.3 3.15 180.23 3.19 180.23 8.75 189.3 12.42 189.3 12.42 176.56 9.61 176.56"/><path class="cls-2" d="M24.62,176.56H22.3L16.79,189.3h3.09L21,186.6h4.94l1.1,2.7h3.17Zm-2.79,7.66,1.54-3.95,1.57,3.95Z" transform="translate(0 0)"/><polygon class="cls-2" points="31.7 176.56 31.7 179.04 35.34 179.04 35.34 189.3 38.14 189.3 38.14 179.04 41.78 179.04 41.78 176.56 31.7 176.56"/><rect class="cls-2" x="46.26" y="176.56" width="2.8" height="12.74"/><path class="cls-2" d="M67.26,180.16a6,6,0,0,0-1.43-2.11,6.15,6.15,0,0,0-2.18-1.34,8.28,8.28,0,0,0-5.5,0A6.15,6.15,0,0,0,56,178.05a6,6,0,0,0-1.43,2.11,7.78,7.78,0,0,0,0,5.54A6,6,0,0,0,56,187.81a6.15,6.15,0,0,0,2.18,1.34,8.28,8.28,0,0,0,5.5,0,6.15,6.15,0,0,0,2.18-1.34,6,6,0,0,0,1.43-2.11,7.78,7.78,0,0,0,0-5.54m-2.68,4.42a4.06,4.06,0,0,1-.8,1.29,3.6,3.6,0,0,1-1.25.85,4.44,4.44,0,0,1-3.26,0,3.6,3.6,0,0,1-1.25-.85,3.89,3.89,0,0,1-.8-1.29,5,5,0,0,1,0-3.29,3.68,3.68,0,0,1,2.05-2.16,4.58,4.58,0,0,1,3.26,0,3.77,3.77,0,0,1,1.25.86,3.9,3.9,0,0,1,.8,1.3,5,5,0,0,1,0,3.29" transform="translate(0 0)"/><polygon class="cls-2" points="82.04 176.56 82.04 185.41 82 185.41 76.59 176.56 72.77 176.56 72.77 189.3 75.58 189.3 75.58 180.23 75.61 180.23 81.17 189.3 84.84 189.3 84.84 176.56 82.04 176.56"/><path class="cls-2" d="M97,176.56H94.72L89.21,189.3h3.1l1.06-2.7h4.94l1.1,2.7h3.17Zm-2.79,7.66,1.55-3.95,1.56,3.95Z" transform="translate(0 0)"/><polygon class="cls-2" points="109.86 186.71 109.86 176.56 107.06 176.56 107.06 189.3 114.57 189.3 114.57 186.71 109.86 186.71"/><path class="cls-2" d="M16.79,160.88A7.51,7.51,0,0,0,15,158.26a7.73,7.73,0,0,0-2.7-1.65,9.59,9.59,0,0,0-3.4-.58,9.56,9.56,0,0,0-3.4.58,7.45,7.45,0,0,0-4.47,4.27,9.63,9.63,0,0,0,0,6.85A7.52,7.52,0,0,0,5.53,172a9.56,9.56,0,0,0,3.4.58,9.59,9.59,0,0,0,3.4-.58,7.76,7.76,0,0,0,2.7-1.66,7.57,7.57,0,0,0,1.76-2.61,9.48,9.48,0,0,0,0-6.85m-3.31,5.46A4.54,4.54,0,0,1,10.94,169a5.18,5.18,0,0,1-2,.38,5.18,5.18,0,0,1-2-.38,4.54,4.54,0,0,1-2.54-2.66,6.06,6.06,0,0,1,0-4.06,4.64,4.64,0,0,1,1-1.61,4.41,4.41,0,0,1,1.55-1.06,5.18,5.18,0,0,1,2-.38,5.18,5.18,0,0,1,2,.38,4.41,4.41,0,0,1,1.55,1.06,4.64,4.64,0,0,1,1,1.61,6.23,6.23,0,0,1,0,4.06" transform="translate(0 0)"/><polygon class="cls-2" points="37.61 159.63 37.61 156.43 27.04 156.43 27.04 172.18 30.51 172.18 30.51 166.04 37.07 166.04 37.07 162.84 30.51 162.84 30.51 159.63 37.61 159.63"/><polygon class="cls-2" points="57.23 159.63 57.23 156.43 46.66 156.43 46.66 172.18 50.13 172.18 50.13 166.04 56.7 166.04 56.7 162.84 50.13 162.84 50.13 159.63 57.23 159.63"/><rect class="cls-2" x="67.49" y="156.43" width="3.47" height="15.75"/><path class="cls-2" d="M91.69,167.69a3.78,3.78,0,0,1-3.25,1.69A4.09,4.09,0,0,1,86.7,169a4.23,4.23,0,0,1-1.42-1.06,5,5,0,0,1-.94-1.6,6.06,6.06,0,0,1,0-4.06,5,5,0,0,1,1-1.61,4.22,4.22,0,0,1,1.45-1.06,4.38,4.38,0,0,1,1.81-.38,4.08,4.08,0,0,1,1.73.34,3.44,3.44,0,0,1,1.25,1l2.67-2.18a5.38,5.38,0,0,0-1.15-1.09,6.24,6.24,0,0,0-1.35-.71,7.31,7.31,0,0,0-1.42-.39,8.52,8.52,0,0,0-1.39-.12,9.65,9.65,0,0,0-3.41.58,7.78,7.78,0,0,0-2.69,1.65A7.68,7.68,0,0,0,81,160.88a9.63,9.63,0,0,0,0,6.85A7.54,7.54,0,0,0,85.48,172a9.65,9.65,0,0,0,3.41.58,7.8,7.8,0,0,0,3.16-.67,5.91,5.91,0,0,0,2.53-2.07Z" transform="translate(0 0)"/><polygon class="cls-2" points="107.2 168.98 107.2 165.77 114.03 165.77 114.03 162.57 107.2 162.57 107.2 159.63 114.43 159.63 114.43 156.43 103.73 156.43 103.73 172.18 114.83 172.18 114.83 168.98 107.2 168.98"/><path class="cls-2" d="M38.37,95.18l.1,0-.19,0,.09,0" transform="translate(0 0)"/><path class="cls-2" d="M41.44,93.36l.21.08-.21-.07-.54.07c-.19,0-.37,0-.56.06.37,0,.74-.08,1.1-.14" transform="translate(0 0)"/><g class="cls-3"><g class="cls-4"><path class="cls-2" d="M24.64,100.57c-.57-.73-1.51-1.79-2.39-2.85a.73.73,0,0,0-1.3.53c1,7.16,1.37,14.93-3.88,20a6.21,6.21,0,0,0-1.52,3.83l-1,19.67a2.4,2.4,0,0,0,1.48,2.3,1.31,1.31,0,0,0,1.91-1l2.85-17.79a7.58,7.58,0,0,1,2.46-4.41,4.9,4.9,0,0,0,1.27-1.76c4.87-11.41,2.3-15.66.07-18.52" transform="translate(0 0)"/></g></g><path class="cls-2" d="M17.53,78.48a3.8,3.8,0,0,0,.78-2.76l-.1-1.07c-.07-.7-.76-.93-1.14-.52C14.74,76.64,8.49,82.69,1.29,84.2a2.9,2.9,0,0,0-1.12,1,.88.88,0,0,0,1,1.28c3.3-.6,12.13-2.64,16.39-8" transform="translate(0 0)"/><path class="cls-2" d="M109.27,6.11c-2.79-1.78-4.24.61-5.77,1.31-2.26,1-7-.32-8.17-1.7s-2.44-2.49-6.33-3C85.51,2.28,74.87.44,72.73.07a.65.65,0,0,0-.64.26c-.53.76-1.36,2.8,2.63,5.13,5.07,3,4.85,6.22,11.5,10.44,8.38,5.34,13.44,5.39,16.91,11.76a.66.66,0,0,0,1.26-.29,55.82,55.82,0,0,0-2.1-10.53,10.17,10.17,0,0,1-.4-3.8c.17-1.74.87-3.6,3.86-.95,2.06,1.82,6.91-1.26,8.51-2.23.63-.38-3.28-2.65-5-3.75" transform="translate(0 0)"/><g class="cls-3"><g class="cls-5"><path class="cls-2" d="M79.92,98.12c-1.77-.09-1.57,1-1.12,2.81a72,72,0,0,1,1.65,8.17,79.21,79.21,0,0,1,.42,19,2.18,2.18,0,0,0,1,2.12A1.75,1.75,0,0,0,84.59,129l.6-20.21c0-.91-.09-1.82-.13-2.73-.47-3.33,0-7-4.32-7.82a7.49,7.49,0,0,0-.82-.11" transform="translate(0 0)"/></g></g><path class="cls-2" d="M81.6,37.33a45.48,45.48,0,0,1-8.15,8,51.17,51.17,0,0,1-20.86,9.42c-4.26.89-8.87,1.72-13.87,2.48,0,0-12.16.77-17.33,10.18a.28.28,0,0,0,.41.35c4.62-3.13,13.25-8.69,27.35-6a9.21,9.21,0,0,1,2,.67c.13.51-1,.33-1.22.29-.59-.13-7.47.18-8.25.31a43.45,43.45,0,0,0-5.42,1.25,44.1,44.1,0,0,0-12.65,6.12l-.12.08c-1.36,1-2.56,2.09-3.82,3.06a1.33,1.33,0,0,0-.49.8c-.85,4.15,5.79-1.49,9-2.46h0c5.15-1.6,14.56-4,21.06-2.06.3.09.68.08.9.31-.14.21-.44.16-.68.21-.4.05-.8.07-1.2.12a34.36,34.36,0,0,1-4.31.15H43a41.18,41.18,0,0,0-7.83,1.22c-1,.21-1.94.46-2.88.76a32.36,32.36,0,0,0-3.5,1.26,53.93,53.93,0,0,0-7,3.48l-1.67,1A1.82,1.82,0,0,0,19.26,80c.18,1.66.55,6.29,2.63,4.06a7.08,7.08,0,0,1,1.92-1.33,30.43,30.43,0,0,1,12.82-4.35A50.4,50.4,0,0,1,43.9,78a15.35,15.35,0,0,1,3.3.46c.43.11,2.1.59.88.94-.73.21-6.57-1.27-14.17,1.4A39,39,0,0,0,26,84.61c-.51.32-1,.66-1.52,1-.77.55-1.48,1.14-2.18,1.73l-.2.17a2,2,0,0,0-.61,2.2c.14.39.14,1.93,1.62.75a20.5,20.5,0,0,1,6-3.22A21.34,21.34,0,0,1,34.68,86a42.63,42.63,0,0,1,9,.5c2.36,1-8.21.05-13,2.05a34.77,34.77,0,0,0-5.5,3c-2.41,1.6-1.6,2.91-1.23,3.47,1,1.56,2.22,2.08,3.3,3.59,1.91,2.67,5.91,9.48.16,19.2-.37.62-2,2.57-1.14,4.45l8.3,19.87a1.61,1.61,0,0,0,1.52,1h0A1.58,1.58,0,0,0,37.7,141c-2.49-6.65-3.68-18.3,1.77-28.36C44.82,102.79,53.7,89.94,54,89.52a77.88,77.88,0,0,1,7.64-10.35l.9-1.06c.42-.48.84-1,1.27-1.45,6.25-8.91,16.74-25.81,21-44.2a34.29,34.29,0,0,1-3.25,4.87M41.8,93.93l-.09.08-.14.09-.27.15a9.27,9.27,0,0,1-1.15.44l-.31.1-1,.28-.36.09-.1,0-.09,0-.53.11a4.71,4.71,0,0,1-.52.09,5,5,0,0,1-.54.06l-.53,0a12.52,12.52,0,0,0-1.81.26c-.67.14-1.46.34-2.53.59s-4,2-3.93.79c.25-.26.49-.49.74-.71s.35-.31.53-.45a6.26,6.26,0,0,1,.59-.46,8.81,8.81,0,0,1,2.18-1.16c.19-.07.39-.14.58-.19a4.6,4.6,0,0,1,.5-.13l.42-.09h0a2.57,2.57,0,0,1,.4-.06,4,4,0,0,1,.5-.06c.86-.06,1.73-.1,2.59-.13s1.5-.06,2.25-.12c.38,0,.75-.06,1.12-.1.19,0,.37,0,.56-.06l.54-.07.21.07.16.1s0,0,0,0a.15.15,0,0,1,0,.07c0,.09,0,.19-.1.28" transform="translate(0 0)"/><g class="cls-3"><g class="cls-6"><path class="cls-2" d="M100.61,77.49a30.11,30.11,0,0,0,.39-4.7c0-2.25-3.15-13.55-16.81-11.54-5.9.86-14,8.24-20.39,15.41,6.25-8.91,16.74-25.81,21-44.2a74.09,74.09,0,0,0,1.82-12c0-.77,1.06-1.67,1.82-1.42,3.93,1.32,14.68,5.85,15.05,13.05,0,0,1.35,31.26-2.93,45.42" transform="translate(0 0)"/></g></g><path class="cls-2" d="M101,72.79a30.11,30.11,0,0,1-.39,4.7A18.65,18.65,0,0,1,99,82.7c-2.53,5.18-2.51,19.82-2.51,19.82S98.67,132,98.67,132a1.69,1.69,0,0,1-1.54,1.84,1.71,1.71,0,0,1-1.88-1.35l-4.71-23.3a24,24,0,0,0-3.43-8.46c-10.69-16.13-28.32-12.45-29-12.32L54,89.72a1.33,1.33,0,0,1,0-.2A88.5,88.5,0,0,1,63.8,76.66c6.39-7.17,14.49-14.56,20.39-15.41,13.66-2,16.85,9.29,16.81,11.54" transform="translate(0 0)"/><path class="cls-2" d="M52.43,36.42A16.41,16.41,0,1,1,36,19.83,16.51,16.51,0,0,1,52.43,36.42" transform="translate(0 0)"/><g class="cls-7"><g class="cls-8"><path class="cls-2" d="M36.23,0A36.06,36.06,0,0,0,0,35.64,36.47,36.47,0,0,0,18,68a12.3,12.3,0,0,1,3.74-6.71C37,47.92,53.31,55.64,70.23,40.69l0,0h0a5.4,5.4,0,0,0,1.76-4v-.24A36.22,36.22,0,0,0,36.23,0m16.1,38.27c0,.35-.09.7-.15,1l-.09.47a16.87,16.87,0,0,1-.88,2.91c-.09.21-.18.43-.28.64s-.21.45-.32.67-.23.43-.35.65-.25.42-.38.63a16.88,16.88,0,0,1-3.34,3.86l-.71.57c-.34.25-.69.5-1,.73s-.8.49-1.22.71a12.3,12.3,0,0,1-1.16.55c-.24.11-.49.21-.74.3a7.58,7.58,0,0,1-.76.26,5.7,5.7,0,0,1-.55.16l-.35.1a13.37,13.37,0,0,1-1.4.29h-.08a7.35,7.35,0,0,1-.82.1c-.2,0-.41,0-.61.06a1,1,0,0,1-.17,0,16,16,0,0,1-6.75-1.06c-.43-.16-.85-.35-1.25-.54A16,16,0,0,1,26.58,50c-.34-.25-.67-.5-1-.77A16.35,16.35,0,0,1,23.36,47c-.33-.41-.64-.83-.94-1.27-.15-.22-.29-.45-.43-.68-.27-.45-.52-.92-.75-1.4h0c-.22-.48-.43-1-.61-1.48a7,7,0,0,1-.26-.77Q20.15,40.7,20,40l-.06-.33c-.07-.36-.13-.72-.18-1.09,0-.11,0-.23,0-.34,0-.39-.07-.79-.09-1.19a2.18,2.18,0,0,0,0-.25c0-.48,0-1,0-1.46l.06-.77c0-.31.08-.61.13-.91.07-.45.17-.9.28-1.34.06-.24.13-.48.2-.72s.15-.48.23-.71.17-.47.26-.7a16.68,16.68,0,0,1,8.38-8.85l.65-.29.05,0c.45-.18.9-.35,1.36-.49A15.85,15.85,0,0,1,33.44,20c.25,0,.5-.08.75-.1l.76-.07c.44,0,.88,0,1.32,0s.75,0,1.12.06c.12,0,.24,0,.35,0,.42,0,.83.11,1.24.18l.43.09a12,12,0,0,1,1.18.3l.36.11c.42.14.84.28,1.24.45a9.88,9.88,0,0,1,.94.41,15.7,15.7,0,0,1,2.43,1.47,5.23,5.23,0,0,1,.55.41,17.53,17.53,0,0,1,1.51,1.35c.37.37.72.76,1.06,1.17s.65.83.94,1.27c.15.22.29.45.43.68a17.16,17.16,0,0,1,1.38,2.9,15.28,15.28,0,0,1,.47,1.54c0,.09,0,.2.07.3.1.42.18.85.25,1.29,0,.13,0,.26.05.39.06.42.1.84.12,1.27,0,.14,0,.27,0,.41,0,.52,0,1,0,1.58l-.06.77" transform="translate(0 0)"/></g></g></g></g></svg>