<svg xmlns="http://www.w3.org/2000/svg" viewBox="0 0 114.67 221"><defs><style>.cls-1{fill:#fff;}</style></defs><title>ONT4</title><g id="Calque_2" data-name="Calque 2"><g id="Calque_1-2" data-name="Calque 1"><path class="cls-1" d="M0,194H4a11.53,11.53,0,0,1,2.79.33,6.48,6.48,0,0,1,2.3,1.06,5.25,5.25,0,0,1,1.56,1.91,6.31,6.31,0,0,1,.58,2.84,5.87,5.87,0,0,1-.56,2.62,5.75,5.75,0,0,1-1.51,1.9A6.66,6.66,0,0,1,7,205.84a8.38,8.38,0,0,1-2.61.4H0Zm2.69,9.73h1.4a7.28,7.28,0,0,0,1.73-.19,3.48,3.48,0,0,0,1.39-.63,3,3,0,0,0,.93-1.15A4.17,4.17,0,0,0,8.47,200a3.52,3.52,0,0,0-.33-1.57,3.22,3.22,0,0,0-.91-1.09,4.08,4.08,0,0,0-1.34-.65,6.07,6.07,0,0,0-1.61-.21H2.69Z"/><path class="cls-1" d="M22.93,201.53a5.87,5.87,0,0,1-.32,2,4.47,4.47,0,0,1-1,1.59,4.41,4.41,0,0,1-1.61,1,6.17,6.17,0,0,1-2.23.38,6.15,6.15,0,0,1-2.24-.38A4.27,4.27,0,0,1,13,203.53a5.87,5.87,0,0,1-.33-2V194h2.69v7.4a2.81,2.81,0,0,0,.19,1.06,2.56,2.56,0,0,0,.5.83,2.36,2.36,0,0,0,.79.56,2.55,2.55,0,0,0,2,0,2.5,2.5,0,0,0,.77-.56,2.41,2.41,0,0,0,.51-.83,3,3,0,0,0,.18-1.06V194h2.69Z"/><polygon class="cls-1" points="31.96 196.4 28.47 196.4 28.47 194.02 38.14 194.02 38.14 196.4 34.65 196.4 34.65 206.24 31.96 206.24 31.96 196.4"/><path class="cls-1" d="M38.38,200.13a6.89,6.89,0,0,1,.49-2.66,5.87,5.87,0,0,1,1.37-2,6.16,6.16,0,0,1,2.09-1.28,8,8,0,0,1,5.28,0,6.16,6.16,0,0,1,2.09,1.28,5.87,5.87,0,0,1,1.37,2,7.46,7.46,0,0,1,0,5.32,5.87,5.87,0,0,1-1.37,2,6.16,6.16,0,0,1-2.09,1.28,8,8,0,0,1-5.28,0,6.16,6.16,0,0,1-2.09-1.28,5.87,5.87,0,0,1-1.37-2,6.89,6.89,0,0,1-.49-2.66m2.79,0a4.44,4.44,0,0,0,.27,1.58,3.66,3.66,0,0,0,.77,1.24,3.37,3.37,0,0,0,1.2.82,4.34,4.34,0,0,0,3.12,0,3.37,3.37,0,0,0,1.2-.82,3.51,3.51,0,0,0,.77-1.24,4.73,4.73,0,0,0,0-3.15,3.55,3.55,0,0,0-.77-1.25,3.37,3.37,0,0,0-1.2-.82,4.21,4.21,0,0,0-3.12,0,3.37,3.37,0,0,0-1.2.82,3.7,3.7,0,0,0-.77,1.25,4.46,4.46,0,0,0-.27,1.57"/><path class="cls-1" d="M63.23,201.53a5.87,5.87,0,0,1-.33,2,4.27,4.27,0,0,1-2.59,2.64,6.07,6.07,0,0,1-2.22.38,6.2,6.2,0,0,1-2.25-.38,4.41,4.41,0,0,1-1.61-1,4.47,4.47,0,0,1-1-1.59,6.12,6.12,0,0,1-.32-2V194h2.69v7.4a3,3,0,0,0,.18,1.06,2.45,2.45,0,0,0,1.29,1.39,2.55,2.55,0,0,0,1,.2,2.45,2.45,0,0,0,1-.2,2.43,2.43,0,0,0,.78-.56,2.76,2.76,0,0,0,.51-.83,3,3,0,0,0,.18-1.06V194h2.69Z"/><path class="cls-1" d="M65.25,194H70a8.43,8.43,0,0,1,1.77.18,4.07,4.07,0,0,1,1.46.61,2.92,2.92,0,0,1,1,1.14,3.79,3.79,0,0,1,.37,1.78,3.57,3.57,0,0,1-.67,2.2,3,3,0,0,1-2,1.15l3.11,5.16H71.82l-2.55-4.88H67.94v4.88H65.25Zm2.69,5.06h1.59l.77,0a2.7,2.7,0,0,0,.73-.15,1.3,1.3,0,0,0,.54-.41,1.19,1.19,0,0,0,.22-.78,1.27,1.27,0,0,0-.19-.74,1.38,1.38,0,0,0-.48-.42,2.26,2.26,0,0,0-.68-.2,6.27,6.27,0,0,0-.74,0H67.94Z"/><rect class="cls-1" x="75.93" y="194.02" width="2.69" height="12.22"/><path class="cls-1" d="M86.65,197a2,2,0,0,0-.89-.62,3.08,3.08,0,0,0-1.67-.13,2.39,2.39,0,0,0-.58.22,1.23,1.23,0,0,0-.45.39,1.05,1.05,0,0,0,.24,1.43,3.73,3.73,0,0,0,1,.5c.42.14.87.28,1.36.42a5.4,5.4,0,0,1,1.35.58,3.4,3.4,0,0,1,1,1,3.18,3.18,0,0,1,.41,1.71,4,4,0,0,1-.38,1.78,3.6,3.6,0,0,1-1,1.26,4.39,4.39,0,0,1-1.5.74,6.92,6.92,0,0,1-4-.12,5.57,5.57,0,0,1-1.9-1.18l1.92-2.1a2.7,2.7,0,0,0,1,.85,3,3,0,0,0,1.3.31,3.14,3.14,0,0,0,.67-.08,2,2,0,0,0,.6-.24,1.24,1.24,0,0,0,.43-.39,1,1,0,0,0,.17-.57,1,1,0,0,0-.42-.87,3.83,3.83,0,0,0-1.07-.55q-.63-.23-1.38-.45a6.07,6.07,0,0,1-1.38-.6,3.37,3.37,0,0,1-1.06-1,2.89,2.89,0,0,1-.42-1.64,3.68,3.68,0,0,1,.39-1.73,3.86,3.86,0,0,1,1-1.24A4.64,4.64,0,0,1,83,194a6.07,6.07,0,0,1,1.75-.25,7,7,0,0,1,2,.29,4.66,4.66,0,0,1,1.74,1Z"/><polygon class="cls-1" points="90.05 194.02 94.12 194.02 96.93 201.99 96.97 201.99 99.8 194.02 103.85 194.02 103.85 206.24 101.16 206.24 101.16 196.87 101.13 196.87 97.91 206.24 95.86 206.24 92.77 196.87 92.74 196.87 92.74 206.24 90.05 206.24 90.05 194.02"/><polygon class="cls-1" points="105.97 194.02 114.28 194.02 114.28 196.51 108.67 196.51 108.67 198.78 113.96 198.78 113.96 201.27 108.67 201.27 108.67 203.75 114.58 203.75 114.58 206.24 105.97 206.24 105.97 194.02"/><path class="cls-1" d="M24.51,220.78v-8.71h3.08c1.67,0,3.19.59,3.19,2.49a2.24,2.24,0,0,1-2,2.37l2.31,3.85H29.21l-2-3.69H26.06v3.69Zm1.55-5h1.28c.89,0,1.82-.12,1.82-1.21s-.9-1.15-1.71-1.15H26.06Z"/><path class="cls-1" d="M35.3,212.07a4.16,4.16,0,0,1,4.4,4.35,4.41,4.41,0,0,1-4.58,4.36H31.83v-8.71Zm-.7,7.31c1.86,0,3.47-.84,3.47-3s-1.36-2.95-3.26-2.95H33.38v5.91Z"/><path class="cls-1" d="M42.58,219.89a1,1,0,0,1-1,1,1,1,0,0,1-1-.93,1,1,0,0,1,1-1,1,1,0,0,1,1,.93"/><path class="cls-1" d="M51.14,213.22l-1.2.89a2.41,2.41,0,0,0-1.84-.86,3,3,0,0,0-3,3.11,3,3,0,0,0,3,3.24,2.45,2.45,0,0,0,2-1.06l1.28.91A3.87,3.87,0,0,1,48.09,221a4.58,4.58,0,1,1,0-9.15,3.84,3.84,0,0,1,3,1.37"/><path class="cls-1" d="M56.07,221a4.58,4.58,0,1,1,.09-9.15,4.32,4.32,0,0,1,4.57,4.56A4.45,4.45,0,0,1,56.07,221m0-1.4a3,3,0,0,0,3-3.24,3,3,0,1,0-6,0,3,3,0,0,0,3,3.24"/><polygon class="cls-1" points="61.78 220.78 61.78 212.07 63.84 212.07 68.06 218.54 68.08 218.54 68.08 212.07 69.63 212.07 69.63 220.78 67.66 220.78 63.36 214.1 63.33 214.1 63.33 220.78 61.78 220.78"/><path class="cls-1" d="M78.72,212.94l-1.15,1.16a3.32,3.32,0,0,0-2.27-.85,3,3,0,0,0-3,3.11,3,3,0,0,0,3,3.24,4.21,4.21,0,0,0,2-.46v-2H75.55v-1.41h3.34v4.46a7.62,7.62,0,0,1-3.59.86,4.58,4.58,0,1,1,0-9.15,5,5,0,0,1,3.42,1.09"/><path class="cls-1" d="M84.41,221a4.58,4.58,0,1,1,4.66-4.59A4.45,4.45,0,0,1,84.41,221m0-1.4a3,3,0,0,0,3-3.24,3,3,0,1,0-6,0,3,3,0,0,0,3,3.24"/><polygon class="cls-1" points="0.19 176.51 4 176.51 9.42 185.36 9.45 185.36 9.45 176.51 12.26 176.51 12.26 189.25 8.59 189.25 3.03 180.18 3 180.18 3 189.25 0.19 189.25 0.19 176.51"/><path class="cls-1" d="M22.14,176.51h2.32L30,189.25H26.83l-1.1-2.7H20.79l-1.07,2.7H16.63Zm1.08,3.71-1.55,4h3.11Z"/><polygon class="cls-1" points="35.18 178.99 31.54 178.99 31.54 176.51 41.62 176.51 41.62 178.99 37.98 178.99 37.98 189.25 35.18 189.25 35.18 178.99"/><rect class="cls-1" x="46.1" y="176.51" width="2.81" height="12.74"/><path class="cls-1" d="M53.87,182.88a7.23,7.23,0,0,1,.51-2.77A6,6,0,0,1,55.81,178,6.15,6.15,0,0,1,58,176.66a8.28,8.28,0,0,1,5.5,0A6.15,6.15,0,0,1,65.67,178a6,6,0,0,1,1.43,2.11,7.78,7.78,0,0,1,0,5.54,6,6,0,0,1-1.43,2.11,6.29,6.29,0,0,1-2.18,1.34,8.28,8.28,0,0,1-5.5,0,6.29,6.29,0,0,1-2.18-1.34,6,6,0,0,1-1.43-2.11,7.23,7.23,0,0,1-.51-2.77m2.91,0a4.61,4.61,0,0,0,.28,1.65,3.89,3.89,0,0,0,.8,1.29,3.6,3.6,0,0,0,1.25.85,4.44,4.44,0,0,0,3.26,0,3.6,3.6,0,0,0,1.25-.85,3.89,3.89,0,0,0,.8-1.29,5,5,0,0,0,0-3.29,3.68,3.68,0,0,0-2.05-2.16,4.58,4.58,0,0,0-3.26,0,3.68,3.68,0,0,0-2,2.16,4.63,4.63,0,0,0-.28,1.64"/><polygon class="cls-1" points="72.61 176.51 76.42 176.51 81.84 185.36 81.88 185.36 81.88 176.51 84.68 176.51 84.68 189.25 81.01 189.25 75.45 180.18 75.42 180.18 75.42 189.25 72.61 189.25 72.61 176.51"/><path class="cls-1" d="M94.56,176.51h2.32l5.54,12.74H99.25l-1.1-2.7H93.21l-1.06,2.7h-3.1Zm1.08,3.71-1.55,4H97.2Z"/><polygon class="cls-1" points="106.9 176.51 109.7 176.51 109.7 186.66 114.42 186.66 114.42 189.25 106.9 189.25 106.9 176.51"/><path class="cls-1" d="M.27,164.25a8.91,8.91,0,0,1,.63-3.42,7.45,7.45,0,0,1,4.47-4.27,9.56,9.56,0,0,1,3.4-.58,9.59,9.59,0,0,1,3.4.58,7.73,7.73,0,0,1,2.7,1.65,7.51,7.51,0,0,1,1.76,2.62,9.48,9.48,0,0,1,0,6.85,7.47,7.47,0,0,1-1.76,2.61,7.76,7.76,0,0,1-2.7,1.66,9.59,9.59,0,0,1-3.4.58,9.56,9.56,0,0,1-3.4-.58,7.76,7.76,0,0,1-2.7-1.66A7.63,7.63,0,0,1,.9,167.68a9,9,0,0,1-.63-3.43m3.6,0a5.78,5.78,0,0,0,.35,2A4.54,4.54,0,0,0,6.76,169a5.18,5.18,0,0,0,2,.38,5.18,5.18,0,0,0,2-.38,4.54,4.54,0,0,0,2.54-2.66,6.23,6.23,0,0,0,0-4.06,4.64,4.64,0,0,0-1-1.61,4.41,4.41,0,0,0-1.55-1.06,5.18,5.18,0,0,0-2-.38,5.18,5.18,0,0,0-2,.38,4.41,4.41,0,0,0-1.55,1.06,4.64,4.64,0,0,0-1,1.61,5.79,5.79,0,0,0-.35,2"/><polygon class="cls-1" points="26.88 156.38 37.45 156.38 37.45 159.58 30.35 159.58 30.35 162.79 36.91 162.79 36.91 165.99 30.35 165.99 30.35 172.13 26.88 172.13 26.88 156.38"/><polygon class="cls-1" points="46.5 156.38 57.07 156.38 57.07 159.58 49.97 159.58 49.97 162.79 56.54 162.79 56.54 165.99 49.97 165.99 49.97 172.13 46.5 172.13 46.5 156.38"/><rect class="cls-1" x="67.33" y="156.38" width="3.47" height="15.75"/><path class="cls-1" d="M91.38,160.47a3.62,3.62,0,0,0-1.26-1,4.24,4.24,0,0,0-1.73-.33,4.38,4.38,0,0,0-1.81.38,4.22,4.22,0,0,0-1.45,1.06,5,5,0,0,0-.95,1.61,6.06,6.06,0,0,0,0,4.06,5.08,5.08,0,0,0,.94,1.6A4.23,4.23,0,0,0,86.54,169a4.09,4.09,0,0,0,1.74.38,3.86,3.86,0,0,0,1.89-.45,3.76,3.76,0,0,0,1.36-1.24l2.89,2.15a5.91,5.91,0,0,1-2.53,2.07,7.8,7.8,0,0,1-3.16.67,9.65,9.65,0,0,1-3.41-.58,7.54,7.54,0,0,1-4.46-4.27,9.63,9.63,0,0,1,0-6.85,7.68,7.68,0,0,1,1.77-2.62,7.78,7.78,0,0,1,2.69-1.65,9.65,9.65,0,0,1,3.41-.58,8.52,8.52,0,0,1,1.39.12,7.12,7.12,0,0,1,1.42.39,6.24,6.24,0,0,1,1.35.71,5.68,5.68,0,0,1,1.16,1.09Z"/><polygon class="cls-1" points="103.57 156.38 114.27 156.38 114.27 159.58 107.04 159.58 107.04 162.52 113.87 162.52 113.87 165.72 107.04 165.72 107.04 168.93 114.67 168.93 114.67 172.13 103.57 172.13 103.57 156.38"/><path class="cls-1" d="M24.91,100.57c-.57-.73-1.52-1.79-2.4-2.85a.73.73,0,0,0-1.3.53c1,7.16,1.38,14.93-3.87,20a6.18,6.18,0,0,0-1.53,3.83l-1,19.67a2.41,2.41,0,0,0,1.48,2.3,1.31,1.31,0,0,0,1.92-1l2.84-17.79a7.54,7.54,0,0,1,2.47-4.41,5.15,5.15,0,0,0,1.27-1.76c4.87-11.41,2.29-15.66.07-18.52"/><path class="cls-1" d="M17.79,78.48a3.8,3.8,0,0,0,.79-2.76l-.11-1.07c-.06-.7-.76-.93-1.13-.52C15,76.64,8.75,82.69,1.55,84.2a2.83,2.83,0,0,0-1.11,1,.88.88,0,0,0,1,1.28c3.3-.6,12.13-2.64,16.39-8"/><path class="cls-1" d="M109.53,6.11c-2.78-1.78-4.23.61-5.76,1.31-2.26,1-7-.32-8.18-1.7s-2.44-2.49-6.33-3C85.77,2.28,75.13.44,73,.07a.68.68,0,0,0-.65.26C71.82,1.09,71,3.13,75,5.46c5.07,3,4.85,6.21,11.5,10.44,8.39,5.34,13.44,5.39,16.91,11.76a.66.66,0,0,0,1.27-.29,55.82,55.82,0,0,0-2.1-10.53,10,10,0,0,1-.4-3.8c.17-1.74.86-3.6,3.86-.95,2,1.82,6.91-1.26,8.5-2.23.63-.38-3.28-2.65-5-3.75"/><path class="cls-1" d="M80.19,98.12c-1.78-.09-1.58,1-1.13,2.81a69.92,69.92,0,0,1,1.65,8.17,78.63,78.63,0,0,1,.42,19,2.18,2.18,0,0,0,1,2.13A1.75,1.75,0,0,0,84.85,129l.61-20.21c0-.91-.09-1.82-.14-2.73-.46-3.33,0-7-4.31-7.82a7.49,7.49,0,0,0-.82-.11"/><path class="cls-1" d="M81.86,37.34a46.16,46.16,0,0,1-8.15,8,51.17,51.17,0,0,1-20.85,9.41C48.59,55.65,44,56.49,39,57.25c0,0-12.15.77-17.31,10.18a.27.27,0,0,0,.4.35c4.61-3.13,13.25-8.69,27.35-6a8.42,8.42,0,0,1,2,.66c.13.51-1.05.33-1.22.29-.58-.13-7.46.18-8.24.31a43.75,43.75,0,0,0-18.08,7.37l-.12.08c-1.35,1-2.56,2.09-3.82,3.07a1.39,1.39,0,0,0-.5.79c-.84,4.15,5.8-1.48,9-2.47h0c5.15-1.6,14.56-3.94,21.05-2,.31.09.68.08.91.31-.15.21-.45.16-.68.21-.4.05-.81.06-1.21.13a34.4,34.4,0,0,1-4.32.14H43.3a41.43,41.43,0,0,0-7.84,1.23,29.56,29.56,0,0,0-2.87.75,33.15,33.15,0,0,0-3.5,1.26,53.29,53.29,0,0,0-7,3.48c-.53.32-1.09.67-1.67,1A1.84,1.84,0,0,0,19.52,80c.19,1.67.55,6.29,2.63,4.06a7.08,7.08,0,0,1,1.92-1.33,30.43,30.43,0,0,1,12.82-4.35A50.48,50.48,0,0,1,44.16,78a15.9,15.9,0,0,1,3.3.46c.43.1,2.11.6.89.93-.73.23-6.57-1.26-14.17,1.41a38.62,38.62,0,0,0-7.9,3.81c-.5.31-1,.65-1.52,1-.76.54-1.48,1.13-2.18,1.73a1.51,1.51,0,0,0-.2.17,2,2,0,0,0-.61,2.19c.15.39.15,1.93,1.62.74a20.84,20.84,0,0,1,6-3.21A21.41,21.41,0,0,1,34.94,86a42.23,42.23,0,0,1,9,.49c2.36,1-8.21.05-13,2.05a32.54,32.54,0,0,0-5.5,3c-2.41,1.59-1.61,2.91-1.24,3.47,1,1.54,2.21,2.06,3.3,3.58,1.9,2.67,5.91,9.48.16,19.21-.36.62-2,2.57-1.13,4.44l8.29,19.88a1.62,1.62,0,0,0,1.52,1h0A1.58,1.58,0,0,0,38,141c-2.5-6.64-3.68-18.29,1.77-28.35,2.92-5.41,6.9-11.7,10-16.35l1-1.58c1.19-2.09,2.94-5,5.14-8.3a3.45,3.45,0,0,1,.25-.37c.65-1,1.36-2,2.1-3a1.3,1.3,0,0,1,.16-.21c8.2-12,19.58-30.51,24.37-46.64-.28.38-.57.77-.88,1.16M42.05,93.94s-.13.1-.22.17a8.57,8.57,0,0,1-1.43.58l-.3.09-1,.29-.35.09a.35.35,0,0,0-.11,0l-.09,0c-.35.08-.7.15-1,.2a9.67,9.67,0,0,1-1.07.1,26.55,26.55,0,0,0-4.34.86c-1,.23-4,2-3.92.79.24-.26.49-.49.72-.71s.54-.47.81-.67c.1-.09.21-.16.31-.24l.33-.22a7.81,7.81,0,0,1,.88-.52,6.39,6.39,0,0,1,.6-.26,2.05,2.05,0,0,1,.38-.16,4.36,4.36,0,0,1,.58-.19l.29-.08A5.23,5.23,0,0,1,33.6,94a9,9,0,0,1,1-.14l2.59-.13,1,0h.14l1.13-.07c.56,0,1.12-.08,1.67-.16l.54-.07a1.17,1.17,0,0,1,.37.17.12.12,0,0,1,0,0,.18.18,0,0,1,.06.13.37.37,0,0,1-.13.22"/><path class="cls-1" d="M101.91,73.14a17.36,17.36,0,0,0-2.36-6.45A11.24,11.24,0,0,0,95.91,63,6.42,6.42,0,0,0,94,62.17C84.58,58.1,74.9,64.16,67,72.4h0l-.5.51c7.14-11.44,14.61-25.38,18-37.91.13-.48.26-1,.38-1.44s.17-.73.26-1.08a.06.06,0,0,1,0,0,73,73,0,0,0,1.82-12c0-.77,1.07-1.67,1.82-1.42,3.94,1.33,14.68,5.85,15,13.05,0,0,1.12,25.74-1.89,41.07"/><path class="cls-1" d="M101,76.77v0c0,.22-.07.44-.1.66a18.24,18.24,0,0,1-1.59,5.21c-2.54,5.19-2.51,19.83-2.51,19.83S98.93,132,98.93,132a1.68,1.68,0,0,1-1.54,1.83,1.73,1.73,0,0,1-1.88-1.35L90.8,109.2a23.91,23.91,0,0,0-3.43-8.45C76.69,84.62,59.06,88.28,58.32,88.43l-2.72.87c.51-.77,1-1.58,1.59-2.41s1.11-1.61,1.7-2.44C67.44,72.45,81,58,93.64,63.4a8.79,8.79,0,0,1,4.85,4A19,19,0,0,1,101,76.77"/><path class="cls-1" d="M51.13,36.42a14.85,14.85,0,1,1-14.85-15,14.94,14.94,0,0,1,14.85,15"/><path class="cls-1" d="M36.49,0A36.05,36.05,0,0,0,.27,35.63,36.53,36.53,0,0,0,18.22,68,12.54,12.54,0,0,1,22,61.24c15.26-13.32,31.6-5.6,48.51-20.55,0,0,0,0,0,0h0a5.43,5.43,0,0,0,1.75-4v-.23A36.23,36.23,0,0,0,36.49,0M52.66,37.51A16.41,16.41,0,1,1,35.22,19.86,16.57,16.57,0,0,1,52.66,37.51"/></g></g></svg>