<svg xmlns="http://www.w3.org/2000/svg" xmlns:xlink="http://www.w3.org/1999/xlink" viewBox="0 0 174.26 81.9"><defs><style>.cls-1{fill:none;}.cls-2{fill:#fff;}.cls-3{opacity:0.8;}.cls-4{clip-path:url(#clip-path);}.cls-5{opacity:0.6;}.cls-6{clip-path:url(#clip-path-2);}.cls-7{clip-path:url(#clip-path-3);}.cls-8{clip-path:url(#clip-path-4);}.cls-9{clip-path:url(#clip-path-5);}</style><clipPath id="clip-path" transform="translate(0)"><rect class="cls-1" x="8.29" y="55.35" width="7.24" height="26.55"/></clipPath><clipPath id="clip-path-2" transform="translate(0)"><rect class="cls-1" x="0.02" y="41.99" width="10.39" height="7.12"/></clipPath><clipPath id="clip-path-3" transform="translate(0)"><rect class="cls-1" x="44.58" y="55.73" width="3.81" height="18.41"/></clipPath><clipPath id="clip-path-4" transform="translate(0)"><rect class="cls-1" x="36.23" y="10.78" width="22.69" height="33.23"/></clipPath><clipPath id="clip-path-5" transform="translate(0)"><rect class="cls-1" width="40.92" height="38.59"/></clipPath></defs><title>ONT5</title><g id="Calque_2" data-name="Calque 2"><g id="Calque_1-2" data-name="Calque 1"><path class="cls-2" d="M172.39,11.11H144.33a1.91,1.91,0,0,0-1.87,2v4.38a1.9,1.9,0,0,0,1.87,1.95h7.15a1.91,1.91,0,0,1,1.88,1.95V46.05a1.91,1.91,0,0,0,1.87,2h6.3a1.92,1.92,0,0,0,1.88-2V21.34a1.91,1.91,0,0,1,1.87-1.95h7.11a1.91,1.91,0,0,0,1.87-1.95V13.06a1.92,1.92,0,0,0-1.87-2" transform="translate(0)"/><path class="cls-2" d="M78.13,32.45a6.47,6.47,0,0,0-.29-1.05c-.08-.19-.32-.2-.52-.17a32.55,32.55,0,0,0-5.44,1.3c-1.06.32-2.13.7-3.22,1-.28.08-.36.35-.29.64.11.51.31,1,.46,1.49.11.32.33.49.62.33.64-.38,1.29-.73,2-1.05A25.78,25.78,0,0,1,77,33.26l.7-.13a.56.56,0,0,0,.44-.68m1-9.13A18.11,18.11,0,0,0,72,24.54c-1.12.45-2.33.77-3.52,1.12a.54.54,0,0,0-.39.44,21.74,21.74,0,0,0-.25,2.2.54.54,0,0,0,.8.52,23.36,23.36,0,0,1,2.89-1.61,20.54,20.54,0,0,1,7-1.57.62.62,0,0,0,.43-.36,7.75,7.75,0,0,1,.82-1.22c.24-.42,0-.7-.58-.74m23-3.1a16.64,16.64,0,0,0-6.48-6.49,18.64,18.64,0,0,0-9.39-2.56A18.24,18.24,0,0,0,77,13.65a17.06,17.06,0,0,0-6.58,6.53,18.7,18.7,0,0,0-1.68,3.74c-.15.49.26.82.68.57.71-.42,1.44-.82,2.19-1.17a13.33,13.33,0,0,1,4.51-1.42c3.7-.49,4.56.1,6,0a10.69,10.69,0,0,0,1.13-.32,9,9,0,0,1,7.31.51A9.56,9.56,0,0,1,94,25.77a7.52,7.52,0,0,1,.9,3.84,8.08,8.08,0,0,1-1.48,4.86,9.36,9.36,0,0,1-3.43,2.88,8.68,8.68,0,0,1-6.39.39c-1.7-.6-5-.07-6.23.16s-4.29,1.18-4.43.94,2.4-1.17,3.69-1.58c.63-.22,2.16-.72,2.82-.85l.12,0c.4-.07.8-.47.57-.81s-.55-.57-.65-.79c-.41-.85-6,.9-7.61,1.4-.69.21-1.2.36-1.89.59a.57.57,0,0,0-.33.78c.23.51.51,1,.79,1.52a18,18,0,0,0,6.44,6.41,17.41,17.41,0,0,0,9.42,2.61,18.84,18.84,0,0,0,9.44-2.59A16.58,16.58,0,0,0,102.15,39a18.33,18.33,0,0,0,0-18.82M77.37,27.13a33.93,33.93,0,0,0-5.64,1.26c-1.21.45-2.27.86-3.55,1.22a.57.57,0,0,0-.39.56c0,.75.08,1.49.16,2.22a.53.53,0,0,0,.79.42,24,24,0,0,1,2.72-1.5,20.83,20.83,0,0,1,5.05-1.63l.8-.13a.56.56,0,0,0,.43-.55,8.4,8.4,0,0,1,.19-1.32.47.47,0,0,0-.56-.55" transform="translate(0)"/><path class="cls-2" d="M138.38,11.26h-6.09a1.93,1.93,0,0,0-1.88,2V27.9a1,1,0,0,1-1.85.69L115.4,12.09a2.14,2.14,0,0,0-1.68-.83h-5.37a1.91,1.91,0,0,0-1.87,2v33a1.9,1.9,0,0,0,1.87,1.95h6.09a1.9,1.9,0,0,0,1.87-1.95V31.51a1,1,0,0,1,1.86-.69l13,16.23a2.87,2.87,0,0,0,2.24,1.1h5a1.91,1.91,0,0,0,1.88-1.95v-33a1.92,1.92,0,0,0-1.88-2" transform="translate(0)"/><path class="cls-2" d="M74.24,66.14a2.59,2.59,0,0,0-.77-1,3.15,3.15,0,0,0-1.14-.53,5.81,5.81,0,0,0-1.39-.16h-2v6.08h2.19a4,4,0,0,0,1.3-.2,3.22,3.22,0,0,0,1.1-.58,2.74,2.74,0,0,0,.74-.94,2.83,2.83,0,0,0,.28-1.3,3.08,3.08,0,0,0-.29-1.42M73,68.36a1.54,1.54,0,0,1-.45.58,1.79,1.79,0,0,1-.7.31,3.85,3.85,0,0,1-.86.09h-.7V65.73h.79a3.1,3.1,0,0,1,.81.11,2,2,0,0,1,.66.33,1.48,1.48,0,0,1,.45.54,1.73,1.73,0,0,1,.17.78,2,2,0,0,1-.17.87" transform="translate(0)"/><path class="cls-2" d="M79.92,64.5v3.68a1.47,1.47,0,0,1-.09.53,1,1,0,0,1-.25.41,1.08,1.08,0,0,1-.39.28,1.13,1.13,0,0,1-.49.1,1.16,1.16,0,0,1-.49-.1,1,1,0,0,1-.39-.28,1.31,1.31,0,0,1-.26-.41,1.47,1.47,0,0,1-.09-.53V64.5H76.13v3.74a2.86,2.86,0,0,0,.17,1,2,2,0,0,0,.48.79,2.38,2.38,0,0,0,.8.53,3.24,3.24,0,0,0,1.12.19,3.14,3.14,0,0,0,1.11-.19,2.42,2.42,0,0,0,.81-.53,2.18,2.18,0,0,0,.48-.79,2.86,2.86,0,0,0,.17-1V64.5Z" transform="translate(0)"/><polygon class="cls-2" points="85.86 64.5 85.86 65.68 87.59 65.68 87.59 70.58 88.94 70.58 88.94 65.68 90.67 65.68 90.67 64.5 85.86 64.5"/><path class="cls-2" d="M98,66.21a3,3,0,0,0-.69-1,2.84,2.84,0,0,0-1-.64,3.87,3.87,0,0,0-2.63,0A3,3,0,0,0,92,66.21a3.54,3.54,0,0,0-.25,1.33A3.49,3.49,0,0,0,92,68.86a2.75,2.75,0,0,0,.69,1,2.85,2.85,0,0,0,1,.64,3.87,3.87,0,0,0,2.63,0,3,3,0,0,0,1-.64,3,3,0,0,0,.69-1,3.49,3.49,0,0,0,.24-1.32A3.54,3.54,0,0,0,98,66.21m-1.29,2.11a1.7,1.7,0,0,1-.38.62,1.84,1.84,0,0,1-.59.41,2,2,0,0,1-.79.15,1.92,1.92,0,0,1-.77-.15,1.78,1.78,0,0,1-.6-.41,1.7,1.7,0,0,1-.38-.62,2.13,2.13,0,0,1-.14-.78,2.21,2.21,0,0,1,.14-.78,1.83,1.83,0,0,1,.38-.63,1.75,1.75,0,0,1,.6-.4,1.92,1.92,0,0,1,.77-.15,2,2,0,0,1,.79.15,1.69,1.69,0,0,1,1,1,2.2,2.2,0,0,1,.13.78,2.13,2.13,0,0,1-.13.78" transform="translate(0)"/><path class="cls-2" d="M103.67,64.5v3.68a1.47,1.47,0,0,1-.09.53,1.31,1.31,0,0,1-.26.41,1,1,0,0,1-.38.28,1.13,1.13,0,0,1-.49.1,1.1,1.1,0,0,1-.49-.1.93.93,0,0,1-.39-.28,1,1,0,0,1-.26-.41,1.47,1.47,0,0,1-.09-.53V64.5H99.88v3.74a2.86,2.86,0,0,0,.16,1,2.18,2.18,0,0,0,.48.79,2.42,2.42,0,0,0,.81.53,3.16,3.16,0,0,0,1.12.19,3.23,3.23,0,0,0,1.11-.19,2.38,2.38,0,0,0,.8-.53,2,2,0,0,0,.48-.79,2.86,2.86,0,0,0,.17-1V64.5Z" transform="translate(0)"/><path class="cls-2" d="M110.27,68a1.53,1.53,0,0,0,1-.57,1.81,1.81,0,0,0,.34-1.09,2,2,0,0,0-.19-.9,1.59,1.59,0,0,0-.5-.56,2.08,2.08,0,0,0-.73-.3,4.17,4.17,0,0,0-.88-.09h-2.36v6.08h1.35V68.15h.65l1.28,2.43h1.6Zm-.18-1.29a.63.63,0,0,1-.28.21,1,1,0,0,1-.36.07l-.38,0h-.79V65.63h.87l.37,0a1,1,0,0,1,.34.1.62.62,0,0,1,.33.58.69.69,0,0,1-.1.38" transform="translate(0)"/><rect class="cls-2" x="113.17" y="64.5" width="1.34" height="6.08"/><path class="cls-2" d="M120.15,67.88a1.65,1.65,0,0,0-.52-.5,2.69,2.69,0,0,0-.67-.3c-.24-.06-.47-.14-.68-.2a1.87,1.87,0,0,1-.51-.25.49.49,0,0,1-.21-.42.52.52,0,0,1,.08-.29.54.54,0,0,1,.23-.19.93.93,0,0,1,.29-.12,1.53,1.53,0,0,1,.3,0,1.45,1.45,0,0,1,.52.1.92.92,0,0,1,.45.3l.92-1a2.36,2.36,0,0,0-.87-.49,3.32,3.32,0,0,0-1-.15,2.8,2.8,0,0,0-.86.13,2.39,2.39,0,0,0-.75.37,2,2,0,0,0-.51.62,1.79,1.79,0,0,0-.2.86,1.45,1.45,0,0,0,.22.82,1.77,1.77,0,0,0,.52.5,3.25,3.25,0,0,0,.69.29c.25.08.48.15.69.23a2,2,0,0,1,.53.27.51.51,0,0,1,.2.43.42.42,0,0,1-.08.28.51.51,0,0,1-.21.2,1,1,0,0,1-.3.12,2,2,0,0,1-.33,0,1.51,1.51,0,0,1-.65-.15,1.35,1.35,0,0,1-.52-.43l-1,1a2.74,2.74,0,0,0,1,.58,3.07,3.07,0,0,0,1.1.19,3.26,3.26,0,0,0,.9-.13,2,2,0,0,0,.75-.37,1.74,1.74,0,0,0,.51-.62,1.9,1.9,0,0,0,.19-.88,1.56,1.56,0,0,0-.21-.86" transform="translate(0)"/><polygon class="cls-2" points="126.9 64.5 125.49 68.47 125.47 68.47 124.07 64.5 122.04 64.5 122.04 70.58 123.38 70.58 123.38 65.92 123.4 65.92 124.93 70.58 125.96 70.58 127.56 65.92 127.58 65.92 127.58 70.58 128.92 70.58 128.92 64.5 126.9 64.5"/><polygon class="cls-2" points="132.24 69.34 132.24 68.11 134.87 68.11 134.87 66.87 132.24 66.87 132.24 65.73 135.03 65.73 135.03 64.5 130.89 64.5 130.89 70.58 135.18 70.58 135.18 69.34 132.24 69.34"/><path class="cls-2" d="M142.7,68.52a1.13,1.13,0,0,0,1-1.18c0-1-.76-1.24-1.59-1.24h-1.54v4.33h.78V68.59h.56l1,1.84h.93Zm-1.34-.59V66.75h.69c.4,0,.85.08.85.58s-.46.6-.91.6Z" transform="translate(0)"/><path class="cls-2" d="M146.17,66.09h-1.73v4.34h1.64a2.19,2.19,0,0,0,2.28-2.17,2.07,2.07,0,0,0-2.19-2.17m-.34,3.64h-.61V66.79h.71c.94,0,1.62.42,1.62,1.47s-.8,1.47-1.72,1.47" transform="translate(0)"/><path class="cls-2" d="M149.52,69.52A.5.5,0,0,0,149,70a.49.49,0,0,0,1,0,.48.48,0,0,0-.49-.47" transform="translate(0)"/><path class="cls-2" d="M154,69.31a1.25,1.25,0,0,1-1,.54,1.5,1.5,0,0,1-1.49-1.62A1.48,1.48,0,0,1,153,66.68a1.18,1.18,0,0,1,.91.43l.6-.44A1.93,1.93,0,0,0,153,66a2.28,2.28,0,1,0,0,4.56,1.93,1.93,0,0,0,1.62-.77Z" transform="translate(0)"/><path class="cls-2" d="M157.2,66a2.28,2.28,0,1,0,2.28,2.28A2.15,2.15,0,0,0,157.2,66m0,3.87a1.59,1.59,0,0,1,0-3.17,1.47,1.47,0,0,1,1.5,1.55,1.5,1.5,0,0,1-1.5,1.62" transform="translate(0)"/><polygon class="cls-2" points="163.35 66.09 163.35 69.31 163.35 69.31 161.24 66.09 160.22 66.09 160.22 70.43 160.99 70.43 160.99 67.11 161.01 67.11 163.15 70.43 164.13 70.43 164.13 66.09 163.35 66.09"/><path class="cls-2" d="M74.89,55.6a2.93,2.93,0,0,0-.72-1.06,3.13,3.13,0,0,0-1.08-.67,4.06,4.06,0,0,0-1.37-.23,4,4,0,0,0-1.37.23,3.13,3.13,0,0,0-1.08.67,2.93,2.93,0,0,0-.72,1.06,3.91,3.91,0,0,0,0,2.75,3,3,0,0,0,.72,1.06,3.27,3.27,0,0,0,1.08.66,4,4,0,0,0,1.37.24,4.06,4.06,0,0,0,1.37-.24,3.27,3.27,0,0,0,1.08-.66,3,3,0,0,0,.72-1.06,3.77,3.77,0,0,0,0-2.75m-1.34,2.19a1.82,1.82,0,0,1-.4.65,1.86,1.86,0,0,1-.62.43,2.33,2.33,0,0,1-.81.14,2.29,2.29,0,0,1-.81-.14,1.86,1.86,0,0,1-.62-.43,1.82,1.82,0,0,1-.4-.65,2.44,2.44,0,0,1,0-1.63,1.85,1.85,0,0,1,1-1.08,2.09,2.09,0,0,1,.81-.15,2.12,2.12,0,0,1,.81.15,1.85,1.85,0,0,1,1,1.08,2.44,2.44,0,0,1,0,1.63" transform="translate(0)"/><polygon class="cls-2" points="82.1 55.09 82.1 53.8 77.85 53.8 77.85 60.14 79.24 60.14 79.24 57.67 81.89 57.67 81.89 56.38 79.24 56.38 79.24 55.09 82.1 55.09"/><polygon class="cls-2" points="89.11 55.09 89.11 53.8 84.86 53.8 84.86 60.14 86.26 60.14 86.26 57.67 88.9 57.67 88.9 56.38 86.26 56.38 86.26 55.09 89.11 55.09"/><rect class="cls-2" x="91.8" y="53.8" width="1.4" height="6.34"/><path class="cls-2" d="M100.38,58.33a1.46,1.46,0,0,1-.54.51,1.7,1.7,0,0,1-.76.17,1.82,1.82,0,0,1-.7-.14,1.75,1.75,0,0,1-.57-.43,2.2,2.2,0,0,1-.39-.64,2.47,2.47,0,0,1-.13-.82,2.39,2.39,0,0,1,.13-.82,2,2,0,0,1,.39-.65,1.69,1.69,0,0,1,.58-.42,1.66,1.66,0,0,1,.73-.16,1.68,1.68,0,0,1,.7.13,1.58,1.58,0,0,1,.5.39l1.08-.88a2.18,2.18,0,0,0-.47-.44,2.94,2.94,0,0,0-1.11-.44,2.77,2.77,0,0,0-.56,0,4,4,0,0,0-1.37.23,3.27,3.27,0,0,0-1.09.67,3,3,0,0,0-.71,1.06,3.77,3.77,0,0,0,0,2.75,3.14,3.14,0,0,0,.71,1.06,3.42,3.42,0,0,0,1.09.66,4,4,0,0,0,1.37.24,3.12,3.12,0,0,0,1.27-.27,2.43,2.43,0,0,0,1-.83Z" transform="translate(0)"/><polygon class="cls-2" points="105.46 58.85 105.46 57.57 108.22 57.57 108.22 56.27 105.46 56.27 105.46 55.09 108.38 55.09 108.38 53.8 104.07 53.8 104.07 60.14 108.53 60.14 108.53 58.85 105.46 58.85"/><polygon class="cls-2" points="120.33 53.8 120.33 58.21 120.31 58.21 117.61 53.8 115.71 53.8 115.71 60.14 117.11 60.14 117.11 55.63 117.13 55.63 119.9 60.14 121.72 60.14 121.72 53.8 120.33 53.8"/><path class="cls-2" d="M128,53.8H126.8l-2.74,6.34h1.55l.52-1.34h2.47l.54,1.34h1.58Zm-1.38,3.82.76-2,.79,2Z" transform="translate(0)"/><polygon class="cls-2" points="131.65 53.8 131.65 55.04 133.46 55.04 133.46 60.14 134.86 60.14 134.86 55.04 136.67 55.04 136.67 53.8 131.65 53.8"/><rect class="cls-2" x="139.06" y="53.8" width="1.4" height="6.34"/><path class="cls-2" d="M149.68,55.6a3,3,0,0,0-.71-1.06,3.13,3.13,0,0,0-1.08-.67,4.12,4.12,0,0,0-1.38-.23,4,4,0,0,0-1.36.23,3.17,3.17,0,0,0-1.09.67,3.21,3.21,0,0,0-.72,1.06,3.91,3.91,0,0,0,0,2.75,3,3,0,0,0,1.81,1.72,4,4,0,0,0,1.36.24,4.12,4.12,0,0,0,1.38-.24,3.27,3.27,0,0,0,1.08-.66,3.14,3.14,0,0,0,.71-1.06,3.77,3.77,0,0,0,0-2.75m-1.34,2.19a1.82,1.82,0,0,1-.4.65,1.86,1.86,0,0,1-.62.43,2.29,2.29,0,0,1-.81.14,2.24,2.24,0,0,1-.8-.14,2,2,0,0,1-.63-.43,2.15,2.15,0,0,1-.4-.65,2.44,2.44,0,0,1,0-1.63,2,2,0,0,1,.4-.65,1.86,1.86,0,0,1,.63-.43,2,2,0,0,1,.8-.15,2.09,2.09,0,0,1,.81.15,1.85,1.85,0,0,1,1,1.08,2.44,2.44,0,0,1,0,1.63" transform="translate(0)"/><polygon class="cls-2" points="157.2 53.8 157.2 58.21 157.18 58.21 154.49 53.8 152.59 53.8 152.59 60.14 153.98 60.14 153.98 55.63 154.01 55.63 156.77 60.14 158.6 60.14 158.6 53.8 157.2 53.8"/><path class="cls-2" d="M164.83,53.8h-1.15l-2.74,6.34h1.54L163,58.8h2.46l.55,1.34h1.57Zm-1.39,3.82.78-2,.77,2Z" transform="translate(0)"/><path class="cls-2" d="M15.84,55.18h0a.25.25,0,0,0,0,.13s0-.07,0-.13" transform="translate(0)"/><path class="cls-2" d="M15.84,55.18a8.89,8.89,0,0,1,.73-.67l-.31.27-.42.4" transform="translate(0)"/><g class="cls-3"><g class="cls-4"><path class="cls-2" d="M14,57.12c-.33-.41-.86-1-1.37-1.62a.41.41,0,0,0-.73.31c.54,4.06.78,8.47-2.21,11.36a3.56,3.56,0,0,0-.86,2.18L8.29,80.52a1.38,1.38,0,0,0,.84,1.31.75.75,0,0,0,1.09-.58l1.62-10.1a4.25,4.25,0,0,1,1.39-2.51,2.87,2.87,0,0,0,.73-1c2.76-6.48,1.3-8.89,0-10.52" transform="translate(0)"/></g></g><g class="cls-5"><g class="cls-6"><path class="cls-2" d="M10,44.58A2.17,2.17,0,0,0,10.4,43l-.06-.61c0-.4-.43-.53-.64-.3-1.33,1.43-4.88,4.87-9,5.73a1.49,1.49,0,0,0-.63.55.49.49,0,0,0,.54.72c1.88-.34,6.89-1.5,9.31-4.52" transform="translate(0)"/></g></g><path class="cls-2" d="M62.06,3.47c-1.58-1-2.4.35-3.27.74a5.43,5.43,0,0,1-4.65-1c-.69-.78-1.38-1.42-3.59-1.7-2-.26-8-1.3-9.24-1.51A.36.36,0,0,0,41,.19c-.31.43-.78,1.59,1.49,2.91C45.32,4.78,45.19,6.63,49,9c4.76,3,7.64,3.06,9.61,6.68a.37.37,0,0,0,.71-.16,30.94,30.94,0,0,0-1.19-6,5.79,5.79,0,0,1-.23-2.15c.1-1,.49-2,2.2-.54,1.16,1,3.92-.72,4.83-1.27.36-.22-1.87-1.51-2.84-2.13" transform="translate(0)"/><g class="cls-3"><g class="cls-7"><path class="cls-2" d="M45.4,55.73c-1,0-.9.6-.65,1.6A38.13,38.13,0,0,1,45.69,62a44.36,44.36,0,0,1,.24,10.8A1.23,1.23,0,0,0,46.51,74a1,1,0,0,0,1.54-.72l.34-11.48c0-.51,0-1-.08-1.55-.26-1.88,0-4-2.45-4.44l-.46-.06" transform="translate(0)"/></g></g><path class="cls-2" d="M46.35,21.2a26,26,0,0,1-4.63,4.56,29,29,0,0,1-11.85,5.35c-2.43.5-5,1-7.88,1.41,0,0-6.91.44-9.85,5.78a.16.16,0,0,0,.24.2,19.31,19.31,0,0,1,15.54-3.43,4.94,4.94,0,0,1,1.16.38c.07.29-.6.19-.7.16-.33-.07-4.24.11-4.69.18a25,25,0,0,0-3.08.71A25.25,25.25,0,0,0,13.43,40s0,0-.07.05c-.77.56-1.45,1.19-2.17,1.74a.8.8,0,0,0-.28.45c-.48,2.36,3.3-.84,5.1-1.4h0c2.93-.91,8.27-2.24,12-1.16.17.05.38,0,.51.17-.09.12-.26.09-.39.12l-.68.07A20,20,0,0,1,25,40.1h-.52a23,23,0,0,0-4.46.7c-.55.12-1.1.26-1.64.43a18,18,0,0,0-2,.71,30.35,30.35,0,0,0-4,2l-.95.56a1,1,0,0,0-.53,1c.1.95.31,3.58,1.49,2.31A4,4,0,0,1,13.52,47a17.47,17.47,0,0,1,7.28-2.47,30,30,0,0,1,4.13-.24,9.17,9.17,0,0,1,1.88.27c.24.06,1.19.34.49.53a19,19,0,0,0-8,.8,22.37,22.37,0,0,0-4.49,2.16l-.85.57a13.36,13.36,0,0,0-1.24,1l-.12.09A1.17,1.17,0,0,0,12.21,51c.08.23.08,1.1.92.43a11.83,11.83,0,0,1,3.44-1.83,11.82,11.82,0,0,1,3.12-.7,23.46,23.46,0,0,1,5.14.28c1.35.59-4.67,0-7.37,1.16A19,19,0,0,0,14.34,52c-1.37.91-.91,1.65-.7,2,.55.88,1.26,1.18,1.87,2,1.09,1.52,3.36,5.39.1,10.91-.21.35-1.14,1.46-.65,2.53l4.71,11.29a1,1,0,0,0,.86.56h0a.9.9,0,0,0,.85-1.21,20.41,20.41,0,0,1,1-16.11c3-5.57,8-12.84,8.24-13.14a23.34,23.34,0,0,1,1.39-2.12l.67-.91c1-1.28,2.17-2.77,3.51-4.28,3.55-5.06,9.51-14.66,12-25.1a18.6,18.6,0,0,1-1.84,2.76M23.74,53.36l-.08.06-.05,0-.19.1-.29.12-.16.06-.17.06-.17.05-.58.16H22l-.13,0-.05,0h-.06a5.59,5.59,0,0,1-.59.11h0a5.7,5.7,0,0,1-.58.06h0a7,7,0,0,0-.75.1c-.27,0-.55.11-.9.2l-.81.19-.18.06-.23.09-.27.11a7.23,7.23,0,0,1-1,.37.31.31,0,0,1-.13,0,.59.59,0,0,1-.32,0,.15.15,0,0,1-.12-.1.25.25,0,0,1,0-.13l.42-.4.32-.27.25-.2.06,0,.08-.06.22-.14c.12-.08.24-.14.37-.21l.34-.16.23-.09a1.93,1.93,0,0,1,.34-.11l.2,0,.24-.06.21,0,.4,0c.49,0,1-.06,1.48-.08.21,0,.43,0,.64,0l.64,0,.95-.09.31,0a.69.69,0,0,1,.21.1l0,0c.06.07,0,.13,0,.21" transform="translate(0)"/><g class="cls-3"><g class="cls-8"><path class="cls-2" d="M57.14,44a16.58,16.58,0,0,0,.23-2.67c0-1.27-1.79-7.69-9.55-6.55-3.35.48-8,4.68-11.59,8.75,3.56-5.06,9.51-14.66,12-25.1a40.68,40.68,0,0,0,1-6.83c0-.44.61-.95,1-.81,2.23.75,8.34,3.32,8.55,7.42,0,0,.77,17.75-1.67,25.79" transform="translate(0)"/></g></g><path class="cls-2" d="M57.37,41.34A16.58,16.58,0,0,1,57.14,44a10.37,10.37,0,0,1-.9,3c-1.44,3-1.43,11.26-1.43,11.26S56,75,56,75a1,1,0,0,1-.87,1,1,1,0,0,1-1.07-.77L51.43,62a13.6,13.6,0,0,0-2-4.8c-6.07-9.16-16.08-7.07-16.5-7L30.66,51v-.12a52.15,52.15,0,0,1,5.57-7.3c3.64-4.07,8.24-8.27,11.59-8.75,7.76-1.14,9.57,5.28,9.55,6.55" transform="translate(0)"/><path class="cls-2" d="M29.78,20.69a9.32,9.32,0,1,1-9.32-9.43,9.38,9.38,0,0,1,9.32,9.43" transform="translate(0)"/><g class="cls-5"><g class="cls-9"><path class="cls-2" d="M20.58,0A20.46,20.46,0,0,0,0,20.24,20.7,20.7,0,0,0,10.2,38.59a7,7,0,0,1,2.13-3.8c8.67-7.57,18-3.19,27.56-11.68h0s0,0,0,0a3,3,0,0,0,1-2.26s0-.09,0-.13A20.58,20.58,0,0,0,20.58,0m9.18,21.3a9.24,9.24,0,0,1-.39,2.12c0,.14-.08.28-.13.41l-.15.4c-.05.12-.1.26-.16.38a10.74,10.74,0,0,1-.6,1.11c-.07.12-.15.23-.23.35l-.24.34a9.17,9.17,0,0,1-1.43,1.49,9,9,0,0,1-1,.75,9.78,9.78,0,0,1-1.77.89l-.11,0-.39.14A11.83,11.83,0,0,1,22,30a8.35,8.35,0,0,1-.89.1,9.2,9.2,0,0,1-4.65-.91,7.37,7.37,0,0,1-.78-.43h0c-.26-.16-.5-.33-.74-.51h0a7.75,7.75,0,0,1-1-.89,9.47,9.47,0,0,1-2.72-7.27A9.34,9.34,0,0,1,11.54,18a8.15,8.15,0,0,1,.29-.83,9.83,9.83,0,0,1,2-3.1,8.09,8.09,0,0,1,.61-.56,10.56,10.56,0,0,1,1-.75,9.34,9.34,0,0,1,1.76-.88l.11,0,.4-.13A7.9,7.9,0,0,1,19,11.39c.29-.05.58-.08.88-.11a9.38,9.38,0,0,1,9.91,10" transform="translate(0)"/></g></g></g></g></svg>