<svg xmlns="http://www.w3.org/2000/svg" viewBox="0 0 174.26 81.91"><defs><style>.cls-1{fill:#fff;}</style></defs><title>ONT6</title><g id="Calque_2" data-name="Calque 2"><g id="Calque_1-2" data-name="Calque 1"><path class="cls-1" d="M172.38,11.12h-28a1.91,1.91,0,0,0-1.87,2v4.37a1.91,1.91,0,0,0,1.87,1.95h7.16a1.91,1.91,0,0,1,1.87,1.95V46.05a1.91,1.91,0,0,0,1.88,2h6.29a1.91,1.91,0,0,0,1.88-2V21.34a1.91,1.91,0,0,1,1.87-1.95h7.1a1.91,1.91,0,0,0,1.88-1.95V13.07a1.91,1.91,0,0,0-1.88-2"/><path class="cls-1" d="M78.13,32.45a6.47,6.47,0,0,0-.29-1.05c-.07-.19-.32-.2-.52-.17a32.79,32.79,0,0,0-5.44,1.3c-1.06.33-2.13.7-3.22,1a.49.49,0,0,0-.29.64,15.16,15.16,0,0,0,.47,1.49c.1.32.32.49.6.33.65-.38,1.3-.73,2-1.05A26.35,26.35,0,0,1,77,33.26l.7-.13a.56.56,0,0,0,.44-.68m1-9.13A18.17,18.17,0,0,0,72,24.54a36.11,36.11,0,0,1-3.52,1.12.54.54,0,0,0-.38.44,17.41,17.41,0,0,0-.25,2.2.53.53,0,0,0,.8.52,22,22,0,0,1,2.89-1.61,20.55,20.55,0,0,1,7-1.57.6.6,0,0,0,.43-.36,7.75,7.75,0,0,1,.82-1.22c.24-.42,0-.69-.57-.74m23-3.1a16.66,16.66,0,0,0-6.49-6.49,18.62,18.62,0,0,0-9.38-2.55A18.24,18.24,0,0,0,77,13.65a17,17,0,0,0-6.57,6.53,18.19,18.19,0,0,0-1.69,3.74c-.15.49.27.82.68.57.71-.42,1.44-.82,2.19-1.17a13.33,13.33,0,0,1,4.51-1.42c3.7-.48,4.56.1,6,0a8.31,8.31,0,0,0,1.13-.32,8.91,8.91,0,0,1,7.31.52A9.45,9.45,0,0,1,94,25.77a7.52,7.52,0,0,1,.9,3.84,8,8,0,0,1-1.48,4.86A9.34,9.34,0,0,1,90,37.36a8.75,8.75,0,0,1-6.4.38c-1.7-.6-5-.07-6.23.16s-4.29,1.18-4.43.94,2.41-1.17,3.69-1.58c.63-.22,2.16-.72,2.83-.85l.11,0c.4-.07.8-.46.57-.81s-.55-.56-.65-.79c-.41-.85-6,.9-7.6,1.4-.69.21-1.2.36-1.9.59a.57.57,0,0,0-.33.78,16.82,16.82,0,0,0,.79,1.52,18,18,0,0,0,6.45,6.41,17.39,17.39,0,0,0,9.42,2.61,18.84,18.84,0,0,0,9.43-2.59,16.62,16.62,0,0,0,6.45-6.46,18.38,18.38,0,0,0,0-18.83M77.37,27.13a35.07,35.07,0,0,0-5.64,1.26c-1.21.45-2.26.86-3.54,1.23a.54.54,0,0,0-.4.55A18.12,18.12,0,0,0,68,32.39a.53.53,0,0,0,.79.42,21.74,21.74,0,0,1,2.72-1.49,20.36,20.36,0,0,1,5-1.64l.8-.13a.54.54,0,0,0,.43-.55,8.4,8.4,0,0,1,.19-1.32.47.47,0,0,0-.56-.55"/><path class="cls-1" d="M138.39,11.27H132.3a1.91,1.91,0,0,0-1.88,1.94V27.9a1,1,0,0,1-1.86.69L115.4,12.09a2.11,2.11,0,0,0-1.68-.82h-5.37a1.91,1.91,0,0,0-1.87,1.94v33a1.91,1.91,0,0,0,1.87,1.95h6.09a1.91,1.91,0,0,0,1.88-1.95V31.52a1,1,0,0,1,1.85-.7l13,16.23a2.86,2.86,0,0,0,2.25,1.1h5a1.91,1.91,0,0,0,1.87-1.95v-33a1.91,1.91,0,0,0-1.87-1.94"/><path class="cls-1" d="M74.25,66.14a2.7,2.7,0,0,0-.78-1,3.29,3.29,0,0,0-1.15-.53,5.61,5.61,0,0,0-1.38-.16h-2v6.08h2.18a4,4,0,0,0,1.3-.2,3.38,3.38,0,0,0,1.1-.57,3,3,0,0,0,.75-1,3,3,0,0,0,.28-1.3,3.21,3.21,0,0,0-.29-1.42M73,68.36a1.54,1.54,0,0,1-.45.58,1.79,1.79,0,0,1-.7.31,3.85,3.85,0,0,1-.86.09h-.7v-3.6h.79a3.1,3.1,0,0,1,.81.1,1.86,1.86,0,0,1,.66.33,1.39,1.39,0,0,1,.45.54,1.63,1.63,0,0,1,.17.78,1.88,1.88,0,0,1-.17.87"/><path class="cls-1" d="M79.92,64.5v3.69a1.46,1.46,0,0,1-.09.52,1.27,1.27,0,0,1-.25.42,1,1,0,0,1-.39.27,1.13,1.13,0,0,1-.49.1,1.16,1.16,0,0,1-.49-.1,1.05,1.05,0,0,1-.39-.27,1.27,1.27,0,0,1-.25-.42,1.46,1.46,0,0,1-.09-.52V64.5H76.13v3.74a2.86,2.86,0,0,0,.17,1,2.14,2.14,0,0,0,1.29,1.32,3.34,3.34,0,0,0,2.22,0,2.14,2.14,0,0,0,1.29-1.32,2.86,2.86,0,0,0,.17-1V64.5Z"/><polygon class="cls-1" points="85.87 64.5 85.87 65.69 87.6 65.69 87.6 70.58 88.94 70.58 88.94 65.69 90.67 65.69 90.67 64.5 85.87 64.5"/><path class="cls-1" d="M98,66.22a2.81,2.81,0,0,0-1.72-1.65A3.68,3.68,0,0,0,95,64.34a3.64,3.64,0,0,0-1.31.23,2.69,2.69,0,0,0-1,.64,2.75,2.75,0,0,0-.69,1,3.61,3.61,0,0,0,0,2.64,2.88,2.88,0,0,0,.69,1,3,3,0,0,0,1,.64,3.64,3.64,0,0,0,1.31.22,3.68,3.68,0,0,0,1.31-.22,3.29,3.29,0,0,0,1-.64,3.12,3.12,0,0,0,.67-1,3.61,3.61,0,0,0,0-2.64m-1.27,2.1a1.64,1.64,0,0,1-.39.62,1.92,1.92,0,0,1-.59.42,2.24,2.24,0,0,1-1.56,0,1.81,1.81,0,0,1-.59-.42,1.64,1.64,0,0,1-.39-.62,2.13,2.13,0,0,1-.13-.78,2.2,2.2,0,0,1,.13-.78,1.72,1.72,0,0,1,.39-.62,1.65,1.65,0,0,1,.59-.41,2.24,2.24,0,0,1,1.56,0,1.74,1.74,0,0,1,.59.41,1.72,1.72,0,0,1,.39.62,2.2,2.2,0,0,1,.13.78,2.13,2.13,0,0,1-.13.78"/><path class="cls-1" d="M103.67,64.5v3.69a1.4,1.4,0,0,1-.34.94,1.05,1.05,0,0,1-.39.27,1.13,1.13,0,0,1-.49.1,1.1,1.1,0,0,1-.49-.1,1.09,1.09,0,0,1-.4-.27,1.27,1.27,0,0,1-.25-.42,1.46,1.46,0,0,1-.09-.52V64.5H99.88v3.74a2.86,2.86,0,0,0,.16,1,2.2,2.2,0,0,0,.49.79,2.12,2.12,0,0,0,.81.53,3.06,3.06,0,0,0,1.11.19,3.14,3.14,0,0,0,1.11-.19,2.16,2.16,0,0,0,.8-.53,2.07,2.07,0,0,0,.49-.79,3.11,3.11,0,0,0,.16-1V64.5Z"/><path class="cls-1" d="M110.27,68a1.56,1.56,0,0,0,1-.56,1.86,1.86,0,0,0,.33-1.1,2,2,0,0,0-.18-.89,1.54,1.54,0,0,0-.5-.57,2.08,2.08,0,0,0-.73-.3,4.17,4.17,0,0,0-.88-.09h-2.36v6.08h1.35V68.16h.66l1.27,2.42h1.61Zm-.18-1.29a.63.63,0,0,1-.28.21,1,1,0,0,1-.36.07l-.38,0h-.79V65.64h.87a2.3,2.3,0,0,1,.37,0,.9.9,0,0,1,.34.1.79.79,0,0,1,.24.21.65.65,0,0,1,.1.37.61.61,0,0,1-.11.38"/><rect class="cls-1" x="113.17" y="64.5" width="1.34" height="6.08"/><path class="cls-1" d="M120.15,67.88a1.46,1.46,0,0,0-.52-.5,2.91,2.91,0,0,0-.67-.3c-.24-.06-.46-.13-.68-.2a2,2,0,0,1-.51-.25.49.49,0,0,1-.21-.42.54.54,0,0,1,.31-.48,1,1,0,0,1,.29-.12,1.51,1.51,0,0,1,.3,0,1.44,1.44,0,0,1,.53.09,1,1,0,0,1,.44.3l.92-1a2.4,2.4,0,0,0-.86-.49,3.78,3.78,0,0,0-1-.15,3.16,3.16,0,0,0-.87.13,2.39,2.39,0,0,0-.75.37,2,2,0,0,0-.51.62,1.82,1.82,0,0,0-.2.86,1.45,1.45,0,0,0,.22.82,1.69,1.69,0,0,0,.53.5,2.86,2.86,0,0,0,.69.29l.68.23a2,2,0,0,1,.53.27.52.52,0,0,1,.21.43.55.55,0,0,1-.08.29.76.76,0,0,1-.21.19.84.84,0,0,1-.31.12,1.24,1.24,0,0,1-.33,0,1.51,1.51,0,0,1-.65-.15,1.35,1.35,0,0,1-.52-.43l-1,1a2.57,2.57,0,0,0,1,.58,3,3,0,0,0,1.1.19,3.68,3.68,0,0,0,.89-.12,2.29,2.29,0,0,0,.75-.37,1.66,1.66,0,0,0,.51-.63,1.87,1.87,0,0,0,.19-.88,1.56,1.56,0,0,0-.21-.86"/><polygon class="cls-1" points="126.9 64.5 125.49 68.47 125.47 68.47 124.07 64.5 122.05 64.5 122.05 70.58 123.38 70.58 123.38 65.92 123.4 65.92 124.94 70.58 125.96 70.58 127.56 65.92 127.58 65.92 127.58 70.58 128.92 70.58 128.92 64.5 126.9 64.5"/><polygon class="cls-1" points="132.24 69.34 132.24 68.11 134.87 68.11 134.87 66.87 132.24 66.87 132.24 65.74 135.03 65.74 135.03 64.5 130.89 64.5 130.89 70.58 135.18 70.58 135.18 69.34 132.24 69.34"/><path class="cls-1" d="M142.71,68.52a1.12,1.12,0,0,0,1-1.18c0-1-.76-1.24-1.59-1.24h-1.54v4.34h.78V68.6h.56l1,1.84h.94Zm-1.35-.59V66.76h.69c.41,0,.85.07.85.58s-.46.59-.91.59Z"/><path class="cls-1" d="M146.18,66.09h-1.73v4.35h1.63a2.2,2.2,0,0,0,2.29-2.17,2.08,2.08,0,0,0-2.19-2.18m-.35,3.64h-.61V66.8h.71c.94,0,1.62.41,1.62,1.47s-.79,1.46-1.72,1.46"/><path class="cls-1" d="M149.52,69.53A.47.47,0,1,0,150,70a.47.47,0,0,0-.49-.46"/><path class="cls-1" d="M154,69.31a1.2,1.2,0,0,1-1,.54,1.49,1.49,0,0,1-1.49-1.61A1.47,1.47,0,0,1,153,66.69a1.21,1.21,0,0,1,.92.42l.59-.44A1.93,1.93,0,0,0,153,66a2.28,2.28,0,1,0,0,4.56,1.92,1.92,0,0,0,1.62-.77Z"/><path class="cls-1" d="M157.2,66a2.28,2.28,0,1,0,0,4.56,2.21,2.21,0,0,0,2.33-2.28A2.16,2.16,0,0,0,157.2,66m0,3.87a1.49,1.49,0,0,1-1.49-1.61,1.49,1.49,0,1,1,3,0,1.49,1.49,0,0,1-1.49,1.61"/><polygon class="cls-1" points="163.36 66.09 163.36 69.31 163.35 69.31 161.24 66.09 160.22 66.09 160.22 70.44 160.99 70.44 160.99 67.11 161.01 67.11 163.15 70.44 164.13 70.44 164.13 66.09 163.36 66.09"/><path class="cls-1" d="M167.3,67.9v.7h.88v1a2.13,2.13,0,0,1-1,.23,1.5,1.5,0,0,1-1.5-1.61,1.48,1.48,0,0,1,1.49-1.55,1.67,1.67,0,0,1,1.14.42l.57-.58a2.5,2.5,0,0,0-1.71-.55,2.28,2.28,0,1,0,0,4.56,3.76,3.76,0,0,0,1.8-.43V67.9Z"/><path class="cls-1" d="M172,66a2.28,2.28,0,1,0,0,4.56,2.21,2.21,0,0,0,2.32-2.28A2.16,2.16,0,0,0,172,66m0,3.87a1.49,1.49,0,0,1-1.49-1.61,1.5,1.5,0,1,1,3,0,1.5,1.5,0,0,1-1.5,1.61"/><path class="cls-1" d="M74.89,55.6a3,3,0,0,0-.71-1.06,3.27,3.27,0,0,0-1.09-.67,4.2,4.2,0,0,0-2.74,0,3.13,3.13,0,0,0-1.08.67,2.91,2.91,0,0,0-.71,1.06,3.79,3.79,0,0,0,0,2.76,3,3,0,0,0,.71,1,3.29,3.29,0,0,0,1.08.67,4.2,4.2,0,0,0,2.74,0,3.44,3.44,0,0,0,1.09-.67,3.19,3.19,0,0,0,.71-1,3.93,3.93,0,0,0,0-2.76m-1.33,2.2a2.23,2.23,0,0,1-.4.64,2.13,2.13,0,0,1-.63.43,2.41,2.41,0,0,1-1.62,0,2,2,0,0,1-.62-.43,2,2,0,0,1-.4-.64,2.48,2.48,0,0,1-.14-.82,2.39,2.39,0,0,1,.14-.82,1.87,1.87,0,0,1,.4-.65,1.79,1.79,0,0,1,.62-.42,2.06,2.06,0,0,1,2.25.42,2,2,0,0,1,.4.65,2.39,2.39,0,0,1,.13.82,2.47,2.47,0,0,1-.13.82"/><polygon class="cls-1" points="82.11 55.09 82.11 53.8 77.85 53.8 77.85 60.14 79.25 60.14 79.25 57.67 81.89 57.67 81.89 56.38 79.25 56.38 79.25 55.09 82.11 55.09"/><polygon class="cls-1" points="89.12 55.09 89.12 53.8 84.86 53.8 84.86 60.14 86.26 60.14 86.26 57.67 88.9 57.67 88.9 56.38 86.26 56.38 86.26 55.09 89.12 55.09"/><rect class="cls-1" x="91.8" y="53.8" width="1.4" height="6.34"/><path class="cls-1" d="M100.39,58.33a1.49,1.49,0,0,1-.55.51,1.58,1.58,0,0,1-.76.17,1.73,1.73,0,0,1-.71-.14,2,2,0,0,1-.56-.43,2.17,2.17,0,0,1-.38-.64,2.25,2.25,0,0,1-.14-.82,2.17,2.17,0,0,1,.14-.82,2,2,0,0,1,.38-.65,1.77,1.77,0,0,1,.59-.42,1.6,1.6,0,0,1,.73-.16,1.84,1.84,0,0,1,.69.13,1.31,1.31,0,0,1,.5.4l1.08-.88a2.17,2.17,0,0,0-.46-.45,3.17,3.17,0,0,0-.55-.28,3.7,3.7,0,0,0-.57-.16,3.75,3.75,0,0,0-.56,0,4.06,4.06,0,0,0-1.37.23,3.27,3.27,0,0,0-1.09.67,3,3,0,0,0-.71,1.06A3.57,3.57,0,0,0,95.83,57a3.61,3.61,0,0,0,.26,1.38,3.19,3.19,0,0,0,.71,1,3.44,3.44,0,0,0,1.09.67,4.06,4.06,0,0,0,1.37.23,3.12,3.12,0,0,0,1.27-.27,2.49,2.49,0,0,0,1-.83Z"/><polygon class="cls-1" points="105.47 58.86 105.47 57.57 108.22 57.57 108.22 56.27 105.47 56.27 105.47 55.09 108.38 55.09 108.38 53.8 104.07 53.8 104.07 60.14 108.54 60.14 108.54 58.86 105.47 58.86"/><polygon class="cls-1" points="120.33 53.8 120.33 58.21 120.31 58.21 117.62 53.8 115.72 53.8 115.72 60.14 117.11 60.14 117.11 55.63 117.13 55.63 119.9 60.14 121.73 60.14 121.73 53.8 120.33 53.8"/><path class="cls-1" d="M128,53.8h-1.15l-2.75,6.34h1.55l.53-1.34h2.46l.54,1.34h1.58Zm-1.39,3.82.77-2,.79,2Z"/><polygon class="cls-1" points="131.65 53.8 131.65 55.04 133.46 55.04 133.46 60.14 134.86 60.14 134.86 55.04 136.67 55.04 136.67 53.8 131.65 53.8"/><rect class="cls-1" x="139.06" y="53.8" width="1.4" height="6.34"/><path class="cls-1" d="M149.69,55.6a3,3,0,0,0-1.81-1.73,4,4,0,0,0-1.36-.23,4,4,0,0,0-1.37.23,3.17,3.17,0,0,0-1.09.67,3,3,0,0,0-.71,1.06,3.57,3.57,0,0,0-.26,1.38,3.61,3.61,0,0,0,.26,1.38,3.19,3.19,0,0,0,.71,1,3.33,3.33,0,0,0,1.09.67,4,4,0,0,0,1.37.23,4,4,0,0,0,1.36-.23,3.07,3.07,0,0,0,1.81-1.72,3.93,3.93,0,0,0,0-2.76m-1.34,2.2a2.23,2.23,0,0,1-.4.64,2.09,2.09,0,0,1-.62.43,2.12,2.12,0,0,1-.81.14,2.09,2.09,0,0,1-.81-.14,1.87,1.87,0,0,1-1-1.07,2.25,2.25,0,0,1-.14-.82,2.17,2.17,0,0,1,.14-.82,1.73,1.73,0,0,1,.4-.65,1.7,1.7,0,0,1,.62-.42,1.92,1.92,0,0,1,.81-.16,2,2,0,0,1,.81.16,1.89,1.89,0,0,1,.62.42,2,2,0,0,1,.4.65,2.39,2.39,0,0,1,.14.82,2.48,2.48,0,0,1-.14.82"/><polygon class="cls-1" points="157.2 53.8 157.2 58.21 157.19 58.21 154.49 53.8 152.59 53.8 152.59 60.14 153.99 60.14 153.99 55.63 154.01 55.63 156.78 60.14 158.6 60.14 158.6 53.8 157.2 53.8"/><path class="cls-1" d="M164.84,53.8h-1.16l-2.74,6.34h1.54L163,58.8h2.46l.55,1.34h1.57Zm-1.39,3.82.77-2,.78,2Z"/><polygon class="cls-1" points="171.39 58.86 171.39 53.8 169.99 53.8 169.99 60.14 173.97 60.14 173.97 58.86 171.39 58.86"/><path class="cls-1" d="M14,57.12c-.33-.41-.86-1-1.36-1.62a.42.42,0,0,0-.74.31c.55,4.06.78,8.48-2.2,11.36a3.53,3.53,0,0,0-.87,2.18L8.29,80.52a1.38,1.38,0,0,0,.84,1.31.75.75,0,0,0,1.09-.58l1.62-10.1a4.27,4.27,0,0,1,1.4-2.51,2.9,2.9,0,0,0,.72-1c2.76-6.49,1.3-8.9,0-10.53"/><path class="cls-1" d="M10,44.58A2.15,2.15,0,0,0,10.4,43l-.05-.61a.38.38,0,0,0-.65-.29c-1.33,1.42-4.88,4.86-9,5.72a1.49,1.49,0,0,0-.63.55.5.5,0,0,0,.54.73c1.88-.34,6.9-1.51,9.32-4.53"/><path class="cls-1" d="M62.06,3.47c-1.58-1-2.4.35-3.27.74a5.42,5.42,0,0,1-4.64-1c-.69-.78-1.39-1.41-3.6-1.7-2-.26-8-1.3-9.24-1.51A.36.36,0,0,0,41,.19c-.31.43-.78,1.59,1.49,2.91C45.32,4.79,45.2,6.63,49,9c4.77,3,7.64,3.07,9.61,6.68a.38.38,0,0,0,.72-.16,31.66,31.66,0,0,0-1.2-6,5.84,5.84,0,0,1-.22-2.16c.09-1,.49-2,2.19-.54,1.17,1,3.92-.72,4.83-1.27.36-.22-1.86-1.5-2.84-2.13"/><path class="cls-1" d="M45.4,55.73c-1,0-.9.6-.64,1.6A38.1,38.1,0,0,1,45.69,62a44.44,44.44,0,0,1,.24,10.81,1.24,1.24,0,0,0,.58,1.2,1,1,0,0,0,1.54-.71l.34-11.49c0-.51,0-1-.08-1.54-.26-1.89,0-4-2.45-4.45l-.46-.06"/><path class="cls-1" d="M46.35,21.21a25.89,25.89,0,0,1-4.63,4.55,29,29,0,0,1-11.85,5.35c-2.42.5-5,1-7.88,1.41,0,0-6.91.44-9.84,5.78a.16.16,0,0,0,.23.2,19.31,19.31,0,0,1,15.54-3.43,4.94,4.94,0,0,1,1.16.38c.07.29-.6.19-.7.16-.33-.07-4.24.11-4.68.18a25.57,25.57,0,0,0-3.09.71A25.14,25.14,0,0,0,13.43,40l-.07,0c-.77.56-1.45,1.19-2.17,1.74a.86.86,0,0,0-.28.45c-.48,2.36,3.29-.84,5.1-1.4h0c2.93-.91,8.27-2.24,12-1.16.17.05.39,0,.51.17-.08.12-.25.09-.38.12l-.69.07A18.07,18.07,0,0,1,25,40.1h-.52a23.14,23.14,0,0,0-4.46.7c-.54.12-1.09.26-1.63.43a17.28,17.28,0,0,0-2,.71,29.86,29.86,0,0,0-4,2c-.3.18-.62.38-.95.56a1,1,0,0,0-.53,1c.1.95.31,3.58,1.49,2.31a3.92,3.92,0,0,1,1.1-.76,17.38,17.38,0,0,1,7.28-2.47,28.3,28.3,0,0,1,4.12-.23,9.06,9.06,0,0,1,1.88.26c.24.06,1.2.34.5.53a19.27,19.27,0,0,0-8,.8,22.29,22.29,0,0,0-4.48,2.16c-.29.18-.58.37-.86.57-.44.31-.84.64-1.24,1a.52.52,0,0,0-.11.1A1.13,1.13,0,0,0,12.22,51c.08.22.08,1.09.91.42a11.83,11.83,0,0,1,3.44-1.83,11.9,11.9,0,0,1,3.13-.7,23.41,23.41,0,0,1,5.13.28c1.34.59-4.66,0-7.36,1.16A18.65,18.65,0,0,0,14.34,52c-1.36.91-.91,1.65-.7,2,.56.88,1.26,1.18,1.88,2,1.08,1.51,3.35,5.38.09,10.91-.21.35-1.14,1.46-.64,2.52l4.71,11.29a.93.93,0,0,0,.86.56h0a.9.9,0,0,0,.86-1.21,20.39,20.39,0,0,1,1-16.1c1.66-3.07,3.92-6.65,5.66-9.29l.58-.89c.67-1.19,1.67-2.86,2.92-4.72l.14-.21c.37-.56.78-1.14,1.2-1.73L33,47c4.66-6.83,11.13-17.33,13.85-26.49l-.5.66M23.74,53.36l-.13.09a5.07,5.07,0,0,1-.81.34l-.17.05-.58.16-.2,0-.05,0h-.06c-.2.05-.4.08-.59.11l-.61.06a14.66,14.66,0,0,0-2.47.49c-.55.13-2.28,1.15-2.23.45.14-.15.28-.28.42-.41a3.92,3.92,0,0,1,.46-.37.75.75,0,0,1,.17-.14l.19-.13c.16-.1.33-.21.5-.3l.34-.14a1,1,0,0,1,.21-.09,1.93,1.93,0,0,1,.34-.11l.16,0a1.55,1.55,0,0,1,.31-.06,3.81,3.81,0,0,1,.59-.08L21,53.23l.56,0h.08l.64,0c.32,0,.64-.05.95-.09l.31,0a1,1,0,0,1,.21.1l0,0a.08.08,0,0,1,0,.07.24.24,0,0,1-.07.13"/><path class="cls-1" d="M57.73,41.54a9.89,9.89,0,0,0-1.33-3.66,6.52,6.52,0,0,0-2.07-2.1,3.78,3.78,0,0,0-1.06-.47C47.89,33,42.4,36.44,37.88,41.12h0a3.9,3.9,0,0,0-.28.29c4-6.5,8.3-14.42,10.23-21.54.08-.27.15-.54.22-.82s.09-.41.15-.61v0a40.7,40.7,0,0,0,1-6.83c0-.44.6-.95,1-.81,2.24.76,8.34,3.33,8.55,7.42,0,0,.64,14.62-1.08,23.32"/><path class="cls-1" d="M57.2,43.6v0h0a2.5,2.5,0,0,1-.06.38,10.18,10.18,0,0,1-.9,3c-1.44,3-1.42,11.26-1.42,11.26S56,75,56,75a1,1,0,0,1-.87,1,1,1,0,0,1-1.07-.77L51.43,62a13.54,13.54,0,0,0-2-4.8c-6.07-9.17-16.08-7.08-16.51-7l-1.54.49.9-1.36,1-1.39c4.86-6.82,12.53-15,19.74-12a5,5,0,0,1,2.75,2.29,10.73,10.73,0,0,1,1.41,5.3"/><path class="cls-1" d="M28.89,20.69a8.43,8.43,0,1,1-8.43-8.53,8.48,8.48,0,0,1,8.43,8.53"/><path class="cls-1" d="M20.58,0A20.48,20.48,0,0,0,0,20.24,20.78,20.78,0,0,0,10.2,38.6a7,7,0,0,1,2.13-3.81c8.67-7.57,18-3.19,27.56-11.68h0a3.1,3.1,0,0,0,1-2.27v-.13A20.58,20.58,0,0,0,20.58,0m9.18,21.3a9.32,9.32,0,1,1-9.91-10,9.4,9.4,0,0,1,9.91,10"/></g></g></svg>